<!-- Generated by IcoMoon.io -->
<svg version="1.1" xmlns="http://www.w3.org/2000/svg" width="32" height="32" viewBox="0 0 32 32">
<title>arquivo</title>
<path fill="#5c5b5f" d="M17.389 21.202c-0.004-0.297-0.243-0.543-0.549-0.543-0.298 0.003-0.541 0.242-0.539 0.545 0 0.298 0.242 0.543 0.541 0.54 0.301 0.003 0.541-0.239 0.547-0.543z"></path>
<path fill="#5c5b5f" d="M18.743 22.557l-1.627 0.005-0.005-0.813-0.269-0.005-0.271 0.003v0.815l-1.629 0.003 0.005 1.357 0.269-0.001 0.271 0.001v-0.814l1.084-0.003 0.003 0.817 0.27-0.001h0.271v-0.815h1.091l-0.003 0.815h0.273l0.271-0.005z"></path>
<path fill="#5c5b5f" d="M14.671 24.467c0 0.3 0.244 0.543 0.547 0.54 0.301 0.003 0.541-0.242 0.54-0.543 0.003-0.3-0.243-0.545-0.543-0.545-0.3 0.005-0.544 0.246-0.544 0.548z"></path>
<path fill="#5c5b5f" d="M17.388 24.463c0 0.3-0.243 0.543-0.543 0.543s-0.543-0.243-0.543-0.543c0-0.3 0.243-0.543 0.543-0.543s0.543 0.243 0.543 0.543z"></path>
<path fill="#5c5b5f" d="M27.602 16.797c-0.2-0.288-0.562-0.454-0.979-0.454l-9.706 0.008c0.031-0.234-0.022-0.466-0.157-0.658-0.209-0.289-0.568-0.453-0.987-0.451l-5.748 0.004c-0.664 0-1.311 0.407-1.489 0.946l-3.599 10.624c-0.097 0.293-0.054 0.602 0.123 0.844 0.205 0.291 0.568 0.453 0.986 0.453l16.974-0.017c0.668 0.001 1.307-0.406 1.487-0.943l3.214-9.508c0.105-0.294 0.060-0.607-0.118-0.847zM16.847 26.87c-2.225 0.001-4.033-1.805-4.041-4.032 0.005-2.227 1.807-4.035 4.036-4.035 2.222-0.005 4.029 1.8 4.032 4.027 0.004 2.23-1.802 4.037-4.027 4.040z"></path>
<path fill="#5c5b5f" d="M18.476 23.921c-0.297-0.003-0.544 0.242-0.544 0.543 0 0.302 0.244 0.544 0.547 0.544 0.3 0 0.543-0.243 0.543-0.544-0.006-0.305-0.248-0.545-0.545-0.543z"></path>
<path fill="#5c5b5f" d="M5.201 21.74l-0.006-7.841c-0.005-0.47 0.372-0.846 0.838-0.845l16.978-0.015c0.462-0.003 0.84 0.375 0.84 0.842v1.085l0.968-0.001v-1.088c0-1-0.813-1.811-1.81-1.81l-16.977 0.018c-0.997-0.001-1.811 0.814-1.81 1.811l0.013 10.693 0.966-2.849z"></path>
<path fill="#5c5b5f" d="M10.024 13.866l5.748-0.006c0.868-0.001 1.641 0.374 2.113 1.024 0.020 0.027 0.037 0.063 0.058 0.088l2.030 0.001-1.93-10.555c-0.069-0.353-0.401-0.584-0.751-0.521l-11.135 2.039c-0.351 0.065-0.584 0.401-0.518 0.751l1.641 8.964c0.413-1.053 1.518-1.786 2.744-1.786z"></path>
</svg>
