<!-- Generated by IcoMoon.io -->
<svg version="1.1" xmlns="http://www.w3.org/2000/svg" width="32" height="32" viewBox="0 0 32 32">
<title>date</title>
<path fill="#53b7bb" d="M8.454 0.908c-1.037 0-1.887 0.849-1.887 1.887v2.83h3.773v-2.83c0-1.038-0.848-1.887-1.886-1.887z"></path>
<path fill="#53b7bb" d="M25.433 5.624v1.886c0 1.038-0.849 1.887-1.888 1.887-1.037 0-1.886-0.849-1.886-1.887v-1.886h-11.318v1.886c0 1.038-0.849 1.887-1.887 1.887-1.037 0-1.887-0.849-1.887-1.887v-1.886h-5.658v25.468h30.185v-25.468h-5.66zM27.319 27.319h-22.638v-16.034h22.638v16.034z"></path>
<path fill="#53b7bb" d="M23.546 0.908c-1.037 0-1.886 0.849-1.886 1.887v2.83h3.773v-2.83c0-1.038-0.848-1.887-1.887-1.887z"></path>
<path fill="#53b7bb" d="M14.113 25.243l-5.093-5.095 2.642-2.639 2.452 2.453 6.226-6.226 2.639 2.642z"></path>
</svg>
