<!-- Generated by IcoMoon.io -->
<svg version="1.1" xmlns="http://www.w3.org/2000/svg" width="32" height="32" viewBox="0 0 32 32">
<title>dino</title>
<path fill="#5c5b5f" d="M28.868 11.38c-0.195-0.207-0.393-0.422-0.575-0.637 0.466-1.789 0.165-3.442-0.878-4.791-0.844-1.091-1.935-1.697-2.557-1.975 0.042-0.34-0.020-0.621-0.18-0.847-0.338-0.466-0.97-0.52-1.418-0.52-0.306 0-0.673 0.027-1.211 0.099-3.035 0.536-4.879 1.498-6.356 2.267-0.024 0.014-0.045 0.023-0.067 0.031-0.275-0.045-0.758-0.132-1.135-0.187-0.708-0.123-1.6 0.818-2.008 1.304-0.049-0.004-0.099 0.003-0.148 0.003-0.445 0-0.977-0.055-1.745-0.143-0.202-0.027-0.422-0.037-0.652-0.038-1.957 0.003-4.147 0.899-4.445 1.027-3.954 1.088-4.268 5.263-4.268 5.306l0.008 0.001c-0.077 0.479-0.045 1.548 0.146 1.874 0.114 0.192 0.294 0.302 0.503 0.302 0.315-0.001 0.472-0.225 0.611-0.575 0.008 0.038 0.013 0.072 0.026 0.109 0 0 0.233 1.358 0.608 2.013 0.259 0.443 0.334-0.439 0.421-1.353 0.006-0.009 0.014-0.009 0.019-0.009 0.052 0.37 0.206 1.352 0.474 1.889 0.241 0.485 0.374-0.516 0.522-1.478 0.081 0.401 0.2 0.855 0.353 1.169 0.225 0.458 0.357-0.407 0.492-1.312 0.044 0.028 0.083 0.060 0.137 0.082 0.069 0.457 0.212 1.17 0.429 1.6 0.334 0.676 0.463-1.518 0.703-2.486 0.018-0.073 0.027-0.137 0.040-0.2 0.004 0.102 0.010 0.211 0.018 0.332 0 0 0.018 1.372 0.287 2.077 0.184 0.48 0.401-0.375 0.632-1.268 0.008-0.003 0.020 0.001 0.029 0.001 0.040 0.279 0.099 0.554 0.177 0.767 0.173 0.454 0.376-0.274 0.589-1.105 0.042 0.383 0.113 0.809 0.224 1.103 0.17 0.452 0.371-0.262 0.581-1.088 0.152 0.229 0.344 0.348 0.58 0.347 0.43 0.001 0.741-0.387 1.004-1.254 0.037 0.028 0.055 0.050 0.055 0.050v0l0.063 0.082 0.091 0.045c0.005 0.003 0.809 0.417 1.377 0.774 0.918 0.745 1.947 1.105 3.142 1.105 0.8-0.004 1.59-0.157 2.355-0.307 0.236-0.045 0.479-0.092 0.718-0.136 0.065 0.14 0.157 0.321 0.262 0.559-0.827 0.379-2.666 1.294-4.339 2.701-1.683 1.548-1.732 3.811-1.691 4.59-0.045 0.033-0.1 0.076-0.159 0.125-0.324-0.186-0.686-0.365-0.979-0.445-0.413-0.113-0.092 0.339 0.372 0.902-0.038 0.027-0.078 0.058-0.116 0.086-0.374-0.262-0.881-0.585-1.277-0.721-0.477-0.163 0.024 0.525 0.558 1.252-0.020 0.022-0.042 0.036-0.060 0.050-0.297-0.187-0.621-0.367-0.893-0.456-0.398-0.137-0.118 0.317 0.296 0.888-0.073 0.058-0.154 0.113-0.232 0.17-0.344-0.225-0.748-0.466-1.079-0.576-0.436-0.145-0.061 0.408 0.412 1.051-0.056 0.045-0.12 0.083-0.18 0.129-0.861-0.472-1.787-1.015-1.505-0.543 0.159 0.273 0.442 0.595 0.705 0.876-0.745-0.407-1.409-0.763-1.166-0.355 0.129 0.215 0.326 0.454 0.534 0.685-0.822-0.454-1.647-0.925-1.381-0.472 0.211 0.355 0.613 0.79 0.936 1.107-0.137 0.097-0.275 0.192-0.421 0.285l-0.584 0.39 0.59 0.385c1.341 0.879 2.509 1.302 3.572 1.304 1.083-0.003 1.878-0.435 2.573-0.822 0.115-0.060 0.227-0.12 0.343-0.183l0.028-0.015c3.092-1.949 4.733-2.909 6.863-3.795l0.157-0.063c1.978-0.73 3.848-1.427 4.57-2.12 2.17-1.938 3.11-3.517 3.867-4.782 0.36-0.614 0.677-1.148 1.075-1.628 1.318-1.618-0.133-3.208-1.418-4.609zM13.638 23.852l0.206-0.16-0.032-0.259c-0.008-0.027-0.298-2.522 1.359-4.045 2.065-1.736 4.493-2.717 4.517-2.733l0.452-0.179-0.197-0.44c-0.407-0.91-0.632-1.324-0.64-1.34l-0.154-0.289-0.325 0.050c-0.362 0.054-0.728 0.127-1.084 0.193-0.758 0.147-1.467 0.292-2.176 0.289-0.969 0-1.765-0.274-2.506-0.856 0.832 0.042 1.888 0.026 3.231-0.105 1.896-0.188 3.386-0.429 4.58-0.618 0.445-0.070 0.84-0.134 1.201-0.186-0.658 0.22-0.737 0.476-0.777 0.611-0.050 0.179-0.068 0.52 0.393 0.838 0.186 0.133 0.36 0.244 0.522 0.348 0.84 0.547 1.004 0.664 0.721 1.312-1.158 0.644-2.309 1.344-3.109 1.979-0.865 0.713-1.325 1.258-1.354 2.132-0.129 0.131-0.338 0.33-0.634 0.588-0.293-0.129-0.605-0.237-0.865-0.282-0.387-0.065-0.114 0.282 0.326 0.732-0.046 0.038-0.096 0.083-0.151 0.129-0.37-0.2-0.815-0.41-1.166-0.489-0.447-0.099-0.028 0.403 0.506 0.997-0.047 0.036-0.102 0.079-0.155 0.115-0.23-0.105-0.462-0.188-0.66-0.239-0.339-0.078-0.173 0.202 0.165 0.604-0.224 0.157-0.462 0.325-0.714 0.495-0.237-0.138-0.479-0.27-0.689-0.344-0.355-0.115-0.178 0.224 0.156 0.701-0.297 0.188-0.608 0.385-0.933 0.585-0.023-0.017-0.047-0.028-0.069-0.045 0 0-0.013-0.012-0.035-0.024 0.052-0.037 0.086-0.060 0.091-0.067zM23.977 15.712c-0.036-0.717-0.618-1.098-1.268-1.521-0.081-0.051-0.169-0.108-0.257-0.165 0.529-0.138 1.55-0.264 2.556-0.298 0.503 0.248 1.038 0.515 1.466 0.73-0.626 0.3-1.528 0.746-2.496 1.254zM29.565 15.395c-0.436 0.538-0.787 1.12-1.155 1.743-0.758 1.275-1.62 2.725-3.695 4.575-0.599 0.572-2.547 1.293-4.265 1.933l-0.174 0.065c-2.209 0.924-3.872 1.893-7 3.862-0.113 0.063-0.224 0.124-0.338 0.187-0.66 0.36-1.283 0.703-2.127 0.7-0.69 0-1.45-0.23-2.317-0.7 5.542-2.533 9.248-5.245 10.77-6.853l0.133-0.142-0.008-0.195c-0.019-0.538 0.124-0.846 1.010-1.578 2.172-1.72 7.265-4.068 7.32-4.087l0.867-0.399-0.847-0.439c-0.108-0.059-2.742-1.413-3.653-1.793-0.643-0.265-1.61-0.109-3.368 0.169-1.18 0.195-2.652 0.429-4.524 0.614-3.613 0.355-5.005-0.164-5.306-0.306-0.042-0.023-0.076-0.042-0.118-0.065l-0.486-0.239-0.243 0.778c-0.032 0.11-0.060 0.209-0.091 0.293-0.026 0.084-0.049 0.16-0.072 0.224-0.040-0.225-0.078-0.567-0.088-1.075l-0.006-0.358-0.357-0.081c-0.237-0.056-0.493-0.104-0.764-0.146l-0.408-0.065-0.111 0.406c-0.074 0.287-0.16 0.564-0.233 0.797-0.031 0.101-0.061 0.197-0.086 0.28-0.028 0.081-0.051 0.151-0.074 0.219-0.047-0.259-0.090-0.675-0.091-1.316l-0.005-0.44-1.569-0.059-0.059 0.415c-0.041 0.31-0.102 0.626-0.151 0.879-0.019 0.114-0.040 0.212-0.052 0.296-0.017 0.084-0.033 0.161-0.049 0.228-0.005-0.015-0.009-0.033-0.014-0.050l-0.465-1.649-0.411 1.565c-0.068-0.234-0.148-0.598-0.221-1.152l-0.26-1.876-0.643 1.783c-0.069 0.202-0.147 0.397-0.212 0.563-0.038 0.102-0.078 0.193-0.106 0.274-0.029 0.083-0.060 0.155-0.083 0.219-0.028-0.228-0.040-0.57-0.022-1.070l-0.003-0.48-0.586-0.005c-0.256-0.003-0.438 0.134-0.582 0.349 0.084-0.682 0.609-3.526 3.599-4.33l0.061-0.023c0.026-0.008 2.246-0.965 4.111-0.964 0.191 0.001 0.375 0.008 0.541 0.031 0.803 0.092 1.363 0.145 1.856 0.151 0.897 0 1.588-0.187 2.732-0.726 0.339-0.16 0.686-0.343 1.055-0.531 1.421-0.744 3.195-1.667 6.065-2.176 0.472-0.058 0.803-0.083 1.073-0.084 0.566 0.001 0.659 0.123 0.664 0.131 0.026 0.035 0.042 0.165-0.050 0.438l-0.145 0.429 0.426 0.156c0.744 0.269 1.804 0.888 2.527 1.829 0.918 1.181 1.133 2.597 0.65 4.206l-0.073 0.243 0.164 0.192c0.246 0.285 0.507 0.568 0.762 0.845 1.361 1.487 2.152 2.445 1.381 3.387z"></path>
<path fill="#5c5b5f" d="M20.983 4.952l-0.187-0.045c-0.173-0.036-0.338-0.059-0.498-0.058-1.443 0-1.87 1.49-2.213 2.684l-0.077 0.269c-0.168 0.571-0.142 1.654 1.896 2.49l0.2 0.086 0.191-0.106c0.84-0.448 1.367-1.059 1.574-1.828 0.317-1.201-0.247-2.474-0.782-3.331l-0.104-0.161zM20.97 8.21c-0.124 0.453-0.42 0.827-0.92 1.133-0.58-0.262-1.312-0.717-1.152-1.276l0.079-0.273c0.353-1.215 0.634-2.012 1.321-2.013 0.035 0 0.070 0 0.11 0.005 0.348 0.604 0.79 1.581 0.562 2.424z"></path>
<path fill="#5c5b5f" d="M16.2 6.697l-0.114-0.59-0.655 0.306c-1.094 0.503-2.222 1.027-3.087 1.335-0.791 0.282-1.222 0.717-1.286 1.295-0.141 1.302 1.825 2.619 2.225 2.87l0.078 0.042c0.692 0.274 1.32 0.407 1.916 0.407v0c1.178 0 2.115-0.527 3.2-1.133l0.858-0.48-0.609-0.426c-1.846-1.28-2.377-2.819-2.524-3.626zM15.276 11.434v0c-0.467 0-0.97-0.106-1.535-0.329-0.756-0.49-1.819-1.432-1.763-1.953 0.031-0.257 0.438-0.442 0.677-0.527 0.8-0.285 1.783-0.731 2.765-1.184 0.264 0.881 0.856 2.1 2.188 3.209-0.845 0.465-1.524 0.783-2.332 0.785z"></path>
<path fill="#5c5b5f" d="M3.338 10.749c1.247 0.092 1.028-2.184 1.028-2.184s-2.275 2.089-1.028 2.184z"></path>
</svg>
