<!-- Generated by IcoMoon.io -->
<svg version="1.1" xmlns="http://www.w3.org/2000/svg" width="32" height="32" viewBox="0 0 32 32">
<title>folha</title>
<path fill="#5c5b5f" opacity="0.25" d="M30.845 2.593c-0.076-0.305-0.323-0.543-0.635-0.593-0.393-0.068-0.808-0.102-1.233-0.1-5.050 0-11.924 4.818-14.877 9.996-2.051-1.427-4.867-2.327-7.616-2.324-0.020-0.003-0.041 0-0.063-0.003 0 0-0.003 0-0.004 0.003-2.403 0.013-4.307 0.708-5.361 1.962-0.012 0.013-0.009 0.029-0.020 0.047-0.033 0.038-0.047 0.088-0.059 0.131-0.003 0.020-0.009 0.032-0.009 0.040 0 0.010-0.005 0.018-0.005 0.023-0.001 0.068 0.017 0.128 0.044 0.178 0.001 0.008 0.001 0.015 0 0.015 1.001 1.862 3.164 3.645 5.254 5.367 0.97 0.8 1.891 1.558 2.62 2.272 1.888 1.697 3.514 2.575 5.251 2.833 0.57 0.617 1.216 1.188 1.874 1.763 0.12 0.102 0.244 0.212 0.365 0.325-0.288 1.582-0.47 3.182-0.532 4.758-0.020 0.433 0.315 0.797 0.75 0.813 0.012 0 0.020 0 0.032 0.003 0.415-0.003 0.759-0.33 0.777-0.75 0.063-1.516 0.241-3.053 0.515-4.582 0.497-0.223 0.97-0.438 1.413-0.63 2.971-1.3 5.125-2.24 7.081-6.020l0.163-0.33c2.1-4.334 5.279-10.872 4.276-15.195zM29.044 7.448l-0.16 0.003c-0.997 0-2.090 0.003-3.087 0.084 1.124-1.317 2.353-2.55 3.648-3.695 0.079 1.082-0.081 2.312-0.401 3.608zM27.543 11.912c-1.905 0.205-3.816 0.611-5.7 1.204 0.96-1.642 2.048-3.226 3.25-4.716 1.128-0.16 2.51-0.17 3.748-0.165-0.348 1.213-0.804 2.461-1.298 3.676zM23.51 5.098c0.124 0.41 0.262 0.826 0.407 1.238 0.195 0.562 0.388 1.128 0.518 1.627-1.261 1.573-2.396 3.241-3.393 4.986-0.69-1.524-1.372-3.066-2.048-4.603 1.38-1.275 2.935-2.397 4.516-3.247zM24.655 6.084c-0.157-0.453-0.305-0.905-0.436-1.343 1.539-0.735 3.067-1.196 4.439-1.257-1.293 1.167-2.497 2.42-3.62 3.75-0.119-0.383-0.248-0.765-0.383-1.151zM18.396 8.919c0.714 1.629 1.435 3.258 2.166 4.873-0.76 1.411-1.43 2.868-2.003 4.349-0.858-1.921-1.871-3.744-3.066-5.519 0.731-1.28 1.736-2.542 2.903-3.703zM13.743 12.596c-0.257 0.512-0.486 1.036-0.655 1.55-0.274 0.73-0.468 1.403-0.593 2.028-0.362-0.343-0.73-0.672-1.115-0.98-0.061-1.331-0.218-2.689-0.433-4.049 1.030 0.37 1.978 0.864 2.796 1.452zM10.117 10.877c0.216 1.24 0.352 2.473 0.433 3.693-0.896-0.635-1.843-1.19-2.833-1.645-0.104-0.316-0.206-0.726-0.323-1.164-0.124-0.488-0.247-0.978-0.39-1.4 1.057 0.045 2.112 0.225 3.113 0.516zM6.173 10.356c0.166 0.43 0.32 1.018 0.465 1.592 0.054 0.202 0.102 0.396 0.152 0.575-1.445-0.564-2.958-0.934-4.5-1.070 0.924-0.667 2.285-1.053 3.884-1.097zM2.097 12.224c1.313 0.105 2.61 0.38 3.853 0.813-0.838 0.241-1.654 0.62-2.269 1.005-0.62-0.604-1.165-1.212-1.583-1.818zM6.090 16.179c-0.616-0.515-1.235-1.041-1.821-1.577 0.774-0.451 1.965-0.95 3.021-1.015 0.925 0.417 1.819 0.92 2.659 1.5-1.345 0.174-2.642 0.535-3.858 1.092zM6.769 16.741c1.294-0.541 2.669-0.867 4.106-0.96 0.52 0.417 1 0.874 1.466 1.352-0.067 0.63-0.058 1.201 0.015 1.723-1.007-0.078-2.010-0.045-2.991 0.129-0.733-0.716-1.636-1.458-2.596-2.244zM10.157 19.668c0.776-0.090 1.564-0.095 2.353-0.024 0.188 0.68 0.48 1.283 0.852 1.823-1.047-0.293-2.068-0.873-3.205-1.798zM14.563 14.66c0.132-0.412 0.314-0.827 0.517-1.245 1.219 1.855 2.241 3.754 3.1 5.784-0.448 1.272-0.82 2.557-1.111 3.859-0.012-0.009-0.024-0.022-0.031-0.029-2.542-2.222-4.22-3.692-2.476-8.369zM18.7 22.705c-0.262 0.116-0.556 0.242-0.836 0.37 0.284-1.222 0.634-2.436 1.051-3.638 1.975-1.068 4.042-1.528 6.056-1.948-1.683 3.205-3.416 3.969-6.271 5.216zM25.411 16.596c-0.12 0.029-0.238 0.054-0.357 0.079-1.893 0.394-3.84 0.797-5.743 1.692 0.561-1.453 1.219-2.87 1.967-4.25 1.951-0.68 3.936-1.138 5.916-1.377-0.602 1.393-1.234 2.714-1.783 3.855z"></path>
<path fill="#5c5b5f" d="M30.845 2.593c-0.076-0.305-0.323-0.543-0.635-0.593-0.393-0.068-0.808-0.102-1.233-0.1-5.050 0-11.924 4.818-14.877 9.996-2.051-1.427-4.867-2.327-7.616-2.324-0.020-0.003-0.041 0-0.063-0.003 0 0-0.003 0-0.004 0.003-2.403 0.013-4.307 0.708-5.361 1.962-0.012 0.013-0.009 0.029-0.020 0.047-0.033 0.038-0.047 0.088-0.059 0.131-0.003 0.020-0.009 0.032-0.009 0.040 0 0.010-0.005 0.018-0.005 0.023-0.001 0.068 0.017 0.128 0.044 0.178 0.001 0.008 0.001 0.015 0 0.015 1.001 1.862 3.164 3.645 5.254 5.367 0.97 0.8 1.891 1.558 2.62 2.272 1.888 1.697 3.514 2.575 5.251 2.833 0.57 0.617 1.216 1.188 1.874 1.763 0.12 0.102 0.244 0.212 0.365 0.325-0.288 1.582-0.47 3.182-0.532 4.758-0.020 0.433 0.315 0.797 0.75 0.813 0.012 0 0.020 0 0.032 0.003 0.415-0.003 0.759-0.33 0.777-0.75 0.063-1.516 0.241-3.053 0.515-4.582 0.497-0.223 0.97-0.438 1.413-0.63 2.971-1.3 5.125-2.24 7.081-6.020l0.163-0.33c2.1-4.334 5.279-10.872 4.276-15.195zM29.044 7.448l-0.16 0.003c-0.997 0-2.090 0.003-3.087 0.084 1.124-1.317 2.353-2.55 3.648-3.695 0.079 1.082-0.081 2.312-0.401 3.608zM27.543 11.912c-1.905 0.205-3.816 0.611-5.7 1.204 0.96-1.642 2.048-3.226 3.25-4.716 1.128-0.16 2.51-0.17 3.748-0.165-0.348 1.213-0.804 2.461-1.298 3.676zM23.51 5.098c0.124 0.41 0.262 0.826 0.407 1.238 0.195 0.562 0.388 1.128 0.518 1.627-1.261 1.573-2.396 3.241-3.393 4.986-0.69-1.524-1.372-3.066-2.048-4.603 1.38-1.275 2.935-2.397 4.516-3.247zM24.655 6.084c-0.157-0.453-0.305-0.905-0.436-1.343 1.539-0.735 3.067-1.196 4.439-1.257-1.293 1.167-2.497 2.42-3.62 3.75-0.119-0.383-0.248-0.765-0.383-1.151zM18.396 8.919c0.714 1.629 1.435 3.258 2.166 4.873-0.76 1.411-1.43 2.868-2.003 4.349-0.858-1.921-1.871-3.744-3.066-5.519 0.731-1.28 1.736-2.542 2.903-3.703zM13.743 12.596c-0.257 0.512-0.486 1.036-0.655 1.55-0.274 0.73-0.468 1.403-0.593 2.028-0.362-0.343-0.73-0.672-1.115-0.98-0.061-1.331-0.218-2.689-0.433-4.049 1.030 0.37 1.978 0.864 2.796 1.452zM10.117 10.877c0.216 1.24 0.352 2.473 0.433 3.693-0.896-0.635-1.843-1.19-2.833-1.645-0.104-0.316-0.206-0.726-0.323-1.164-0.124-0.488-0.247-0.978-0.39-1.4 1.057 0.045 2.112 0.225 3.113 0.516zM6.173 10.356c0.166 0.43 0.32 1.018 0.465 1.592 0.054 0.202 0.102 0.396 0.152 0.575-1.445-0.564-2.958-0.934-4.5-1.070 0.924-0.667 2.285-1.053 3.884-1.097zM2.097 12.224c1.313 0.105 2.61 0.38 3.853 0.813-0.838 0.241-1.654 0.62-2.269 1.005-0.62-0.604-1.165-1.212-1.583-1.818zM6.090 16.179c-0.616-0.515-1.235-1.041-1.821-1.577 0.774-0.451 1.965-0.95 3.021-1.015 0.925 0.417 1.819 0.92 2.659 1.5-1.345 0.174-2.642 0.535-3.858 1.092zM6.769 16.741c1.294-0.541 2.669-0.867 4.106-0.96 0.52 0.417 1 0.874 1.466 1.352-0.067 0.63-0.058 1.201 0.015 1.723-1.007-0.078-2.010-0.045-2.991 0.129-0.733-0.716-1.636-1.458-2.596-2.244zM10.157 19.668c0.776-0.090 1.564-0.095 2.353-0.024 0.188 0.68 0.48 1.283 0.852 1.823-1.047-0.293-2.068-0.873-3.205-1.798zM14.563 14.66c0.132-0.412 0.314-0.827 0.517-1.245 1.219 1.855 2.241 3.754 3.1 5.784-0.448 1.272-0.82 2.557-1.111 3.859-0.012-0.009-0.024-0.022-0.031-0.029-2.542-2.222-4.22-3.692-2.476-8.369zM18.7 22.705c-0.262 0.116-0.556 0.242-0.836 0.37 0.284-1.222 0.634-2.436 1.051-3.638 1.975-1.068 4.042-1.528 6.056-1.948-1.683 3.205-3.416 3.969-6.271 5.216zM25.411 16.596c-0.12 0.029-0.238 0.054-0.357 0.079-1.893 0.394-3.84 0.797-5.743 1.692 0.561-1.453 1.219-2.87 1.967-4.25 1.951-0.68 3.936-1.138 5.916-1.377-0.602 1.393-1.234 2.714-1.783 3.855z"></path>
</svg>
