<!-- Generated by IcoMoon.io -->
<svg version="1.1" xmlns="http://www.w3.org/2000/svg" width="32" height="32" viewBox="0 0 32 32">
<title>homem</title>
<path fill="#5c5b5f" d="M15.096 3.084l0.289-0.003c0.187 0.027 0.365-0.11 0.388-0.298 0.024-0.177-0.113-0.356-0.298-0.376-0.012 0-0.033 0-0.060 0-0.009-0.001-0.019 0-0.031-0.001l-0.289 0.001c-0.026-0.001-0.044 0-0.067 0.004-0.189 0.027-0.3 0.205-0.268 0.397 0.032 0.164 0.166 0.276 0.335 0.276z"></path>
<path fill="#5c5b5f" d="M16.63 3.084h0.288c0.189 0.022 0.357-0.114 0.393-0.3 0.023-0.177-0.113-0.356-0.305-0.378-0.020 0-0.028 0-0.050 0.003-0.015-0.001-0.026-0.003-0.035-0.001h-0.291c-0.023 0-0.044 0-0.068 0-0.189 0.031-0.312 0.21-0.28 0.399 0.037 0.168 0.179 0.275 0.347 0.276z"></path>
<path fill="#5c5b5f" d="M22.4 7.628c-0.003-0.013-0.003-0.013-0.003-0.013-0.165-0.389-0.398-0.722-0.721-1.015-0.288-0.255-0.613-0.435-0.923-0.568-0.31-0.12-0.598-0.212-0.89-0.255-0.055-0.013-0.108-0.013-0.152-0.020-0.013-0.003-0.013-0.003-0.026-0.003-0.12-0.033-0.242-0.055-0.375-0.052l-1.795-0.028c-0.013 0.001-0.020 0.001-0.020 0.001l-1.025-0.001c0.087 0.179 0.008 0.39-0.157 0.48-0.055 0.022-0.113 0.044-0.169 0.042l-0.287-0.001c-0.202 0.001-0.357-0.165-0.357-0.365 0-0.058 0.012-0.102 0.035-0.155l-2.816 0.006c-0.145-0.003-0.292 0.023-0.424 0.065-0.055 0-0.101 0.015-0.156 0.024-0.289 0.047-0.58 0.136-0.891 0.252-0.311 0.136-0.621 0.314-0.914 0.571l-0.008-0.003c-0.324 0.293-0.558 0.623-0.724 1.012 0 0 0 0-0.001 0.012-0.188 0.458-0.241 0.901-0.246 1.293 0.009 5.065 0.037 8.425 0.037 8.425 0.013 0.732 0.598 1.317 1.335 1.317 0.722-0.013 1.312-0.6 1.312-1.335 0 0-0.042-3.363-0.050-8.416 0.001-0.1 0.023-0.168 0.035-0.224l0.724 1.627c-0.001 0.703 0.009 1.393 0.008 2.127 0 1.356-0.004 2.668 0.012 3.937-0.018 8.081-0.070 14.116-0.070 14.116-0.013 0.735 0.579 1.325 1.303 1.338 0.733 0.010 1.325-0.582 1.336-1.312 0 0 0.035-5.212 0.054-12.042l1.204-0.003c0.003 6.835 0.041 12.042 0.041 12.042-0.054 0.735 0.492 1.375 1.213 1.427 0.724 0.058 1.361-0.488 1.414-1.21 0.015-0.081 0.010-0.157-0.003-0.236 0 0-0.026-6.033-0.029-14.115 0.003-1.267 0.015-2.58 0.015-3.937 0.003-0.735 0.013-1.416 0.015-2.116l0.713-1.615c0.023 0.056 0.032 0.111 0.032 0.2-0.013 5.056-0.063 8.419-0.063 8.419-0.003 0.73 0.588 1.322 1.309 1.335 0.735 0 1.325-0.577 1.338-1.312 0 0 0.035-3.36 0.052-8.424 0-0.393-0.056-0.84-0.244-1.294zM15.836 6.496c0.009 0.001 0.009 0.001 0.026 0h0.289c0.197 0 0.352 0.155 0.355 0.358-0.005 0.196-0.16 0.356-0.357 0.352h-0.291c-0.2 0.001-0.365-0.155-0.367-0.347-0.001-0.196 0.155-0.365 0.346-0.364zM14.657 6.63l1.066 0.91c0.044-0.023 0.088-0.020 0.133-0.020l0.288 0.003c0.046-0.004 0.1-0.003 0.145 0.022l1.057-0.914c0.036-0.032 0.087-0.045 0.147-0.045l1.5 0.292 0.493-0.38c0.032-0.019 0.058-0.031 0.090-0.041 0.010 0 0.010 0 0.020 0l0.010-0.001c0.102 0.001 0.168 0.079 0.17 0.179-0.003 0.055-0.020 0.11-0.065 0.133l-0.57 0.447c-0.037 0.022-0.092 0.033-0.134 0.031l-1.481-0.3-0.946 0.8c0.525-0.045 1.012-0.155 1.37-0.312 0.013-0.010 0.023-0.020 0.042-0.022 0.087-0.023 0.17 0.046 0.189 0.146 0.026 0.102-0.032 0.21-0.123 0.233-0.42 0.178-0.97 0.302-1.559 0.33v0.695c0.791-0.055 1.473-0.268 1.814-0.525 0.026-0.023 0.047-0.032 0.068-0.032 0.081-0.020 0.168 0.042 0.192 0.147 0.008 0.086-0.026 0.177-0.090 0.21-0.435 0.333-1.16 0.535-1.984 0.59v0.689c0.422-0.029 0.803-0.099 1.126-0.187 0.433-0.146 0.753-0.346 0.868-0.524 0.032-0.045 0.076-0.076 0.123-0.078 0.087 0.003 0.155 0.087 0.155 0.189 0 0.044-0.013 0.087-0.032 0.123-0.197 0.31-0.57 0.49-1.038 0.645-0.48 0.145-1.068 0.234-1.69 0.233-0.013-0.005-0.013-0.005-0.026-0.001-0.62-0.004-1.215-0.091-1.695-0.239-0.462-0.155-0.832-0.333-1.034-0.645-0.051-0.068-0.054-0.188 0.001-0.268 0.026-0.022 0.045-0.035 0.070-0.047 0.020 0.003 0.032 0.003 0.054 0.003 0.046 0.001 0.090 0.035 0.124 0.081 0.11 0.178 0.433 0.378 0.865 0.525 0.323 0.090 0.705 0.155 1.128 0.187v-0.69c-0.826-0.055-1.549-0.257-1.983-0.593-0.077-0.045-0.109-0.155-0.068-0.256 0.026-0.054 0.068-0.086 0.125-0.099 0.009-0.001 0.033-0.003 0.044 0.003 0.020-0.005 0.044 0.010 0.064 0.032 0.347 0.257 1.030 0.467 1.816 0.522l-0.001-0.69c-0.589-0.029-1.132-0.156-1.556-0.337-0.091-0.022-0.141-0.132-0.124-0.234 0.026-0.099 0.102-0.165 0.189-0.145 0.026 0 0.035 0.013 0.047 0.023 0.352 0.157 0.845 0.27 1.367 0.315l-0.934-0.803-1.48 0.298c-0.045 0.003-0.1-0.013-0.133-0.033l-0.567-0.444c-0.081-0.045-0.1-0.155-0.055-0.236 0.032-0.045 0.065-0.068 0.123-0.079 0 0 0.012 0.003 0.020 0 0.013-0.001 0.036 0.015 0.055 0.012 0.001 0.013 0.014 0.014 0.023 0.013 0 0 0 0 0.013-0.001 0.010 0.013 0.020 0.024 0.032 0.022l0.486 0.383 1.518-0.288c0.042-0.003 0.097 0.010 0.134 0.045zM18.426 11.899c-0.255 0.175-0.611 0.323-1.036 0.42-0.090 0.035-0.18-0.023-0.202-0.123-0.033-0.097 0.015-0.2 0.092-0.244 0.020 0 0.031 0.003 0.042-0.010 0.412-0.090 0.737-0.223 0.947-0.367 0.214-0.143 0.278-0.288 0.278-0.378 0-0.097 0.058-0.187 0.145-0.196 0.090-0.014 0.17 0.064 0.168 0.174 0 0.013 0 0.013 0 0.023-0.003 0.3-0.177 0.524-0.434 0.701zM18.86 12.198c-0.003 0.18-0.068 0.333-0.17 0.467-0.1 0.12-0.233 0.236-0.41 0.335-0.078 0.052-0.178 0.020-0.223-0.070s-0.022-0.211 0.055-0.264c0.013 0.003 0.023-0.013 0.032-0.010 0.147-0.092 0.257-0.18 0.325-0.257 0.068-0.090 0.078-0.145 0.076-0.2 0.003-0.078 0.047-0.155 0.113-0.187 0 0 0.013-0.003 0.020 0h0.015c0.090-0.003 0.168 0.076 0.165 0.178 0.001 0.008 0.001 0.008 0.001 0.008zM18.683 10.57c-0.11 0.137-0.255 0.244-0.433 0.347-0.372 0.201-0.863 0.334-1.453 0.399-0.076 0.035-0.163-0.023-0.187-0.124-0.036-0.096 0.010-0.198 0.088-0.23 0.026-0.014 0.046-0.013 0.068-0.013 0.558-0.067 1.023-0.209 1.348-0.376 0.155-0.087 0.28-0.187 0.347-0.268 0.065-0.088 0.084-0.147 0.087-0.2-0.015-0.1 0.045-0.189 0.123-0.2 0.010-0.003 0.010-0.003 0.023-0.003 0.090-0.010 0.165 0.072 0.165 0.169 0 0.012 0 0.023 0.003 0.031-0.003 0.183-0.069 0.335-0.179 0.467zM16.14 13.331l-0.293-0.003c-0.195 0.005-0.365-0.155-0.36-0.352-0.013-0.192 0.14-0.355 0.342-0.367 0.012 0 0.012 0 0.023 0h0.293c0.197 0.008 0.356 0.17 0.356 0.367-0.003 0.189-0.159 0.355-0.361 0.355zM16.498 13.987c0 0.205-0.154 0.36-0.355 0.355l-0.292 0.005c-0.204 0.008-0.371-0.147-0.367-0.347 0.001-0.2 0.155-0.365 0.348-0.37 0.009 0.003 0.009 0.003 0.020 0.005h0.291c0.198 0 0.357 0.157 0.355 0.352zM16.14 12.306l-0.289 0.003c-0.198 0-0.364-0.157-0.369-0.346 0.003-0.202 0.16-0.37 0.349-0.367 0.013 0 0.013 0 0.020-0.003h0.291c0.2 0 0.357 0.16 0.357 0.357 0.001 0.204-0.156 0.358-0.36 0.356zM16.178 11.283c-0.013 0-0.020 0-0.033 0h-0.289c-0.202 0.010-0.371-0.133-0.38-0.335-0.010-0.2 0.145-0.367 0.347-0.378 0.014 0 0.022 0 0.031 0l0.291 0.003c0.202-0.005 0.37 0.141 0.38 0.343 0.009 0.202-0.148 0.37-0.346 0.367zM13.572 11.891c-0.256-0.175-0.435-0.398-0.434-0.699 0-0.099 0.055-0.191 0.143-0.198 0.012-0.003 0.012-0.003 0.024 0 0.088 0.012 0.142 0.1 0.142 0.198 0.003 0.090 0.067 0.234 0.28 0.376 0.207 0.145 0.534 0.283 0.942 0.37 0.082 0.013 0.16 0.1 0.147 0.202-0.003 0.097-0.081 0.187-0.156 0.187-0.024-0.010-0.033-0.010-0.056-0.010-0.421-0.101-0.78-0.246-1.033-0.426zM13.949 12.893c-0.036 0.102-0.124 0.147-0.201 0.11-0.010 0.003-0.023-0.010-0.031-0.008-0.182-0.1-0.311-0.212-0.413-0.335-0.1-0.133-0.165-0.288-0.165-0.467-0.003-0.078 0.042-0.152 0.11-0.189l0.013-0.003c0.013 0.003 0.013 0.003 0.013 0.003 0.009 0.003 0.018 0 0.029 0.003 0.081 0.008 0.147 0.1 0.146 0.189-0.001 0.055 0.009 0.108 0.078 0.2 0.068 0.081 0.179 0.168 0.324 0.252 0.087 0.038 0.129 0.146 0.097 0.246zM13.75 10.915c-0.179-0.102-0.323-0.214-0.433-0.344-0.115-0.136-0.178-0.293-0.18-0.468-0.010-0.104 0.045-0.192 0.124-0.198l0.009-0.003c0.010-0.014 0.023-0.013 0.032 0 0.092 0 0.146 0.090 0.147 0.202-0.001 0.055 0.020 0.11 0.088 0.198 0.067 0.079 0.188 0.179 0.344 0.269 0.323 0.165 0.792 0.31 1.348 0.378 0.086-0.010 0.155 0.068 0.168 0.17 0.013 0.1-0.055 0.197-0.134 0.21-0.020-0.001-0.040 0-0.067-0.015-0.59-0.065-1.082-0.2-1.446-0.398zM9.737 17.544c-0.076-0.023-0.109-0.090-0.1-0.168l0.268-1.002c0.022-0.055 0.069-0.097 0.134-0.1 0.068 0 0.134 0.055 0.134 0.125 0.001 0.018 0 0.032-0.003 0.042l-0.268 1.002c-0.020 0.078-0.096 0.123-0.166 0.1zM10.428 17.999c0 0.078-0.055 0.134-0.133 0.137-0.067-0.003-0.133-0.058-0.133-0.133l0.001-1.038c-0.004-0.065 0.052-0.125 0.122-0.134 0.013 0 0.013 0 0.013 0 0.076 0.003 0.134 0.058 0.133 0.134l-0.003 1.034zM10.83 18.102c0 0.068-0.068 0.133-0.137 0.137-0.077-0.003-0.129-0.070-0.132-0.137l0.001-1.036c-0.010-0.078 0.045-0.131 0.113-0.133 0.010-0.013 0.010-0.013 0.010-0.013 0.078-0.003 0.145 0.065 0.145 0.133l-0.003 0.013 0.003 1.036zM11.22 17.889c0 0.068-0.045 0.133-0.123 0.145-0.078 0.003-0.145-0.055-0.147-0.118 0.003-0.018 0.003-0.027 0.003-0.027v-1.047c0-0.063 0.056-0.123 0.123-0.133h0.012c0.069 0 0.136 0.068 0.136 0.134l-0.003 1.046zM10.976 16.264l-0.489 0.003c-0.201-0.003-0.347-0.157-0.348-0.347 0.004-0.134 0.083-0.255 0.188-0.31l0.006-3.552c0-0.097 0.088-0.187 0.179-0.187 0.11 0 0.187 0.081 0.187 0.178v0.013l-0.003 3.512 0.278 0.003c0.191 0 0.343 0.157 0.343 0.346 0.003 0.187-0.152 0.339-0.342 0.342zM10.943 15.272l0.004-3.32c0.001-0.070 0.054-0.125 0.124-0.14h0.010c0.074 0.003 0.132 0.058 0.132 0.134l-0.004 3.328c0.001 0.078-0.054 0.134-0.132 0.134s-0.134-0.058-0.134-0.137zM11.607 17.467c0 0.082-0.059 0.134-0.136 0.134-0.067 0-0.133-0.055-0.132-0.134v-1.036c0-0.065 0.056-0.133 0.123-0.133h0.010c0.081 0 0.134 0.055 0.133 0.125 0.001 0.008 0.001 0.008 0.001 0.008v1.036zM11.735 7.75c0.001 0.202-0.142 0.367-0.343 0.378-0.045 0-0.091-0.010-0.133-0.022l0.020 0.401c0.004 0.022 0.004 0.032 0 0.042l-0.21 2.204c0.177 0.102 0.241 0.315 0.14 0.492-0.052 0.124-0.186 0.192-0.32 0.191h-0.3c-0.189 0-0.355-0.157-0.365-0.355-0.003-0.18 0.133-0.335 0.311-0.357l0.214-2.203-0.078-1.251c-0.012-0.145 0.102-0.268 0.257-0.291 0.010 0 0.010 0 0.024-0.001 0.108 0.017 0.209 0.079 0.243 0.182 0.049-0.035 0.12-0.046 0.186-0.045 0.188-0.013 0.353 0.157 0.356 0.357l-0.003 0.278zM12.805 8.956c-0.065-0.013-0.11-0.047-0.136-0.105l-0.819-1.98-0.448-0.026c-0.097-0.009-0.174-0.096-0.175-0.195 0.014-0.060 0.047-0.113 0.11-0.147l0.758-0.367c0.023-0.010 0.046-0.022 0.069-0.019 0.009-0.001 0.009-0.001 0.022-0.003l1.548 0.079c0.101-0.003 0.178 0.078 0.165 0.179 0 0.022 0.003 0.042-0.013 0.067l-0.812 0.155-0.402-0.312c-0.019-0.012-0.045-0.036-0.064-0.044l-0.058-0.038-0.020 0.003-0.036-0.047-0.177 0.026c-0.178 0.032-0.31 0.168-0.346 0.344-0.044 0.178 0.022 0.346 0.166 0.445l0.013 0.013 0.558 0.434c0.099 0.067 0.22 0.101 0.343 0.081l0.346-0.067-0.291 0.79-0.102 0.588c-0.013 0.102-0.097 0.166-0.2 0.147zM13.1 16.534c0.042-0.020 0.1-0.047 0.155-0.045 0.081 0 0.145 0.035 0.197 0.090l0.118-0.123c0.061-0.068 0.14-0.102 0.23-0.097 0.2-0.015 0.356 0.145 0.357 0.33 0.010 0.090-0.033 0.192-0.101 0.257l-0.212 0.197 0.366 0.538c0.035 0.045 0.045 0.087 0.047 0.147l0.184 4.44c0.179 0.078 0.256 0.288 0.174 0.453-0.063 0.128-0.173 0.202-0.308 0.205l-0.301-0.003c-0.188 0-0.347-0.157-0.343-0.346 0-0.145 0.1-0.278 0.246-0.323l-0.187-4.33-0.691-1.016c-0.073-0.123-0.052-0.283 0.069-0.375zM14.692 29.224c-0.111 0.081-0.256 0.090-0.379 0.023l-0.438-0.242c-0.165-0.102-0.216-0.312-0.131-0.467 0.068-0.125 0.189-0.192 0.312-0.178 0.056-0.005 0.111 0.010 0.166 0.042l0.111 0.065 0.004-4.965c0.001-0.12 0.091-0.207 0.214-0.212 0.109 0 0.201 0.092 0.2 0.202 0 0 0 0-0.003 0.013l-0.004 5.231c0.12 0.148 0.1 0.366-0.054 0.488zM13.725 28.012l0.003-4.453c-0.001-0.070 0.055-0.12 0.12-0.133l0.013-0.003c0.068 0 0.133 0.058 0.134 0.134l-0.005 4.453c0.003 0.081-0.052 0.131-0.132 0.133-0.081 0-0.136-0.055-0.133-0.132zM13.155 30.026c-0.078-0.023-0.113-0.1-0.102-0.168l0.27-1c0.020-0.060 0.070-0.102 0.134-0.102 0.067 0 0.132 0.055 0.133 0.12-0.003 0.026-0.001 0.037-0.001 0.045l-0.269 1.005c-0.017 0.078-0.097 0.11-0.165 0.1zM13.385 30.671c-0.078-0.023-0.108-0.1-0.095-0.168l0.291-1.070c0.009-0.050 0.068-0.097 0.12-0.097h0.013c0.078-0.003 0.132 0.065 0.133 0.142 0.003 0.013-0.010 0.013-0.010 0.023l-0.293 1.070c-0.014 0.068-0.091 0.113-0.159 0.1zM13.7 31.007c-0.069-0.023-0.111-0.092-0.088-0.168l0.269-0.989c0.010-0.068 0.064-0.102 0.12-0.11 0.068-0.003 0.134 0.052 0.145 0.133-0.001 0.010-0.010 0.023-0.010 0.045l-0.27 1c-0.022 0.067-0.1 0.109-0.165 0.090zM14.024 31.332c-0.069-0.026-0.114-0.092-0.091-0.168l0.268-1.005c0.013-0.052 0.070-0.084 0.123-0.097 0.081 0 0.133 0.052 0.133 0.133 0.013 0.013 0.003 0.023 0.003 0.035l-0.268 1c-0.024 0.079-0.093 0.119-0.168 0.102zM15.025 29.601l-0.477 1.818c-0.015 0.076-0.092 0.123-0.159 0.11-0.081-0.013-0.124-0.081-0.113-0.155 0.001-0.010 0.001-0.010 0.014-0.026l0.48-1.812c0.010-0.055 0.065-0.090 0.122-0.1 0.079-0.003 0.136 0.058 0.146 0.133-0.003 0.014-0.003 0.022-0.013 0.032zM15.804 17.381c-0.044 0.045-0.088 0.068-0.143 0.068l-0.477-0.023c-0.225 0-0.426-0.026-0.582-0.145-0.168-0.125-0.243-0.346-0.207-0.593l0.032-0.212-0.658-0.54c-0.374-0.315-0.524-0.65-0.467-0.94 0.058-0.3 0.28-0.507 0.55-0.62 0.119-0.042 0.264-0.081 0.398-0.090 0.134 0.003 0.28 0.027 0.402 0.092 0.255 0.131 0.411 0.433 0.34 0.82l-0.175 1.135 0.956 0.792c0.077 0.067 0.088 0.177 0.032 0.253zM15.94 16.579c-0.060-0.020-0.1-0.065-0.111-0.12-0.113-0.367-0.27-0.512-0.379-0.58-0.115-0.065-0.168-0.058-0.168-0.058-0.1 0-0.192-0.068-0.189-0.168 0-0.010 0-0.020 0-0.029l0.11-0.933c0.026-0.090 0.091-0.145 0.18-0.157 0.045-0.003 0.078 0.008 0.113 0.045-0.013-0.010-0.001-0.015 0.010-0.003 0.032 0.003 0.081 0.013 0.123 0.010 0.102 0.015 0.244 0.026 0.378 0.026 0.134 0.003 0.27 0.003 0.367-0.010 0.055-0.008 0.091-0.023 0.115-0.023 0.010 0 0.010 0 0.010 0 0.076-0.065 0.187-0.055 0.244 0.023 0.020 0.032 0.032 0.058 0.042 0.090l0.113 0.933c0.010 0.090-0.060 0.175-0.155 0.2-0.015 0-0.027 0-0.036 0 0 0-0.054-0.013-0.166 0.055-0.113 0.070-0.269 0.212-0.381 0.582-0.023 0.086-0.123 0.143-0.22 0.118zM16.338 17.449c-0.101 0-0.189-0.078-0.189-0.175 0.003-0.058 0.026-0.113 0.068-0.145l0.961-0.792-0.179-1.125c-0.055-0.398 0.097-0.698 0.347-0.832 0.11-0.058 0.223-0.078 0.343-0.090 0.023 0.003 0.035 0.003 0.055 0.003 0.134 0.013 0.28 0.042 0.402 0.087 0.27 0.115 0.49 0.325 0.548 0.622 0.055 0.291-0.090 0.625-0.47 0.934l-0.658 0.545 0.032 0.215c0.042 0.242-0.035 0.465-0.202 0.588-0.169 0.123-0.367 0.145-0.59 0.142l-0.467 0.023zM17.742 28.407c0.055-0.035 0.123-0.047 0.187-0.050 0.189 0.003 0.335 0.17 0.34 0.36-0.003 0.113-0.073 0.225-0.183 0.291l-0.435 0.242c-0.155 0.102-0.367 0.058-0.466-0.113-0.078-0.123-0.068-0.288 0.032-0.407l0.006-5.222c-0.003-0.125 0.087-0.212 0.198-0.212 0.11 0.003 0.214 0.087 0.209 0.202 0 0 0 0 0.003 0.010l-0.003 4.965 0.111-0.065zM17.978 28.036c0 0 0-0.010 0-0.020l0.005-4.453c0-0.070 0.052-0.123 0.123-0.134l0.010-0.003c0.065 0.003 0.133 0.058 0.133 0.137l-0.003 4.453c0.010 0.076-0.045 0.14-0.123 0.14-0.081 0.014-0.136-0.041-0.146-0.119zM17.587 31.521c-0.070 0.010-0.15-0.020-0.17-0.1l-0.477-1.815c-0.023-0.068 0.023-0.147 0.090-0.157 0.010-0.010 0.020-0.008 0.020-0.008 0.070-0.003 0.123 0.042 0.145 0.095l0.49 1.818c0.010 0.068-0.022 0.148-0.097 0.168zM17.943 31.332c-0.081 0.026-0.145-0.020-0.17-0.087 0.003-0.015 0.003-0.015 0.003-0.015l-0.27-1c-0.020-0.070 0.027-0.145 0.092-0.155 0.010-0.010 0.020-0.013 0.032-0.010 0.055-0.003 0.123 0.045 0.137 0.095l0.265 1.002c0.022 0.084-0.027 0.147-0.088 0.17zM18.272 31.022c-0.065 0.020-0.142-0.013-0.163-0.090l-0.013-0.010-0.265-1.005c-0.023-0.076 0.020-0.145 0.084-0.168 0.015 0.003 0.026-0.010 0.032-0.010 0.070 0.003 0.125 0.042 0.137 0.113l0.265 0.992c0.037 0.074-0.008 0.142-0.078 0.178zM18.58 30.676c-0.070 0.010-0.15-0.023-0.16-0.102l-0.288-1.068c-0.023-0.070 0.020-0.145 0.087-0.165 0.013-0.003 0.023 0 0.035-0.003 0 0 0 0 0.010 0 0.060 0 0.113 0.045 0.123 0.102l0.291 1.065c0.010 0.070-0.023 0.147-0.097 0.17zM18.82 30.031c-0.065 0.023-0.142-0.010-0.165-0.081 0-0.010 0-0.010-0.010-0.020l-0.268-1.002c-0.023-0.068 0.023-0.145 0.1-0.17 0 0 0.013 0 0.023 0 0.065-0.008 0.12 0.037 0.145 0.102l0.268 1.002c0.020 0.069-0.009 0.145-0.092 0.169zM18.958 16.916l-0.695 1.012-0.189 4.333c0.175 0.052 0.278 0.244 0.22 0.433-0.045 0.131-0.175 0.233-0.323 0.233l-0.3 0.003c-0.178 0-0.338-0.157-0.338-0.347 0.005-0.134 0.082-0.255 0.205-0.31l0.192-4.443c0-0.055 0.013-0.1 0.045-0.145l0.367-0.535-0.212-0.197c-0.133-0.137-0.134-0.357 0-0.493 0.055-0.065 0.15-0.097 0.247-0.097 0.087-0.003 0.178 0.032 0.242 0.1l0.11 0.123c0.060-0.055 0.128-0.090 0.205-0.087 0.145-0.003 0.262 0.11 0.268 0.265 0.001 0.050-0.014 0.108-0.044 0.152zM19.328 8.861c-0.032 0.087-0.133 0.132-0.223 0.084-0.065-0.024-0.097-0.067-0.11-0.132l-0.1-0.594-0.291-0.79 0.36 0.069c0.123 0.022 0.242-0.010 0.346-0.078v-0.010l0.545-0.422 0.013-0.008c0.163-0.123 0.22-0.325 0.155-0.512-0.087-0.205-0.268-0.302-0.477-0.283l-0.015 0.003c-0.076 0.022-0.142 0.054-0.197 0.102l-0.402 0.305-0.813-0.152c-0.045-0.099 0-0.202 0.1-0.236 0.015-0.014 0.035-0.010 0.058-0.010l1.545-0.078c0.037 0.003 0.070-0.001 0.090 0.024l0.758 0.366c0.087 0.044 0.134 0.147 0.090 0.234-0.035 0.067-0.087 0.101-0.157 0.111l-0.445 0.023-0.827 1.983zM20.291 7.891c-0.015-0.042-0.026-0.087-0.023-0.131l-0.003-0.28c0-0.189 0.157-0.36 0.357-0.357 0.065 0 0.133 0.013 0.189 0.045 0.035-0.097 0.131-0.169 0.23-0.178 0.157 0 0.278 0.113 0.288 0.257 0.005 0.012 0.003 0.020 0 0.029l-0.076 1.248 0.21 2.207c0.197 0.033 0.333 0.21 0.3 0.401-0.026 0.18-0.183 0.31-0.36 0.314l-0.297-0.004c-0.187 0.014-0.355-0.141-0.365-0.342 0-0.133 0.065-0.269 0.189-0.338l-0.209-2.204c0-0.009 0-0.019 0-0.042l0.020-0.401c-0.188 0.067-0.392-0.035-0.453-0.224zM21.047 11.956l-0.003 3.328c0 0.078-0.055 0.134-0.131 0.128-0.076 0.003-0.133-0.052-0.133-0.128v-3.328c0.005-0.068 0.060-0.123 0.125-0.134l0.008 0.003c0.081-0.001 0.136 0.054 0.133 0.132zM20.648 16.442l-0.003 1.033c0.003 0.082-0.055 0.134-0.133 0.134s-0.133-0.060-0.131-0.134l-0.003-1.036c0.003-0.065 0.058-0.131 0.123-0.134 0 0 0 0 0.015 0.003 0.063 0 0.131 0.055 0.133 0.12-0.003 0.014-0.003 0.014-0.003 0.014zM21.033 17.902c0.003 0.065-0.055 0.131-0.134 0.128-0.063 0.003-0.131-0.063-0.131-0.131l0.003-1.050c0-0.065 0.058-0.12 0.12-0.131h0.010c0.081 0 0.133 0.058 0.134 0.134l-0.003 1.048zM21.435 17.076l-0.003 1.033c0 0.070-0.065 0.134-0.133 0.134-0.078 0-0.133-0.065-0.133-0.134v-1.033c-0.013-0.081 0.042-0.134 0.115-0.134-0.003-0.010 0.008-0.013 0.008-0.013 0.078 0 0.147 0.068 0.145 0.134v0.013zM21.012 16.274c-0.187 0-0.343-0.155-0.343-0.346s0.155-0.346 0.346-0.346h0.278l0.005-3.515c-0.008-0.102 0.076-0.189 0.175-0.189 0.102 0 0.189 0.078 0.192 0.178-0.003 0.010-0.003 0.010-0.003 0.010l-0.003 3.549c0.168 0.078 0.242 0.293 0.155 0.457-0.055 0.12-0.18 0.2-0.302 0.2h-0.5zM21.825 18.008c-0.003 0.081-0.055 0.134-0.133 0.134s-0.134-0.055-0.133-0.134l-0.003-1.033c0.003-0.068 0.055-0.125 0.125-0.134 0 0 0 0 0.010 0 0.063 0 0.133 0.058 0.133 0.133v1.034zM22.26 17.567c-0.065 0.020-0.147-0.013-0.168-0.090 0 0 0-0.010-0.010-0.020l-0.27-1.002c-0.008-0.068 0.023-0.147 0.1-0.168 0.013-0.003 0.013-0.003 0.023 0 0.068 0 0.125 0.032 0.145 0.1l0.268 1.002c0.020 0.068-0.010 0.145-0.087 0.178z"></path>
<path fill="#5c5b5f" d="M16.005 5.364c1.455 0 2.65-1.181 2.652-2.646 0-1.459-1.193-2.651-2.65-2.653-1.455 0-2.65 1.188-2.65 2.65-0.003 1.468 1.187 2.65 2.647 2.65zM17.275 4.182l-0.591 0.604c-0.012 0.008-0.022 0.022-0.036 0.022-0.063 0.088-0.165 0.146-0.275 0.143h-0.733c-0.114 0-0.225-0.052-0.284-0.143-0.008-0.012-0.015-0.009-0.029-0.024l-0.589-0.602c-0.067-0.076-0.067-0.187-0.001-0.256 0.035-0.032 0.068-0.054 0.113-0.056 0.013 0.003 0.013 0.003 0.013 0.003 0.052 0 0.1 0.020 0.131 0.054l0.412 0.438c0.058-0.055 0.125-0.090 0.201-0.088l-0.001 0.232c0.003 0.035 0.009 0.055 0.045 0.079 0.013-0.001 0.023 0.009 0.032 0.009 0.013 0 0.036 0 0.045 0 0.023-0.010 0.035-0.031 0.042-0.040 0.004-0.014 0.015-0.027 0.015-0.037-0.003-0.013-0.003-0.013-0.003-0.013l0.005-0.23 0.131-0.001v0.234c-0.001 0.033 0.012 0.055 0.045 0.077 0.012 0 0.012 0 0.023 0.013 0.010-0.001 0.033 0.001 0.045-0.001 0.023-0.009 0.045-0.019 0.054-0.042 0.014-0.012 0.014-0.024 0.014-0.037 0-0.008 0-0.008 0-0.008v-0.236h0.132v0.234c0.003 0.010 0.003 0.022-0.001 0.031 0.013 0.026 0.037 0.045 0.070 0.060 0.012-0.003 0.031-0.001 0.040-0.004 0.015-0.010 0.027-0.009 0.027-0.009 0.010-0.008 0.029-0.022 0.033-0.031 0.012-0.014 0.009-0.026 0.009-0.035 0-0.012 0-0.012 0-0.012v-0.237c0.078 0.004 0.147 0.032 0.202 0.092l0.411-0.435c0.067-0.067 0.177-0.068 0.256 0 0.065 0.065 0.065 0.175 0 0.252zM14.272 2.012c-0.005-0.668 0.543-1.201 1.21-1.201l1.048 0.004c0.669-0.003 1.213 0.534 1.213 1.201v0.525c-0.003 0.612-0.451 1.111-1.028 1.199-0.001 0.165-0.137 0.312-0.312 0.332l0.001-0.179c0 0 0 0 0.003-0.009-0.004-0.026-0.014-0.033-0.036-0.055 0 0 0 0-0.013-0.013-0.008 0-0.019-0.009-0.042-0.010-0.013 0-0.023-0.003-0.035 0.003-0.012 0.009-0.008 0.020-0.020 0.022-0.026 0.023-0.032 0.042-0.038 0.065l0.003 0.177-0.132 0.001v-0.179c0 0 0 0 0-0.009 0.003-0.009-0.001-0.023-0.014-0.032-0.009-0.014-0.022-0.024-0.031-0.037-0.013 0.001-0.020-0.006-0.035-0.009-0.013 0-0.031 0-0.040 0-0.013 0.009-0.015 0.023-0.026 0.022 0 0.014-0.010 0.014-0.010 0.014-0.015 0.018-0.026 0.033-0.026 0.054l0.003 0.177-0.133-0.003 0.005-0.175c0 0 0 0-0.005-0.012 0-0.013-0.013-0.023-0.013-0.033-0.009-0.023-0.031-0.031-0.055-0.046-0.010 0.003-0.031 0-0.042 0.001-0.013 0.008-0.023 0.022-0.036 0.022 0 0.013-0.009 0.012-0.009 0.012-0.010 0.012-0.015 0.022-0.015 0.022-0.009 0.010-0.008 0.026-0.008 0.035v0.177c-0.178-0.022-0.302-0.168-0.31-0.338-0.581-0.084-1.028-0.585-1.028-1.197l0.005-0.525z"></path>
</svg>
