<!-- Generated by IcoMoon.io -->
<svg version="1.1" xmlns="http://www.w3.org/2000/svg" width="32" height="32" viewBox="0 0 32 32">
<title>industria-verde</title>
<path fill="#5c5b5f" d="M26.616 16.708v-9.907l-4.602 2.83v3.182h-1.77l0.012-4.611h-2.134v-4.94h-5.661v8.082h-2.831v-2.778l-2.299-1.414-2.299 1.414v4.955h-1.77v15.215h4.952c0-0.352 0.709-1.413 1.77-1.768 0.302-0.102 2.831-0.355 3.54-0.708 0.422-0.212 1.624-0.94 1.756-1.020v-0.365c0-3.037-3.528-3.799-3.528-3.799 2.066 1.519 2.124 3.037 2.124 3.037-4.557 0-4.6-4.559-4.6-4.559 3.244 0 5.462 0.974 6.17 2.17 0-0.293 0-0.556 0-0.76 0-1.947 0-5.508 5.505-5.508 0 0 1.021 5.695-3.537 5.695 0 0-0.453-1.897 1.448-3.795 0 0-2.657 0.758-2.657 4.175v3.572c0.558-0.081 2.076 0.3 2.627 1.152 0.709 1.096 2.122 1.096 2.83 1.062 1.061-0.055 2.065 1.413 2.065 1.413h5.012v-12.029h-2.122v0.005z"></path>
</svg>
