<!-- Generated by IcoMoon.io -->
<svg version="1.1" xmlns="http://www.w3.org/2000/svg" width="32" height="32" viewBox="0 0 32 32">
<title>rato</title>
<path fill="#5c5b5f" d="M30.691 23.685c-0.003-1.923-0.669-3.462-1.8-4.797 0.457-0.71 0.707-1.587 0.707-2.502-0.003-2.628-2.132-4.753-4.759-4.75-2.63 0.003-4.755 2.13-4.75 4.76 0 2.419 1.841 4.462 4.215 4.707-0.038 0.003-0.081 0-0.123 0.003-2.796 0-5.047-2.292-5.052-5.041 0-0.17 0-0.333 0.040-0.545-4.131 0.632-7.341 3.428-7.918 7.058-0.127 0.005-0.21 0.003-0.21 0.003-10.847-0.447-9.347-7.009-9.347-13.898l0.035-0.389c-1.029 11.558-0.906 14.593 9.439 15.415v0c0 0-0.001-0.042 0 0l19.524-0.022zM28.307 20.307c0.375 0 0.667 0.291 0.666 0.666 0.005 0.375-0.287 0.667-0.664 0.669-0.376-0.003-0.667-0.294-0.667-0.667-0.001-0.375 0.291-0.666 0.666-0.668z"></path>
</svg>
