<!-- Generated by IcoMoon.io -->
<svg version="1.1" xmlns="http://www.w3.org/2000/svg" width="32" height="32" viewBox="0 0 32 32">
<title>relatorio</title>
<path fill="#5c5b5f" d="M24.3 17.718h-12.020c-0.319 0-0.572-0.257-0.572-0.572 0-0.317 0.255-0.572 0.572-0.572h12.022c0.317 0 0.572 0.255 0.572 0.572 0 0.315-0.256 0.572-0.573 0.572z"></path>
<path fill="#5c5b5f" d="M24.3 22.295h-12.020c-0.319 0-0.572-0.255-0.572-0.57 0-0.317 0.255-0.572 0.572-0.572h12.022c0.317 0 0.572 0.255 0.572 0.572 0 0.315-0.256 0.57-0.573 0.57z"></path>
<path fill="#5c5b5f" d="M24.3 26.875h-12.020c-0.317 0-0.572-0.252-0.572-0.572 0-0.315 0.255-0.57 0.572-0.57h12.022c0.317 0 0.572 0.255 0.572 0.57 0 0.32-0.256 0.572-0.573 0.572z"></path>
<path fill="#5c5b5f" d="M10.561 17.718h-3.436v-3.438h3.436v3.438zM8.271 16.572h1.146v-1.146h-1.146v1.146z"></path>
<path fill="#5c5b5f" d="M10.561 22.295h-3.436v-3.436h3.436v3.436zM8.271 21.152h1.146v-1.147h-1.146v1.147z"></path>
<path fill="#5c5b5f" d="M10.561 26.875h-3.436v-3.433h3.436v3.433zM8.271 25.733h1.146v-1.147h-1.146v1.147z"></path>
<path fill="#5c5b5f" d="M19.148 8.27l-1.718-1.718v1.146h-2.862v-1.146l-1.716 1.718 1.716 1.718v-1.148h2.862v1.148z"></path>
<path fill="#5c5b5f" d="M11.704 6.267c0 0.948-0.768 1.716-1.716 1.716s-1.716-0.768-1.716-1.716c0-0.948 0.768-1.716 1.716-1.716s1.716 0.768 1.716 1.716z"></path>
<path fill="#5c5b5f" d="M12.851 11.42c0-1.58-1.281-2.86-2.863-2.86-1.58 0-2.862 1.28-2.862 2.86h5.725z"></path>
<path fill="#5c5b5f" d="M23.726 6.267c0 0.948-0.768 1.716-1.716 1.716s-1.716-0.768-1.716-1.716c0-0.948 0.768-1.716 1.716-1.716s1.716 0.768 1.716 1.716z"></path>
<path fill="#5c5b5f" d="M24.873 11.42c0-1.58-1.283-2.86-2.862-2.86-1.578 0-2.861 1.28-2.861 2.86h5.723z"></path>
<path fill="#5c5b5f" d="M25.445 2.26h-18.89c-0.947 0-1.718 0.771-1.718 1.718v24.042c0 0.947 0.772 1.72 1.718 1.72h18.89c0.947 0 1.718-0.773 1.718-1.72v-24.044c0-0.947-0.771-1.716-1.718-1.716zM25.445 28.595h-18.89c-0.317 0-0.573-0.255-0.573-0.575v-24.044c0-0.315 0.256-0.572 0.573-0.572h18.89c0.315 0 0.572 0.257 0.572 0.572v24.044c0 0.32-0.257 0.575-0.572 0.575z"></path>
</svg>
