<!-- Generated by IcoMoon.io -->
<svg version="1.1" xmlns="http://www.w3.org/2000/svg" width="32" height="32" viewBox="0 0 32 32">
<title>dna</title>
<path fill="#5c5b5f" d="M12.152 19.29c-0.020-0.52-0.631-1.025-1.448-1.295 0.815-0.269 1.431-0.769 1.448-1.294 0-0.035 0-5.878-0.001-5.896-0.041-0.787-0.488-1.283-1.162-1.28-0.676 0-1.12 0.495-1.16 1.288-0.003 0.010-0.003 0.013 0 2.39l0.008 3.91c0 0.212-0.219 0.47-0.383 0.63-0.161-0.155-0.378-0.415-0.378-0.632l0.005-3.908c0.006-2.377 0.003-2.38 0.004-2.395-0.041-0.79-0.486-1.29-1.165-1.29-0.671 0-1.115 0.485-1.158 1.272-0.003 0.026-0.004 5.85 0 5.88 0.018 0.543 0.668 1.044 1.521 1.298-0.854 0.268-1.503 0.782-1.522 1.322-0.003 0.045 0.001 7.79 0.005 7.814 0.041 0.792 0.486 1.28 1.157 1.28 0.678 0 1.121-0.493 1.164-1.285-0.001-0.010 0.001-0.018-0.009-7.397v-0.823c0.001-0.215 0.22-0.477 0.381-0.632 0.16 0.155 0.376 0.42 0.379 0.63v0.826c-0.012 7.378-0.009 7.387-0.008 7.395 0.040 0.795 0.485 1.29 1.16 1.288 0.675 0 1.12-0.493 1.162-1.28 0.003-0.024 0.001-7.77 0-7.814zM7.137 11.476l1.555-0.003 0.004 0.251h-1.559v-0.248zM7.137 13.501h1.559v0.65l-1.558 0.003-0.001-0.653zM7.139 15.419l0.001-0.613h1.558l-0.001 0.613h-1.558zM8.733 26.715h-1.558l0.001-0.398h1.556v0.398zM8.731 26.028h-1.555v-0.255h1.559l-0.004 0.255zM8.732 25.375h-1.556l0.001-0.506h1.554v0.506zM8.732 23.604h-1.556l-0.001-0.255h1.559l-0.001 0.255zM8.732 22.337l-1.554-0.003v-0.507h1.554v0.509zM8.735 21.175h-1.559v-0.648l1.558-0.003 0.001 0.65zM8.731 19.913h-1.555v-0.509h1.558l-0.003 0.509zM11.768 12.952c-0.001 0.564-0.001 1.172 0.001 1.731l-1.554 0.003-0.003-1.485c-0.001-0.082 0-0.163 0-0.244l1.555-0.004zM10.221 12.567c0.004-0.065 0-0.125 0-0.187l1.539-0.005c0 0 0.003 0 0 0 0.001 0.068 0.004 0.128 0 0.192h-1.539zM10.988 9.907c0.658 0.003 0.764 0.643 0.78 0.915 0 0.020 0 0.5 0 1.172-0.004 0-0.008 0-0.010 0l-1.545-0.003c0-0.68 0.001-1.14 0-1.16 0.013-0.278 0.119-0.925 0.776-0.925zM11.773 26.68h-1.521v-0.401h1.518l0.003 0.401zM11.775 26.025h-1.519l-0.004-0.25h1.522l0.001 0.25zM11.772 25.375h-1.518v-0.506h1.519v0.506zM11.772 23.604h-1.521v-0.255h1.521v0.255zM11.773 22.335h-1.521l-0.001-0.507h1.521l0.001 0.507zM11.771 21.175l-1.521 0.003v-0.653h1.521v0.65zM11.775 19.91h-1.522v-0.507h1.523l-0.001 0.507z"></path>
<path fill="#5c5b5f" d="M11.758 12.374v0c0.003 0 0 0 0 0z"></path>
<path fill="#5c5b5f" d="M25.17 19.295c-0.018-0.53-0.627-1.030-1.445-1.3 0.817-0.27 1.427-0.771 1.448-1.298 0-0.035-0.001-5.873 0-5.893-0.047-0.787-0.493-1.283-1.164-1.283-0.676 0-1.124 0.495-1.161 1.29-0.001 0.010 0 0.013 0.004 2.39l0.004 3.908c0.003 0.215-0.218 0.472-0.38 0.632-0.161-0.155-0.375-0.417-0.378-0.632l0.008-3.913c0.003-2.374 0-2.382-0.001-2.39-0.038-0.795-0.484-1.29-1.16-1.29-0.675 0-1.121 0.483-1.164 1.272-0.001 0.026-0.001 5.85-0.001 5.88 0.019 0.54 0.671 1.044 1.523 1.298-0.852 0.265-1.504 0.782-1.522 1.32 0 0.047 0.004 7.793 0.003 7.817 0.047 0.79 0.489 1.28 1.162 1.28 0.678 0 1.12-0.493 1.16-1.285 0.001-0.013 0.003-0.018-0.008-7.397l-0.001-0.826c0-0.215 0.221-0.475 0.381-0.63 0.16 0.155 0.378 0.415 0.379 0.63v0.826c-0.009 7.378-0.009 7.386-0.008 7.397 0.040 0.792 0.484 1.285 1.161 1.285 0.675 0 1.119-0.493 1.162-1.28 0-0.023 0.003-7.772-0.003-7.808zM20.168 10.826c0.010-0.278 0.119-0.918 0.777-0.92 0.66 0 0.763 0.648 0.777 0.918-0.003 0.023-0.003 0.49-0.003 1.17-0.008 0-0.012-0.005-0.018-0.003h-1.536c0-0.672 0-1.144 0.003-1.165zM20.165 12.567c-0.003-0.065-0.003-0.125 0-0.192h1.54c0.003 0 0.009 0 0.013 0 0 0.063 0 0.128 0 0.195h-1.553v-0.003zM21.718 12.952c0 0.082 0.003 0.165 0 0.247l-0.004 1.482-1.551 0.003c0.004-0.561 0-1.167 0.003-1.733h1.553zM20.166 20.835h1.548c0.004 0.187 0.001 0.38 0.004 0.58h-1.55c-0.005-0.202 0-0.397-0.001-0.58zM20.163 22.182h1.554c0 0.255 0.001 0.512 0.001 0.771l-1.553-0.003c0.003-0.257 0-0.513-0.003-0.768zM20.166 23.337l1.551-0.003c0.003 0.192 0 0.385 0 0.58l-1.55-0.003c-0.003-0.192-0.003-0.384-0.001-0.575zM20.168 24.293l1.553 0.003c-0.003 0.49 0 0.947 0 1.348l-1.558 0.003c0.003-0.406 0.005-0.867 0.005-1.353zM20.945 28c-0.658 0-0.764-0.64-0.777-0.91-0.001-0.026-0.003-0.44-0.001-1.065h1.556c0 0.63 0 1.033 0.001 1.055-0.018 0.275-0.119 0.925-0.78 0.92zM21.714 18.875l-0.001 0.829c0.001 0.115 0 0.236 0 0.362h-1.545c0-0.465-0.005-0.755-0.003-0.763 0-0.388 0.774-0.957 1.825-1.094-0.143 0.186-0.278 0.421-0.276 0.666zM20.163 16.687c0.005-0.037 0.003-0.54 0-1.235h1.551l-0.001 1.66c0 0.244 0.132 0.483 0.278 0.667-1.051-0.145-1.811-0.709-1.828-1.092zM23.191 11.471h1.567l-0.031 0.253h-1.537l0.001-0.253zM23.192 13.514h1.565l-0.003 0.637h-1.564l0.001-0.637zM23.24 17.112l-0.005-1.66h1.553c0 0.695-0.003 1.193 0 1.233-0.012 0.385-0.773 0.952-1.827 1.094 0.15-0.184 0.276-0.421 0.279-0.667zM22.961 18.211c1.051 0.137 1.821 0.708 1.821 1.088 0 0.008-0.001 0.302-0.001 0.768h-1.536l-0.004 0.773 1.54-0.003c-0.003 0.183 0.001 0.375 0.001 0.577l-1.542 0.003c-0.001-0.635 0.001-1.225 0.001-1.713v-0.826c-0.001-0.248-0.138-0.484-0.28-0.668zM23.236 23.91c-0.001-0.186-0.001-0.383-0.001-0.575h1.542c0.004 0.189 0.004 0.385 0.003 0.577l-1.544-0.003zM24.78 24.294c0.003 0.485 0.001 0.945-0.001 1.348h-1.546c0-0.398 0-0.858 0-1.348h1.548zM23.236 22.953c0-0.257 0-0.517 0-0.768l1.544-0.003c-0.003 0.252-0.003 0.507 0 0.771h-1.544zM24.787 27.085c-0.012 0.275-0.12 0.915-0.777 0.915-0.659 0-0.763-0.643-0.777-0.913 0-0.023 0-0.43 0-1.062l1.555 0.003c0 0.622 0.001 1.030-0.001 1.057z"></path>
<path fill="#5c5b5f" d="M24.218 7.151c0.001-0.771-0.308-3.538-6.442-3.538-6.388 0-7.077 2.513-7.075 3.538l-0.868 0.003 1.258 1.632 1.26-1.632h-1.024c0-0.773 0.465-2.906 6.449-2.912 4.293 0 5.816 1.627 5.815 2.909l-0.863 0.003 1.257 1.629 1.254-1.632h-1.021z"></path>
</svg>
