<!-- Generated by IcoMoon.io -->
<svg version="1.1" xmlns="http://www.w3.org/2000/svg" width="32" height="32" viewBox="0 0 32 32">
<title>pipeta-borb</title>
<path fill="#5c5b5f" d="M14.604 18.303c0.125 0.257 0.438 0.365 0.696 0.241 0.259-0.131 1.076-1.103 2.203-1.573-1.213 0.029-2.4 0.509-2.657 0.635-0.26 0.128-0.367 0.438-0.242 0.698z"></path>
<path fill="#5c5b5f" d="M18.888 15.063v-14.13l1.361-0.832h-9.313l1.496 0.813v14.42c-3.005 1.361-5.098 4.385-5.098 7.9 0 4.787 3.881 8.666 8.667 8.666 4.785 0 8.667-3.877 8.667-8.666 0-3.772-2.412-6.985-5.779-8.172zM9.98 27.122c-0.38 0.086-0.759-0.15-0.847-0.53-0.088-0.378 0.15-0.76 0.53-0.847s0.76 0.15 0.849 0.53c0.087 0.383-0.15 0.76-0.531 0.847zM10.349 23.607c-0.243 0.055-0.485-0.097-0.541-0.34-0.058-0.242 0.095-0.486 0.338-0.539 0.241-0.058 0.484 0.092 0.541 0.337 0.056 0.243-0.097 0.485-0.338 0.543zM9.272 19.612c0.838-1.568 2.205-2.801 3.86-3.47l0.32-0.131v-14.55h4.419v14.348c1.608 0.488 2.993 1.361 4.005 2.537-0.676-0.598-1.413-0.987-2.213-1.165-1.172-0.361-1.416 0.559-0.65 0.914 1.207 0.507 0.509 2.213-0.933 2.321l-7.203 0.485c-1.185-0.001-1.603-0.426-1.605-1.289zM21.288 21.088c-0.335 0.079-0.669-0.133-0.748-0.47-0.078-0.335 0.133-0.671 0.467-0.748 0.335-0.078 0.672 0.132 0.748 0.467 0.081 0.337-0.129 0.672-0.467 0.75zM15.068 23.281c-0.579 0.134-1.156-0.228-1.289-0.805s0.227-1.153 0.805-1.29c0.577-0.133 1.156 0.228 1.288 0.808 0.136 0.58-0.224 1.155-0.804 1.288zM21.157 26.385c-0.457 1.283-1.842 2.442-4.147 3.488-1.459 0.517-3.167-0.238-3.067-1.238-0.124-0.113-0.218-0.223-0.265-0.312-0.398-0.147-0.643-0.268-0.966-0.445-0.521 0.133-0.859-0.047-1.014-0.538l-0.374-0.772c-0.041-0.178 0.009-0.278 0.148-0.293-0.032-0.173 0.003-0.268 0.108-0.292-0.061-0.175 0.001-0.261 0.191-0.259 0.188-0.229 0.317-0.114 0.383 0.346 0.161 0.113 0.37 0.33 0.626 0.655 0.069-0.015 0.141-0.032 0.216-0.042-0.233-0.155-0.329-0.401-0.289-0.753l-0.026-0.855c0.041-0.155 0.127-0.228 0.253-0.207 0.029-0.165 0.101-0.236 0.215-0.22 0.061-0.157 0.155-0.212 0.282-0.16 0.265-0.133 0.335 0.026 0.209 0.47 0.102 0.165 0.204 0.453 0.306 0.855 0.388 0.065 0.819 0.252 1.294 0.562 0.321-0.118 0.622-0.105 0.896 0.042 0.109-0.187 0.142-0.252 0.397-0.447-0.224-0.124-0.378-0.262-0.468-0.389l-0.595-0.215c-0.307-0.118-0.438-0.251-0.385-0.401 0.031-0.033 0.105 0.005 0.219 0.122l0.18 0.078c0.131-0.010 0.076-0.087-0.16-0.236-0.186-0.122-0.259-0.229-0.216-0.325 0.040-0.092 0.124-0.052 0.252 0.118 0.104 0.086 0.186 0.131 0.247 0.128 0.022-0.050-0.017-0.11-0.114-0.18-0.082-0.065-0.16-0.16-0.236-0.289-0.087-0.125-0.049-0.303 0.145-0.099l0.142 0.131c0.091 0.045 0.168 0.11 0.233 0.189 0.052-0.027 0.056-0.084 0.010-0.187-0.109-0.15-0.177-0.252-0.197-0.31-0.091-0.088-0.052-0.268 0.065-0.165l0.214 0.215c0.044 0.055 0.082 0.118 0.118 0.187l0.129 0.223c0.093 0.035 0.133-0.008 0.115-0.125-0.005-0.22 0.033-0.333 0.114-0.343 0.051-0.023 0.091 0.063 0.116 0.255 0.027 0.083 0.046 0.178 0.054 0.278 0.106 0.095 0.16 0.238 0.163 0.433 0.497 0.255 0.772 0.417 0.827 0.49 0.152-0.065 0.317-0.095 0.477-0.097-0.108-0.134-0.2-0.268-0.218-0.335l-0.404-0.352c-0.21-0.187-0.27-0.333-0.184-0.438 0.033-0.018 0.081 0.037 0.138 0.165l0.12 0.115c0.105 0.032 0.087-0.045-0.058-0.238-0.11-0.15-0.134-0.255-0.076-0.32 0.060-0.068 0.115-0.010 0.165 0.168 0.055 0.1 0.11 0.16 0.157 0.178 0.031-0.033 0.023-0.095-0.035-0.178-0.045-0.078-0.078-0.178-0.1-0.297-0.027-0.131 0.058-0.26 0.145-0.036l0.076 0.143c0.058 0.067 0.1 0.134 0.125 0.227 0.050-0.006 0.070-0.055 0.065-0.145-0.041-0.155-0.063-0.253-0.060-0.308-0.045-0.097 0.040-0.227 0.102-0.108l0.105 0.236c0.015 0.055 0.027 0.115 0.035 0.186l0.035 0.215c0.063 0.055 0.105 0.037 0.128-0.065 0.065-0.173 0.128-0.252 0.195-0.236 0.047-0.003 0.055 0.078 0.015 0.236-0.003 0.081-0.018 0.155-0.042 0.238 0.058 0.11 0.058 0.239 0 0.397 0.137 0.151 0.252 0.293 0.349 0.406 0.023-0.042 0.055-0.086 0.097-0.133-0.145-0.133-0.147-0.241-0.010-0.312-0.184-0.055-0.262-0.133-0.241-0.23 0.091-0.027 0.16-0.116 0.193-0.257-0.191-0.248-0.138-0.389 0.147-0.417 0.090-0.038 0.142-0.125 0.157-0.251-0.092-0.172-0.084-0.375 0.023-0.625 0.268-0.488 0.527-0.774 0.782-0.865 0.467-0.113 0.832-0.133 1.092-0.065 0.794-0.029 1.379 0.23 1.76 0.778 0.453 0.951 0.383 1.686-0.219 2.205-0.481 0.521-1.151 1.041-1.386 1.251z"></path>
</svg>
