<!-- Generated by IcoMoon.io -->
<svg version="1.1" xmlns="http://www.w3.org/2000/svg" width="32" height="32" viewBox="0 0 32 32">
<title>pipeta</title>
<path fill="#5c5b5f" d="M23.444 26.395l-5.148-6.79-0.024-5.18 1.254-1.692c0.15-0.198 0.17-0.465 0.058-0.685-0.11-0.218-0.338-0.356-0.582-0.356l-2.857 0.013-0.019-5.317c0.568 1.574 1.711 2.486 3.096 2.377-0.013-2.351-2.376-2.948-3.098-3.081l-0.014-3.727-0.613 0.001 0.018 5.574c-0.814 0.169-2.985 0.832-2.976 3.084 1.307 0.092 2.395-0.723 2.98-2.144l0.013 3.236-2.668 0.009c-0.247 0.003-0.474 0.141-0.584 0.364-0.111 0.221-0.086 0.485 0.065 0.681l1.27 1.683 0.020 5.179-5.091 6.829c-0.643 0.817-0.795 1.77-0.411 2.561 0.311 0.639 0.924 1.036 1.604 1.033l12.536-0.052c0.677 0 1.288-0.401 1.595-1.042 0.38-0.791 0.22-1.745-0.425-2.556zM17.711 13.002l-0.609 0.822c-0.083 0.114-0.132 0.252-0.131 0.39l0.023 5.614c0.003 0.138 0.047 0.279 0.133 0.392l0.355 0.465-1.304 0.006-0.031-7.684 1.564-0.005zM15.534 13.012l0.029 7.683-1.102 0.003 0.352-0.467c0.081-0.113 0.128-0.255 0.128-0.392l-0.022-5.618c0-0.142-0.045-0.276-0.132-0.389l-0.617-0.815 1.363-0.004zM22.693 28.393c-0.084 0.187-0.244 0.298-0.42 0.302l-12.535 0.045c-0.175 0.003-0.337-0.11-0.426-0.297-0.163-0.33-0.063-0.774 0.262-1.193 0.005-0.004 0.009-0.008 0.010-0.010l4.625-6.203h1.362l0.005 1.608c-0.251-0.1-0.534-0.123-0.815-0.045-0.69 0.189-1.091 0.897-0.906 1.587 0.020 0.076 0.047 0.143 0.078 0.21-0.433 0.303-0.655 0.86-0.507 1.403 0.151 0.545 0.626 0.91 1.162 0.945 0.005 0.091 0.017 0.179 0.042 0.27 0.191 0.687 0.904 1.094 1.592 0.902 0.321-0.088 0.585-0.294 0.748-0.561 0.279 0.142 0.609 0.187 0.933 0.095 0.687-0.191 1.092-0.897 0.902-1.587-0.027-0.111-0.076-0.214-0.132-0.305 0.356-0.317 0.522-0.819 0.392-1.309-0.133-0.485-0.53-0.827-0.991-0.92-0.004-0.097-0.017-0.192-0.042-0.289-0.188-0.687-0.901-1.093-1.59-0.906-0.091 0.027-0.174 0.061-0.252 0.101l-0.005-1.206 1.558-0.003 4.668 6.161c0.004 0.008 0.009 0.009 0.012 0.014 0.329 0.413 0.431 0.856 0.27 1.192zM15.254 25.32c-0.161-0.585 0.187-1.193 0.773-1.353 0.585-0.163 1.192 0.186 1.354 0.773 0.161 0.586-0.187 1.196-0.769 1.356-0.589 0.163-1.197-0.186-1.358-0.776z"></path>
</svg>
