<!-- Generated by IcoMoon.io -->
<svg version="1.1" xmlns="http://www.w3.org/2000/svg" width="37" height="32" viewBox="0 0 37 32">
<title>pucminas</title>
<path fill="#fff" d="M2.787 28.264v1.932h-0.93v-5.246c0.622-0.026 0.985-0.039 1.089-0.039 0.829 0 1.436 0.127 1.819 0.382 0.382 0.254 0.574 0.651 0.574 1.19 0 1.204-0.709 1.805-2.127 1.805-0.106 0-0.246-0.007-0.424-0.024zM2.787 25.755v1.68c0.158 0.018 0.283 0.026 0.373 0.026 0.425 0 0.737-0.071 0.932-0.213s0.294-0.372 0.294-0.694c0-0.545-0.439-0.817-1.315-0.817-0.099 0-0.192 0.006-0.284 0.018z"></path>
<path fill="#fff" d="M6.017 24.945h0.933v3.559c0 0.283 0.085 0.511 0.257 0.689 0.172 0.176 0.409 0.265 0.71 0.265 0.337 0 0.599-0.087 0.787-0.259 0.188-0.174 0.282-0.41 0.282-0.712v-3.541h0.93v3.612c0 0.541-0.181 0.963-0.543 1.269s-0.845 0.459-1.45 0.459c-0.609 0-1.079-0.149-1.41-0.447s-0.497-0.727-0.497-1.283v-3.61z"></path>
<path fill="#fff" d="M14.441 25.226l-0.382 0.771c-0.209-0.209-0.543-0.312-1.003-0.312-0.438 0-0.797 0.184-1.077 0.55s-0.419 0.83-0.419 1.392c0 0.561 0.13 1.007 0.389 1.336 0.259 0.33 0.605 0.495 1.037 0.495 0.495 0 0.883-0.177 1.162-0.53l0.434 0.752c-0.38 0.404-0.938 0.605-1.67 0.605s-1.304-0.241-1.709-0.724c-0.406-0.481-0.61-1.14-0.61-1.974 0-0.776 0.224-1.425 0.675-1.947s1.027-0.784 1.729-0.784c0.602 0 1.084 0.124 1.444 0.37z"></path>
<path fill="#fff" d="M22.148 30.199h-0.904l-0.545-2.831-1.056 2.899h-0.333l-1.059-2.899-0.565 2.831h-0.9l1.057-5.254h0.495l1.136 3.538 1.111-3.538h0.492l1.072 5.254z"></path>
<path fill="#fff" d="M22.759 30.196v-3.103h-0.492v-0.735h1.399v3.838h-0.907zM23.222 24.871c0.144 0 0.267 0.050 0.368 0.152 0.102 0.101 0.152 0.223 0.152 0.367s-0.051 0.267-0.152 0.367c-0.101 0.102-0.224 0.152-0.368 0.152-0.142 0-0.266-0.050-0.367-0.152-0.1-0.1-0.152-0.223-0.152-0.367s0.052-0.266 0.152-0.367c0.102-0.102 0.225-0.152 0.367-0.152z"></path>
<path fill="#fff" d="M27.032 30.196v-2.218c0-0.328-0.063-0.566-0.188-0.718-0.125-0.15-0.33-0.225-0.615-0.225-0.131 0-0.272 0.037-0.421 0.111-0.15 0.074-0.266 0.166-0.35 0.276v2.774h-0.896v-3.838h0.646l0.165 0.359c0.245-0.287 0.603-0.431 1.080-0.431 0.456 0 0.815 0.137 1.080 0.41s0.396 0.655 0.396 1.146v2.354h-0.896z"></path>
<path fill="#fff" d="M30.885 29.813c-0.082 0.133-0.223 0.243-0.425 0.328s-0.413 0.127-0.632 0.127c-0.413 0-0.739-0.103-0.976-0.309s-0.354-0.5-0.354-0.879c0-0.445 0.167-0.793 0.5-1.043s0.807-0.377 1.42-0.377c0.105 0 0.229 0.018 0.372 0.055 0-0.453-0.284-0.678-0.855-0.678-0.337 0-0.618 0.056-0.846 0.168l-0.193-0.695c0.307-0.148 0.675-0.222 1.101-0.222 0.584 0 1.013 0.133 1.284 0.4 0.274 0.266 0.41 0.772 0.41 1.513v0.822c0 0.511 0.101 0.832 0.308 0.964-0.074 0.129-0.157 0.208-0.247 0.238-0.092 0.031-0.195 0.045-0.313 0.045-0.128 0-0.244-0.047-0.347-0.142-0.103-0.097-0.172-0.201-0.207-0.313zM30.797 28.39c-0.152-0.032-0.267-0.047-0.343-0.047-0.707 0-1.061 0.232-1.061 0.695 0 0.343 0.2 0.515 0.599 0.515 0.537 0 0.805-0.268 0.805-0.805v-0.359z"></path>
<path fill="#fff" d="M32.274 29.949l0.32-0.713c0.267 0.213 0.57 0.319 0.906 0.319 0.349 0 0.524-0.125 0.524-0.372 0-0.145-0.054-0.265-0.158-0.358-0.104-0.092-0.31-0.203-0.614-0.329-0.661-0.275-0.993-0.661-0.993-1.155 0-0.33 0.127-0.59 0.381-0.775 0.253-0.185 0.576-0.278 0.97-0.278 0.4 0 0.775 0.089 1.126 0.268l-0.259 0.696c-0.197-0.167-0.468-0.25-0.818-0.25-0.313 0-0.469 0.124-0.469 0.372 0 0.098 0.052 0.187 0.153 0.266 0.102 0.078 0.323 0.184 0.66 0.316 0.336 0.134 0.579 0.294 0.728 0.483 0.147 0.189 0.221 0.417 0.221 0.685 0 0.355-0.132 0.636-0.395 0.839-0.264 0.205-0.624 0.307-1.078 0.307-0.256 0-0.459-0.020-0.614-0.062-0.153-0.043-0.352-0.128-0.594-0.256z"></path>
<path fill="#fff" d="M10.422 13.972l-0.021-0.048c-0.052-0.129-0.114-0.256-0.18-0.381 0.045 0 0.088 0 0.133 0h0.198l-0.013-0.030c-0.028-0.067-0.054-0.136-0.068-0.209-0.013-0.068-0.014-0.138-0.016-0.208l-0.002-0.021h-0.186c-0.049 0-0.096 0-0.146 0 0.009-0.108 0.024-0.215 0.042-0.321l0.005-0.026h-0.232c-0.068 0-0.135 0-0.203 0h-0.019l-0.002 0.017c-0.020 0.109-0.035 0.219-0.043 0.33-0.048 0-0.097 0-0.146 0-0.056 0-0.112 0-0.167 0h-0.021v0.022c0.001 0.071 0.005 0.145 0.018 0.217 0.016 0.074 0.042 0.146 0.072 0.215l0.005 0.013h0.015c0.055 0 0.11 0 0.165 0 0.050 0 0.104 0 0.154 0 0.064 0.123 0.125 0.246 0.179 0.373 0.010 0.024 0.019 0.047 0.028 0.070 0.060 0.152 0.113 0.305 0.171 0.457l0.006 0.015h0.014c0.069 0 0.138 0 0.204 0h0.237l-0.011-0.030c-0.058-0.152-0.112-0.305-0.17-0.457zM10.235 14.313c-0.054-0.148-0.105-0.298-0.168-0.444-0.037-0.092-0.081-0.181-0.125-0.271-0.030-0.062-0.060-0.124-0.088-0.187l-0.005-0.012h-0.014c-0.056 0-0.111 0-0.167 0-0.051 0-0.101 0-0.149 0-0.017-0.059-0.029-0.118-0.037-0.178 0.047 0 0.095 0 0.142 0 0.056 0.001 0.111 0 0.168 0h0.021l-0-0.020c-0.001-0.109 0.003-0.217 0.016-0.324h0.169c-0.013 0.107-0.020 0.216-0.018 0.325l0.003 0.020h0.021c0.055 0 0.111 0 0.166 0 0.050 0 0.098 0 0.147 0 0.008 0.060 0.020 0.12 0.036 0.178-0.048 0-0.094 0-0.139 0-0.055 0-0.112 0-0.167 0h-0.033l0.014 0.030c0.069 0.154 0.148 0.301 0.215 0.457 0.058 0.14 0.108 0.285 0.159 0.427-0.054 0-0.109 0-0.166 0z"></path>
<path fill="#fff" d="M26.241 14.459h0.204c0.068 0 0.136 0 0.205 0h0.014l0.005-0.015c0.060-0.152 0.112-0.305 0.171-0.457 0.061-0.152 0.132-0.299 0.209-0.443 0.051 0 0.102 0 0.153 0h0.18l0.006-0.013c0.030-0.070 0.056-0.142 0.070-0.215 0.014-0.072 0.017-0.146 0.018-0.217v-0.022h-0.021c-0.057 0-0.111 0-0.168 0h-0.146c-0.006-0.111-0.022-0.221-0.041-0.33l-0.004-0.017h-0.017c-0.069 0-0.138 0-0.206 0s-0.136 0-0.206 0h-0.026l0.005 0.026c0.020 0.106 0.035 0.213 0.042 0.321-0.049 0-0.096 0-0.143 0h-0.19v0.021c-0 0.070-0.004 0.141-0.017 0.208-0.014 0.073-0.040 0.142-0.067 0.209l-0.013 0.030h0.199c0.044 0 0.089 0 0.132 0-0.065 0.125-0.128 0.252-0.18 0.382l-0.020 0.046c-0.057 0.151-0.112 0.305-0.171 0.457l-0.012 0.030h0.034zM26.571 13.885c0.066-0.155 0.146-0.303 0.214-0.457l0.013-0.030h-0.033c-0.055 0-0.112 0-0.166 0-0.048 0-0.092 0-0.139 0 0.014-0.059 0.025-0.118 0.033-0.178 0.049 0 0.1 0 0.148 0 0.056 0 0.111 0 0.167 0h0.021l0.001-0.020c0.002-0.109-0.003-0.218-0.017-0.325 0.056 0 0.111 0 0.169 0 0.012 0.107 0.018 0.215 0.017 0.324v0.020h0.021c0.056 0 0.112 0 0.166 0h0.142c-0.007 0.060-0.019 0.12-0.035 0.178h-0.151c-0.054 0-0.111 0-0.166 0h-0.014l-0.005 0.012c-0.069 0.155-0.148 0.302-0.216 0.458-0.060 0.145-0.112 0.296-0.165 0.444-0.056 0-0.112 0-0.167 0 0.051-0.143 0.102-0.288 0.161-0.427z"></path>
<path fill="#fff" d="M20.596 19.159c-0.276-0.148-0.503-0.359-0.683-0.608-0.054-0.076-0.104-0.155-0.149-0.239-0.204-0.374-0.309-0.807-0.309-1.233s0.106-0.861 0.309-1.236c0.046-0.082 0.095-0.163 0.149-0.238 0.18-0.25 0.407-0.46 0.683-0.609 0.055-0.028 0.111-0.055 0.168-0.079l0.031-0.012-0.026-0.022c-0.055-0.050-0.112-0.099-0.173-0.145-0.14-0.109-0.287-0.207-0.443-0.292l-0.012-0.007-0.010 0.009c-0.079 0.057-0.151 0.122-0.218 0.192-0.052 0.056-0.101 0.114-0.149 0.176-0.156 0.206-0.279 0.442-0.371 0.675-0.127 0.325-0.209 0.669-0.25 1.016-0.023 0.191-0.035 0.383-0.035 0.573s0.012 0.38 0.035 0.572c0.042 0.349 0.123 0.692 0.25 1.016 0.092 0.233 0.214 0.468 0.371 0.675 0.049 0.061 0.097 0.12 0.149 0.176 0.067 0.070 0.139 0.135 0.218 0.192l0.010 0.008 0.012-0.006c0.155-0.086 0.303-0.183 0.443-0.292 0.061-0.047 0.118-0.095 0.173-0.145l0.026-0.023-0.031-0.013c-0.057-0.024-0.113-0.051-0.168-0.079z"></path>
<path fill="#fff" d="M19.142 18.871c-0.189-0.589-0.266-1.231-0.266-1.793 0-0.564 0.076-1.207 0.266-1.795 0.122-0.381 0.291-0.738 0.517-1.034l0.018-0.023-0.028-0.009c-0.166-0.061-0.335-0.108-0.506-0.143-0.104-0.022-0.209-0.038-0.315-0.050-0.079-0.009-0.158-0.015-0.239-0.019l-0.022-0.002v6.149l0.022-0.002c0.080-0.005 0.16-0.011 0.239-0.019 0.105-0.013 0.21-0.029 0.315-0.050 0.171-0.034 0.34-0.082 0.506-0.141l0.028-0.010-0.018-0.024c-0.226-0.296-0.395-0.654-0.517-1.035z"></path>
<path fill="#fff" d="M10.23 20.376v0l-0.031-0.035c-0.074-0.081-0.163-0.146-0.257-0.196-0.114-0.056-0.239-0.090-0.369-0.098-0.245-0.011-0.488 0.081-0.666 0.249l-0.010 0.009c-0.15 0.145-0.249 0.334-0.282 0.541-0.007 0.040-0.011 0.080-0.013 0.12-0.012 0.244 0.069 0.489 0.228 0.676h-0.002l0.022 0.025c0.219 0.244 0.549 0.356 0.871 0.284 0.076-0.016 0.149-0.043 0.218-0.079 0.076-0.040 0.148-0.089 0.212-0.149l0.001-0.002 0.016-0.015-0.001-0.001c0.107-0.103 0.184-0.229 0.23-0.363 0.034-0.092 0.052-0.19 0.056-0.289 0.008-0.127-0.014-0.255-0.056-0.373-0.037-0.111-0.096-0.214-0.171-0.303zM10.043 21.577l-0.013 0.013c-0.028 0.026-0.057 0.050-0.088 0.071-0.077 0.052-0.163 0.091-0.254 0.11-0.257 0.057-0.519-0.029-0.698-0.22v0l-0.014-0.015-0.006-0.008c-0.131-0.152-0.198-0.355-0.191-0.556 0.002-0.032 0.004-0.064 0.010-0.096 0.029-0.168 0.109-0.323 0.23-0.441l0.011-0.009c0.142-0.133 0.337-0.207 0.532-0.198 0.138 0.006 0.269 0.050 0.379 0.126 0.051 0.035 0.097 0.076 0.139 0.123l0.018 0.022c0.127 0.151 0.19 0.348 0.181 0.544-0.008 0.202-0.090 0.393-0.238 0.535z"></path>
<path fill="#fff" d="M26.643 19.372l0.004-0.001c0.040 0 0.077-0.006 0.115-0.012 0.198-0.036 0.377-0.134 0.512-0.282l0.001 0.001 0.005-0.005 0.014-0.019c0.164-0.189 0.249-0.438 0.237-0.687-0.011-0.229-0.099-0.448-0.251-0.616-0.015-0.018-0.031-0.033-0.046-0.049l-0.010-0.009c-0.179-0.165-0.419-0.255-0.662-0.244-0.052 0.002-0.103 0.008-0.153 0.019-0.188 0.042-0.36 0.144-0.489 0.29l-0.016 0.016 0.001 0.002c-0.104 0.124-0.176 0.272-0.209 0.431-0.066 0.326 0.032 0.665 0.269 0.899l-0.001 0.001 0.018 0.015c0.119 0.113 0.267 0.191 0.427 0.227 0.076 0.017 0.154 0.024 0.233 0.021zM26.084 18.971v0.001c-0.19-0.19-0.268-0.465-0.215-0.725 0.027-0.127 0.083-0.246 0.168-0.347l0.001 0.003 0.015-0.024c0.095-0.107 0.22-0.184 0.357-0.223 0.051-0.014 0.105-0.023 0.161-0.026 0.195-0.009 0.389 0.063 0.533 0.196v0l0.012 0.011c0.069 0.066 0.125 0.145 0.165 0.23 0.044 0.095 0.071 0.199 0.074 0.307 0.008 0.13-0.020 0.26-0.074 0.377-0.031 0.065-0.069 0.127-0.118 0.182l-0.010 0.011c-0.109 0.124-0.257 0.207-0.421 0.236-0.030 0.005-0.061 0.009-0.094 0.010l-0.008 0.001c-0.076 0.003-0.149-0.007-0.221-0.026-0.116-0.033-0.221-0.093-0.308-0.176l-0.018-0.018z"></path>
<path fill="#fff" d="M25.336 19.816l-0.003 0.001c-0.165-0.149-0.383-0.234-0.607-0.234-0.014 0-0.027 0-0.042 0h-0.008v0.001c-0.035 0.003-0.070 0.006-0.106 0.012-0.206 0.037-0.388 0.141-0.526 0.297l-0.007 0.009c-0.165 0.19-0.249 0.439-0.237 0.687 0.001 0.040 0.006 0.080 0.012 0.119 0.034 0.209 0.135 0.401 0.29 0.547l0.001 0.002h0.001c0.144 0.137 0.326 0.222 0.523 0.245 0.034 0.003 0.067 0.005 0.1 0.005 0.014 0 0.027 0 0.040-0.002 0.25-0.011 0.481-0.123 0.647-0.313l0.002-0.003c0.133-0.152 0.216-0.34 0.235-0.542 0.004-0.048 0.006-0.096 0.004-0.144-0.010-0.255-0.116-0.495-0.301-0.67l-0.016-0.018zM25.472 20.629c-0.016 0.161-0.081 0.315-0.187 0.438l-0.004 0.004c-0.135 0.152-0.321 0.246-0.525 0.253-0.010 0.001-0.020 0.001-0.031 0.001-0.026 0-0.053-0.002-0.081-0.004-0.156-0.018-0.301-0.084-0.417-0.193v0l-0.009-0.007c-0.124-0.119-0.205-0.274-0.233-0.444-0.006-0.032-0.010-0.065-0.010-0.097-0.010-0.201 0.058-0.402 0.189-0.556l0.009-0.010c0.113-0.125 0.261-0.21 0.425-0.239 0.028-0.005 0.057-0.008 0.085-0.010h0.010c0.011 0 0.022 0 0.033 0 0.187 0 0.368 0.072 0.503 0.2l0.004 0.002c0.149 0.143 0.237 0.337 0.245 0.544 0 0.040 0 0.078-0.005 0.117z"></path>
<path fill="#fff" d="M28.879 20.923c-0.003-0.065-0.009-0.131-0.021-0.196-0.059-0.359-0.23-0.689-0.493-0.941l-0.022-0.020h-0.002c-0.057-0.052-0.118-0.101-0.181-0.144-0.023-0.015-0.045-0.030-0.068-0.045-0.078-0.047-0.16-0.088-0.244-0.122 0.246-0.316 0.372-0.719 0.354-1.12-0.018-0.429-0.194-0.836-0.504-1.136v-0.001l-0.021-0.021c-0.118-0.11-0.252-0.202-0.397-0.271-0.232-0.112-0.489-0.167-0.748-0.155-0.041 0.002-0.082 0.005-0.123 0.011-0.381 0.049-0.728 0.236-0.985 0.526v0l-0.017 0.018v0.002c-0.076 0.090-0.144 0.187-0.201 0.293-0.019 0.035-0.037 0.070-0.053 0.107-0.066 0.147-0.11 0.302-0.132 0.46-0.058-0.032-0.111-0.074-0.157-0.122-0.061-0.065-0.108-0.142-0.139-0.226l-0.002-0.012 0.002-0.013c0.006-0.015 0.009-0.029 0.014-0.042 0.006-0.027 0.013-0.056 0.017-0.084 0.015-0.095 0.014-0.198-0.031-0.285-0.014-0.032-0.036-0.062-0.064-0.089l-0.008-0.008c-0.124-0.108-0.303-0.085-0.445-0.027-0.068 0.027-0.134 0.062-0.195 0.104l-0.976-0.925 0.188-2.3c0.065-0.049 0.13-0.096 0.196-0.145 0.277-0.204 0.557-0.404 0.843-0.591 0.152-0.1 0.305-0.197 0.46-0.288 0.094-0.054 0.187-0.105 0.282-0.154 0.131-0.063 0.269-0.129 0.409-0.167 0.005 0.002 0.013 0.005 0.019 0.005 0.189 0.025 0.637 0.088 0.604 0.36-0.022 0.175-0.194 0.42-0.292 0.568-0.232 0.352-0.562 0.827-0.311 1.253-0.009 0.018-0.019 0.036-0.026 0.055-0.031 0.081 0.007 0.176 0.088 0.209 0.009 0.004 0.017 0.005 0.026 0.007 0.016 0.162 0.067 0.301 0.127 0.451 0.098 0.233 0.136 0.384 0.074 0.635-0.010 0.048 0.018 0.097 0.065 0.111 0.050 0.011 0.097-0.020 0.107-0.066 0.073-0.297 0.031-0.475-0.082-0.751-0.064-0.157-0.112-0.293-0.122-0.465 0.002-0.004 0.006-0.008 0.006-0.014 0.006-0.016 0.019-0.029 0.034-0.039 0.007 0.201 0.060 0.354 0.134 0.539 0.097 0.235 0.135 0.384 0.075 0.635-0.012 0.047 0.015 0.098 0.063 0.111s0.096-0.019 0.108-0.067c0.071-0.296 0.030-0.473-0.083-0.749-0.072-0.175-0.12-0.318-0.122-0.509 0.024-0.001 0.048-0.001 0.073-0.001 0.005 0.208 0.057 0.365 0.135 0.556 0.097 0.234 0.135 0.384 0.075 0.635-0.013 0.047 0.016 0.098 0.064 0.11s0.096-0.018 0.107-0.067c0.072-0.297 0.031-0.473-0.081-0.749-0.068-0.164-0.117-0.301-0.123-0.477 0.023 0.001 0.047 0.003 0.067 0.004 0.004 0.213 0.056 0.373 0.136 0.569 0.017 0.041 0.032 0.081 0.046 0.117 0.060 0.174 0.079 0.311 0.028 0.518-0.012 0.047 0.016 0.098 0.064 0.111s0.096-0.019 0.107-0.067c0.072-0.296 0.030-0.473-0.083-0.749-0.061-0.145-0.104-0.271-0.117-0.422-0.002-0.021-0.004-0.040-0.004-0.061h0.004l0.063 0.005c0.001 0.221 0.054 0.382 0.137 0.584 0.096 0.234 0.134 0.384 0.074 0.636-0.011 0.048 0.017 0.098 0.065 0.109 0.046 0.014 0.096-0.018 0.107-0.066 0.072-0.296 0.031-0.473-0.083-0.749-0.072-0.175-0.121-0.318-0.121-0.506 0.015 0 0.031 0 0.047 0 0.011 0.188 0.061 0.339 0.133 0.513 0.096 0.233 0.134 0.384 0.074 0.634-0.011 0.047 0.016 0.098 0.064 0.11 0.050 0.013 0.097-0.018 0.107-0.065 0.072-0.297 0.032-0.474-0.082-0.75-0.062-0.152-0.11-0.286-0.119-0.45 0.020-0.002 0.042-0.005 0.061-0.009 0.016 0.172 0.065 0.315 0.131 0.474 0.097 0.234 0.136 0.383 0.074 0.635-0.011 0.048 0.016 0.099 0.065 0.111 0.027 0.006 0.055 0 0.075-0.016 0.015-0.013 0.027-0.030 0.033-0.050 0.059-0.247 0.041-0.411-0.033-0.619-0.015-0.042-0.031-0.085-0.051-0.131-0.062-0.152-0.11-0.286-0.12-0.452 0.013-0.006 0.026-0.011 0.038-0.017 0.019 0.152 0.067 0.283 0.125 0.425l0.007 0.015c0.091 0.225 0.127 0.373 0.067 0.619-0.011 0.048 0.017 0.098 0.065 0.11s0.097-0.018 0.107-0.066c0.072-0.295 0.031-0.473-0.082-0.749-0.066-0.163-0.115-0.302-0.121-0.479 0.037-0.040 0.066-0.087 0.089-0.137 0.036-0.077 0.005-0.174-0.074-0.213-0.016-0.010-0.032-0.014-0.050-0.017-0.020-0.002-0.043 0-0.062 0.006-0.013-0.101 0.016-0.202 0.062-0.298 0.054-0.11 0.127-0.213 0.19-0.304 0.097-0.139 0.194-0.277 0.261-0.432 0.238-0.55-0.074-1.021-0.451-1.404l-0.006-0.007c-0.009-0.012-0.022-0.022-0.038-0.026-0.269-0.097-0.55-0.138-0.827-0.094-0.073 0.012-0.142 0.029-0.214 0.053-0.319 0.107-0.577 0.324-0.788 0.58-0.165 0.037-0.327 0.111-0.477 0.186-0.068 0.034-0.136 0.071-0.206 0.109l-0.027 0.015c-0.424 0.011-1.375 0.003-1.375 0.003l0.081-0.995h-3.363c-0.041-0.076-0.078-0.153-0.111-0.231l2.012-1.906 0.834 0.946c0.001 0.003 0.001 0.004 0.002 0.006 0.034 0.038 0.090 0.040 0.126 0.006l0.174-0.163 0.167-0.159c0.038-0.033 0.088-0.051 0.139-0.048 0.010 0.001 0.021 0.001 0.031 0.004h0.005c0.039 0.010 0.075 0.031 0.102 0.061l0.009 0.011c0.032 0.041 0.050 0.094 0.047 0.145v0.005c-0.003 0.053-0.025 0.103-0.064 0.141l-0.094 0.090-0.241 0.228-0.002 0.001c-0.036 0.035-0.038 0.092-0.006 0.128l1.007 1.144c0.033 0.039 0.089 0.041 0.125 0.006l1.399-1.324c0.037-0.034 0.038-0.090 0.006-0.129l-1.008-1.143c-0.032-0.038-0.090-0.040-0.126-0.006l-0.386 0.366c-0.038 0.034-0.089 0.051-0.141 0.049h-0.004c-0.052-0.004-0.098-0.028-0.133-0.066l-0.001-0.002-0.014-0.017c-0.028-0.040-0.043-0.088-0.042-0.137 0.005-0.054 0.026-0.106 0.065-0.144l0.382-0.365c0.037-0.034 0.040-0.091 0.007-0.127l-0.347-0.396-0.004-0.003c-0.034-0.041-0.052-0.096-0.050-0.15 0.004-0.053 0.025-0.105 0.064-0.144l0.020-0.017c0.037-0.028 0.080-0.042 0.125-0.042l0.004 0.001c0.053 0.003 0.102 0.025 0.138 0.061l0.351 0.401c0.031 0.034 0.082 0.040 0.117 0.013 0.005-0.001 0.007-0.005 0.010-0.008l0.388-0.366c0.038-0.033 0.088-0.050 0.141-0.048 0.010 0 0.019 0.001 0.029 0.004 0.042 0.008 0.078 0.030 0.107 0.061l0.015 0.019c0.029 0.040 0.043 0.089 0.040 0.138v0.005c-0.002 0.052-0.025 0.102-0.061 0.138l-0.003 0.003-0.38 0.36-0.004 0.002c-0.033 0.033-0.036 0.090-0.003 0.128l1.007 1.144c0.033 0.038 0.090 0.040 0.125 0.006l1.429-1.356c0.038-0.034 0.040-0.091 0.007-0.128l-1.006-1.144c-0.033-0.037-0.091-0.041-0.127-0.005l-0.029 0.029-0.305 0.287-0.014 0.011 0.001 0.001c-0.038 0.030-0.085 0.045-0.133 0.044h-0.004c-0.049-0.004-0.094-0.027-0.13-0.061h0.001l-0.011-0.014c-0.034-0.039-0.052-0.093-0.049-0.146s0.025-0.106 0.063-0.145l0.353-0.334-0.002-0.002c0.021-0.034 0.019-0.081-0.007-0.111l-0.841-0.954 0.153-0.145 0.017-0.014-0.002-0.002c0.038-0.042 0.058-0.098 0.063-0.155 0.002-0.065-0.019-0.129-0.061-0.177h-0.001l-0.203-0.231c-0.043-0.049-0.101-0.076-0.164-0.078-0.060-0.003-0.121 0.018-0.167 0.058l-0.007 0.006-5.289 5.011c-0.107-0.59-0.065-1.192 0.093-1.769l0.018-0.057h1.497c0.023 0 0.046-0.011 0.063-0.027 0.202-0.21 0.322-0.45 0.346-0.743 0.018-0.229-0.029-0.454-0.077-0.676-0.026-0.121-0.086-0.348-0.034-0.464 0.008-0.020 0.009-0.042 0.002-0.063-0.013-0.048-0.061-0.077-0.109-0.062-0.051 0.016-0.098 0.045-0.14 0.081 0 0 0 0-0.001 0.002-0.038-0.105-0.084-0.208-0.135-0.307 0.067-0.191 0.021-0.375-0.036-0.563-0.021-0.070-0.072-0.215-0.030-0.282 0.023-0.041-0.003-0.082-0.042-0.096-0.018-0.007-0.038-0.008-0.056-0.004-0.002 0.001-0.006 0.003-0.007 0.003-0.023 0.004-0.044 0.012-0.065 0.022-0.003 0.001-0.006 0.003-0.010 0.004-0.017-0.035-0.033-0.069-0.052-0.104v-0.081c0.041-0.183 0.002-0.358-0.043-0.536-0.020-0.075-0.065-0.224-0.029-0.296l0.009-0.028c0-0.007-0.002-0.015-0.005-0.021-0.011-0.037-0.054-0.054-0.088-0.045-0.040 0.011-0.077 0.029-0.108 0.054-0.006 0.004-0.012 0.008-0.018 0.014-0.005 0.006-0.011 0.011-0.016 0.016l-0.002 0.001-0.003 0.004c-0.027 0.028-0.051 0.061-0.067 0.096-0.004 0.007-0.006 0.014-0.011 0.021-0.017 0.043-0.026 0.088-0.028 0.134v0.012c0 0.016 0.002 0.031 0.004 0.046 0 0.001 0 0.002-0.001 0.003-0.138-0.317-0.333-0.605-0.58-0.841-0.048-0.045-0.097-0.089-0.149-0.132-0.104-0.083-0.214-0.158-0.333-0.224-0.072-0.039-0.147-0.076-0.222-0.106-0.014-0.050-0.037-0.094-0.066-0.135-0.075-0.109-0.191-0.189-0.315-0.24-0.039-0.017-0.079-0.031-0.119-0.042v-0.617h0.454v-0.622h-0.454v-0.47h-0.599v0.47h-0.453v0.622h0.453v0.617c-0.043 0.011-0.085 0.027-0.126 0.045-0.124 0.054-0.242 0.137-0.315 0.248-0.024 0.038-0.043 0.077-0.057 0.12-0.079 0.033-0.158 0.069-0.232 0.111-0.118 0.066-0.229 0.141-0.332 0.225-0.319 0.257-0.565 0.592-0.728 0.972 0-0.001-0.002-0.002-0.003-0.003 0.003-0.008 0.004-0.017 0.005-0.025l0.001-0.021c0-0.097-0.040-0.194-0.108-0.263-0.007-0.009-0.018-0.020-0.027-0.028-0.018-0.014-0.035-0.025-0.054-0.035-0.018-0.009-0.039-0.018-0.059-0.024l-0.008-0.003h-0.003c-0.014-0.003-0.029 0-0.043 0.004-0.036 0.015-0.054 0.055-0.037 0.091 0.038 0.071-0.007 0.22-0.027 0.296-0.046 0.178-0.085 0.353-0.043 0.536v0.081c-0.019 0.036-0.035 0.069-0.051 0.104-0.027-0.013-0.052-0.023-0.081-0.028-0.039-0.009-0.088 0.006-0.103 0.045-0.006 0.018-0.005 0.037 0.005 0.054 0.040 0.066-0.011 0.211-0.031 0.282-0.057 0.187-0.102 0.372-0.037 0.563-0.050 0.099-0.095 0.202-0.135 0.307-0.018-0.016-0.038-0.031-0.059-0.045-0.024-0.014-0.050-0.026-0.074-0.036h-0.005l-0.023-0.008-0.001 0.003c-0.014 0-0.028 0.002-0.039 0.010-0.046 0.020-0.065 0.074-0.045 0.119 0.052 0.116-0.007 0.343-0.034 0.464-0.050 0.222-0.092 0.447-0.075 0.674 0.023 0.29 0.142 0.531 0.341 0.74 0.018 0.019 0.042 0.031 0.068 0.031h1.498l0.017 0.057c0.158 0.577 0.199 1.18 0.093 1.769l-5.294-5.017c-0.046-0.039-0.107-0.062-0.169-0.059s-0.121 0.029-0.165 0.078l-0.001 0.002-0.213 0.241v0.001c-0.035 0.047-0.053 0.106-0.050 0.165s0.025 0.115 0.063 0.158l-0.002 0.001 0.018 0.014 0.151 0.145-0.839 0.954c-0.028 0.033-0.028 0.085-0.001 0.12l0.348 0.33c0.037 0.037 0.056 0.087 0.059 0.14v0.001c0.002 0.052-0.014 0.106-0.050 0.146l-0.009 0.012c-0.033 0.035-0.077 0.058-0.127 0.061l-0.007 0.003c-0.053 0.001-0.101-0.016-0.14-0.049l-0.311-0.294-0.030-0.029c-0.036-0.035-0.093-0.032-0.126 0.005l-1.006 1.144c-0.032 0.037-0.031 0.094 0.005 0.128l1.43 1.356c0.036 0.034 0.092 0.032 0.125-0.007l1.009-1.143c0.032-0.038 0.030-0.095-0.007-0.128l-0.379-0.36-0.006-0.008c-0.037-0.037-0.058-0.086-0.059-0.137v-0.004c-0.004-0.049 0.010-0.098 0.040-0.138l0.011-0.014 0.002-0.002 0.001-0.001c0.028-0.033 0.066-0.052 0.107-0.062 0.012-0.001 0.020-0.004 0.032-0.004 0.051-0.001 0.099 0.015 0.139 0.048l0.388 0.367c0.003 0.003 0.006 0.007 0.009 0.008 0.037 0.027 0.088 0.021 0.116-0.013l0.347-0.394 0.006-0.007c0.035-0.037 0.083-0.059 0.135-0.061l0.005-0.001c0.047 0 0.097 0.018 0.134 0.049l0.014 0.013c0.036 0.037 0.057 0.088 0.059 0.14 0.002 0.054-0.015 0.107-0.049 0.148l-0.352 0.401c-0.034 0.036-0.030 0.093 0.006 0.127l0.38 0.361 0.008 0.006c0.037 0.039 0.058 0.089 0.059 0.141 0.002 0.053-0.014 0.107-0.049 0.149l-0.011 0.011c-0.033 0.035-0.080 0.056-0.129 0.061h-0.004c-0.051 0.001-0.102-0.015-0.14-0.050l-0.006-0.004-0.38-0.361c-0.037-0.034-0.094-0.032-0.128 0.006l-1.006 1.144c-0.032 0.037-0.030 0.093 0.006 0.127l1.398 1.324c0.036 0.035 0.094 0.033 0.126-0.006l1.005-1.144c0.034-0.037 0.032-0.093-0.005-0.128l-0.334-0.315-0.004-0.004c-0.036-0.035-0.058-0.084-0.061-0.136v-0.009c-0.002-0.051 0.013-0.104 0.045-0.144l0.011-0.014c0.029-0.029 0.065-0.050 0.107-0.058 0.009-0.003 0.019-0.003 0.030-0.004 0.052-0.003 0.103 0.015 0.142 0.049l0.165 0.159 0.175 0.163c0.036 0.034 0.092 0.032 0.126-0.006 0.001-0.002 0.003-0.003 0.005-0.006l0.831-0.946 2.012 1.906c-0.034 0.078-0.072 0.155-0.111 0.231h-3.365l0.081 0.995c-0.135 0.004-1.052 0.005-1.375-0.003l-0.027-0.016c-0.068-0.037-0.135-0.074-0.204-0.108-0.149-0.076-0.314-0.149-0.478-0.186-0.21-0.256-0.469-0.473-0.787-0.58-0.069-0.025-0.142-0.041-0.214-0.053-0.152-0.025-0.305-0.023-0.459-0.001-0.124 0.018-0.247 0.051-0.369 0.095-0.014 0.005-0.028 0.014-0.038 0.027-0.378 0.384-0.695 0.857-0.456 1.409 0.032 0.070 0.068 0.138 0.107 0.203 0.048 0.078 0.101 0.154 0.153 0.23 0.117 0.17 0.279 0.385 0.252 0.602-0.037-0.011-0.077-0.008-0.113 0.010-0.077 0.039-0.108 0.135-0.073 0.213 0.023 0.050 0.052 0.097 0.090 0.137-0.007 0.176-0.055 0.316-0.12 0.479-0.116 0.276-0.156 0.454-0.084 0.749 0.011 0.048 0.059 0.079 0.107 0.066s0.076-0.062 0.065-0.11c-0.062-0.252-0.023-0.402 0.075-0.635 0.057-0.142 0.106-0.273 0.124-0.425 0.013 0.006 0.026 0.011 0.038 0.017-0.009 0.166-0.056 0.3-0.12 0.452-0.113 0.276-0.155 0.453-0.082 0.75 0.013 0.047 0.059 0.079 0.107 0.067 0.047-0.012 0.076-0.063 0.064-0.111-0.061-0.252-0.020-0.401 0.074-0.635 0.068-0.159 0.117-0.303 0.131-0.474 0.021 0.004 0.042 0.007 0.060 0.009-0.008 0.164-0.056 0.298-0.118 0.45-0.115 0.276-0.155 0.454-0.084 0.75 0.013 0.048 0.059 0.079 0.109 0.065 0.046-0.012 0.076-0.062 0.064-0.11-0.052-0.214-0.031-0.355 0.036-0.537 0.011-0.032 0.024-0.065 0.038-0.098 0.072-0.173 0.123-0.324 0.134-0.513 0.016 0 0.031 0 0.046 0-0 0.188-0.049 0.331-0.121 0.506-0.045 0.106-0.077 0.199-0.097 0.288-0.028 0.126-0.030 0.246 0 0.397 0.003 0.022 0.008 0.043 0.014 0.064 0.012 0.049 0.061 0.080 0.108 0.066 0.046-0.012 0.074-0.061 0.063-0.109-0.060-0.252-0.022-0.401 0.074-0.636 0.084-0.202 0.135-0.364 0.136-0.584l0.063-0.005h0.005c0 0.022-0.002 0.041-0.005 0.062-0.012 0.15-0.056 0.276-0.118 0.421-0.112 0.276-0.153 0.454-0.082 0.749 0.012 0.049 0.059 0.079 0.107 0.067s0.076-0.063 0.064-0.111c-0.048-0.206-0.033-0.344 0.028-0.518 0.015-0.036 0.031-0.075 0.045-0.117 0.082-0.196 0.133-0.356 0.136-0.569 0.023-0.001 0.044-0.003 0.069-0.004-0.007 0.176-0.054 0.313-0.12 0.477-0.115 0.276-0.155 0.453-0.085 0.749 0.013 0.049 0.061 0.079 0.109 0.067 0.047-0.013 0.075-0.064 0.063-0.11-0.060-0.252-0.021-0.402 0.075-0.635 0.079-0.191 0.131-0.348 0.136-0.556 0.024 0 0.049 0 0.073 0.003-0.001 0.19-0.049 0.332-0.121 0.507-0.114 0.277-0.155 0.454-0.083 0.749 0.011 0.050 0.059 0.079 0.108 0.067 0.047-0.012 0.075-0.063 0.064-0.111-0.061-0.251-0.023-0.401 0.074-0.635 0.076-0.185 0.128-0.338 0.135-0.539 0.016 0.010 0.028 0.023 0.035 0.039 0.001 0.006 0.002 0.010 0.004 0.014-0.008 0.172-0.054 0.309-0.121 0.465-0.112 0.275-0.153 0.454-0.082 0.751 0.010 0.046 0.059 0.077 0.107 0.066 0.048-0.014 0.076-0.063 0.064-0.111-0.060-0.251-0.021-0.402 0.075-0.635 0.062-0.15 0.111-0.289 0.13-0.451 0.008-0.002 0.017-0.004 0.024-0.007 0.082-0.033 0.119-0.128 0.088-0.209-0.008-0.019-0.015-0.037-0.025-0.055 0.252-0.427-0.079-0.901-0.312-1.254-0.098-0.148-0.268-0.394-0.292-0.568-0.035-0.272 0.416-0.335 0.604-0.36 0.006 0 0.011-0.003 0.018-0.005 0.14 0.039 0.278 0.104 0.409 0.167 0.095 0.049 0.189 0.1 0.281 0.154 0.157 0.091 0.31 0.189 0.46 0.288 0.181 0.119 0.36 0.242 0.537 0.367 0.17 0.121 0.338 0.244 0.504 0.369l0.146 1.8 0.042 0.5-0.042 0.040-0.649 0.617-0.284 0.268c-0.061-0.041-0.127-0.077-0.197-0.104-0.144-0.059-0.325-0.083-0.449 0.032l-0.001 0.002h-0.002c-0.027 0.026-0.048 0.057-0.065 0.091-0.041 0.086-0.044 0.189-0.031 0.283 0.005 0.028 0.011 0.057 0.018 0.084 0.004 0.013 0.009 0.028 0.012 0.042l0.005 0.013-0.005 0.012c-0.031 0.084-0.076 0.161-0.139 0.226-0.045 0.048-0.099 0.089-0.155 0.122-0.022-0.158-0.067-0.314-0.132-0.46-0.018-0.037-0.035-0.072-0.054-0.107-0.060-0.11-0.129-0.213-0.212-0.306l-0.003-0.004v-0l-0.003-0.003c-0.258-0.29-0.604-0.477-0.986-0.526-0.040-0.006-0.080-0.010-0.122-0.011-0.111-0.004-0.226 0.003-0.337 0.022-0.3 0.053-0.583 0.194-0.807 0.402v0l-0.026 0.023 0.003 0.001c-0.308 0.299-0.485 0.706-0.504 1.134-0.018 0.401 0.107 0.804 0.356 1.12-0.086 0.033-0.168 0.074-0.245 0.122-0.024 0.015-0.047 0.029-0.069 0.045-0.068 0.046-0.132 0.097-0.192 0.154l-0.022 0.020h0.001c-0.259 0.25-0.426 0.576-0.484 0.931-0.011 0.068-0.018 0.137-0.021 0.206-0.019 0.431 0.128 0.865 0.414 1.192l0.018 0.021 0.001-0.002c0.282 0.313 0.67 0.503 1.093 0.523 0.164 0.008 0.328-0.011 0.484-0.056 0.163-0.045 0.318-0.116 0.459-0.211 0.072-0.048 0.143-0.102 0.205-0.163l0.011-0.009c0.129-0.125 0.239-0.27 0.323-0.431 0.011-0.020 0.020-0.040 0.029-0.060 0.295 0.294 0.7 0.468 1.116 0.468 0.023 0 0.047 0 0.071-0.001 0.089-0.005 0.177-0.017 0.264-0.036 0.246-0.054 0.471-0.165 0.662-0.324 0.027-0.022 0.052-0.046 0.080-0.070l0.011-0.010c0.261-0.251 0.432-0.581 0.492-0.939 0.009-0.068 0.017-0.136 0.019-0.206 0.019-0.432-0.128-0.864-0.413-1.19l-0.009-0.011c-0.056-0.062-0.118-0.121-0.18-0.173-0.137-0.112-0.291-0.203-0.46-0.264-0.046-0.018-0.094-0.033-0.142-0.045-0.006-0.002-0.013-0.004-0.020-0.005 0.038-0.056 0.081-0.107 0.133-0.152 0.070-0.060 0.151-0.101 0.24-0.126 0.078 0.036 0.163 0.064 0.25 0.067 0.011 0 0.022 0 0.034 0 0.018 0 0.039-0.003 0.057-0.006 0.052-0.009 0.1-0.029 0.141-0.063l0.003 0.004 0.016-0.019 0.005-0.005c0.118-0.118 0.11-0.307 0.068-0.457-0.020-0.073-0.049-0.145-0.083-0.213l0.408-0.388 0.124-0.116 0.241 2.942c0.011 0.141 0.039 0.277 0.085 0.412 0.282 0.822 1.162 1.475 2.032 1.729 0.254 0.075 0.508 0.114 0.745 0.114h2.893c0.020 0 0.039 0 0.061 0 0.219-0.007 0.452-0.047 0.683-0.114 1.012-0.293 2.036-1.13 2.119-2.141l0.24-2.942 0.534 0.505c-0.028 0.050-0.049 0.105-0.068 0.159-0.007 0.019-0.012 0.036-0.017 0.054-0.033 0.123-0.045 0.27 0.017 0.385 0.011 0.023 0.026 0.044 0.045 0.063l-0.004 0.003 0.021 0.014 0.003 0.004c0.044 0.038 0.095 0.061 0.151 0.072 0.020 0.003 0.038 0.006 0.059 0.006 0.097 0.004 0.195-0.027 0.282-0.067 0.089 0.025 0.17 0.066 0.241 0.126 0.051 0.045 0.097 0.095 0.132 0.152-0.005 0.001-0.012 0.004-0.019 0.005-0.047 0.012-0.096 0.027-0.142 0.045-0.249 0.090-0.468 0.242-0.641 0.441l-0.011 0.011c-0.043 0.049-0.081 0.1-0.117 0.152-0.208 0.303-0.311 0.67-0.294 1.036l0.001 0.010c0.002 0.066 0.010 0.132 0.019 0.196 0.041 0.246 0.133 0.479 0.274 0.681 0.064 0.094 0.137 0.182 0.223 0.26l0.009 0.011c0.208 0.194 0.459 0.33 0.737 0.391 0.088 0.019 0.175 0.031 0.266 0.036 0.024 0.001 0.046 0.001 0.069 0.001 0.417 0 0.823-0.174 1.116-0.468 0.010 0.020 0.020 0.040 0.029 0.060 0.082 0.156 0.187 0.297 0.312 0.42l-0.003 0.003 0.024 0.018c0.065 0.060 0.133 0.114 0.207 0.163 0.256 0.172 0.56 0.268 0.871 0.268 0.025 0 0.048 0 0.073-0.001 0.421-0.020 0.809-0.209 1.092-0.52l0.001 0.002 0.017-0.022 0.007-0.006c0.284-0.327 0.431-0.758 0.41-1.188l-0.002-0.010zM27.228 14.681c0.009-0.021 0.033-0.030 0.053-0.021l0.001 0c0.021 0.011 0.029 0.036 0.020 0.057-0.007 0.014-0.014 0.028-0.021 0.040-0.164 0.275-0.573 0.25-0.871 0.224l-0.095-0.008c-0.138-0.010-0.282-0.024-0.421-0.017-0.115 0.007-0.255 0.034-0.302 0.155-0.009 0.021-0.032 0.032-0.053 0.023-0.020-0.008-0.031-0.034-0.022-0.054 0.008-0.025 0.019-0.048 0.035-0.069 0.007-0.005 0.013-0.009 0.018-0.014 0.158-0.157 0.549-0.11 0.751-0.094h0.005l0.084 0.007c0.266 0.023 0.681 0.049 0.804-0.201 0.005-0.009 0.010-0.019 0.014-0.029zM26.249 12.206c0.054-0.017 0.107-0.031 0.16-0.041 0.251-0.047 0.507-0.011 0.751 0.075 0.042 0.041 0.082 0.085 0.12 0.13 0.269 0.309 0.458 0.675 0.274 1.092-0.026 0.059-0.057 0.114-0.090 0.169-0.043 0.070-0.090 0.138-0.137 0.206l-0.047 0.066c-0.154 0.223-0.295 0.459-0.223 0.739-0.086 0.139-0.451 0.114-0.648 0.097l-0.073-0.007h-0.004c-0.238-0.019-0.569-0.054-0.785 0.070-0.106-0.316 0.18-0.72 0.345-0.971 0.118-0.18 0.293-0.429 0.321-0.646 0.044-0.358-0.31-0.483-0.596-0.537 0.174-0.194 0.384-0.355 0.631-0.441zM23.309 13.109l0.112 0.003c0.321 0.007 0.643 0.007 0.963 0.001-0.329 0.207-0.648 0.43-0.963 0.66-0.060 0.042-0.117 0.086-0.178 0.131l0.065-0.794zM11.271 15.135c-0.019 0.009-0.044-0.002-0.052-0.023-0.046-0.121-0.187-0.148-0.301-0.155-0.14-0.008-0.283 0.006-0.421 0.017l-0.095 0.008c-0.141 0.012-0.305 0.023-0.459 0.004-0.185-0.025-0.351-0.094-0.431-0.268-0.011-0.021-0.002-0.047 0.018-0.057 0.022-0.010 0.045-0 0.054 0.021 0.005 0.010 0.010 0.020 0.015 0.029 0.061 0.124 0.194 0.18 0.344 0.203 0.153 0.023 0.326 0.009 0.459-0.002l0.086-0.007h0.002c0.204-0.016 0.595-0.064 0.752 0.094 0.006 0.005 0.011 0.009 0.018 0.014 0.017 0.020 0.027 0.043 0.037 0.069 0.008 0.020-0.003 0.046-0.025 0.054zM10.597 13.183c0.026 0.217 0.202 0.466 0.32 0.646 0.166 0.251 0.452 0.655 0.347 0.971-0.217-0.124-0.548-0.089-0.787-0.070h-0.004l-0.072 0.007c-0.122 0.010-0.313 0.024-0.459 0-0.086-0.016-0.155-0.045-0.187-0.097 0.079-0.309-0.103-0.564-0.271-0.805-0.084-0.119-0.168-0.242-0.227-0.375-0.212-0.479 0.067-0.889 0.395-1.222 0.094-0.034 0.192-0.059 0.29-0.076 0.153-0.025 0.307-0.027 0.459 0.001 0.055 0.010 0.107 0.024 0.16 0.041 0.249 0.085 0.458 0.246 0.632 0.44-0.287 0.054-0.642 0.179-0.596 0.537zM13.082 13.551c-0.215-0.15-0.433-0.299-0.656-0.438 0.218 0.004 0.436 0.005 0.656 0.004 0.139-0.001 0.28-0.004 0.42-0.007l0.064 0.793c-0.16-0.119-0.321-0.237-0.484-0.352zM25.981 7.593l-0.286 0.27v0.001c-0.065 0.070-0.102 0.161-0.107 0.257v0.001c-0.004 0.101 0.031 0.201 0.095 0.278l0.015 0.020 0.002-0.001c0.066 0.068 0.154 0.108 0.251 0.112 0.097 0.006 0.193-0.030 0.266-0.095l0.006-0.006 0.186-0.174 0.083-0.080 0.889 1.009-1.299 1.23-0.89-1.008 0.33-0.313v-0.001c0.062-0.064 0.1-0.147 0.109-0.236h0.001l0.001-0.025c0.005-0.099-0.028-0.199-0.092-0.275l-0.014-0.017c-0.054-0.057-0.122-0.096-0.199-0.112-0.019-0.003-0.038-0.005-0.056-0.006-0.1-0.006-0.195 0.029-0.269 0.095l-0.278 0.262-0.044 0.043-0.302-0.343-0.002 0.002c-0.066-0.068-0.153-0.109-0.249-0.112-0.003 0-0.004 0-0.007 0-0.093-0.003-0.187 0.033-0.258 0.095l-0.023 0.022h0.001c-0.068 0.070-0.105 0.163-0.109 0.259-0.006 0.096 0.025 0.193 0.085 0.27v0l0.301 0.342-0.332 0.314v0.001c-0.065 0.069-0.104 0.16-0.106 0.257l-0.001 0.003c-0.005 0.099 0.029 0.199 0.091 0.274l0.012 0.014c0.068 0.072 0.159 0.116 0.258 0.121 0.098 0.004 0.194-0.031 0.267-0.095l0.008-0.007 0.316-0.298 0.092 0.107 0.795 0.9-1.268 1.201-0.888-1.009 0.057-0.053 0.226-0.214v-0.001c0.067-0.069 0.106-0.162 0.111-0.259 0.003-0.096-0.028-0.193-0.088-0.27v0l-0.018-0.020c-0.052-0.057-0.122-0.098-0.2-0.114-0.011-0.001-0.020-0.004-0.031-0.005-0.009-0.001-0.017-0.002-0.027-0.002-0.095-0.006-0.19 0.028-0.261 0.090v0l-0.053 0.051-0.228 0.216-0.778-0.884 3.131-2.965 0.777 0.884zM25.085 5.976c0.011-0.009 0.025-0.014 0.040-0.014 0.016 0.001 0.032 0.007 0.041 0.018l0.205 0.235c0.009 0.012 0.015 0.028 0.015 0.044 0 0.015-0.007 0.032-0.018 0.043l-5.945 5.63h-0.627l6.289-5.956zM19.842 11.932h-0.154l0.076-0.072 0.030-0.030c0.016 0.035 0.032 0.068 0.048 0.102zM18.652 11.821l-0.117 0.112h-0.258l-0.118-0.112c0.235-0.854 0.148-1.7-0.175-2.502-0.039-0.098-0.081-0.193-0.128-0.289h1.1c-0.047 0.096-0.089 0.193-0.128 0.289-0.324 0.802-0.41 1.648-0.175 2.502zM17.228 9.030h0.448c0.131 0.265 0.235 0.535 0.309 0.813 0.159 0.597 0.182 1.218 0.028 1.839l-0.028-0.027-0.315-0.298-0.378-0.358c0.136-0.645 0.104-1.333-0.064-1.97zM18.827 9.843c0.075-0.278 0.177-0.548 0.308-0.813h0.451c-0.169 0.637-0.2 1.324-0.066 1.97l-0.692 0.656-0.027 0.027c-0.154-0.619-0.133-1.241 0.027-1.839zM20.443 5.645c0.003-0.002 0.005-0.003 0.007-0.005 0.064-0.053 0.079-0.155 0.079-0.235v-0.013c0-0.037 0.005-0.077 0.024-0.108 0.013-0.018 0.027-0.033 0.043-0.047 0.009-0.007 0.018-0.014 0.028-0.019 0.026-0.018 0.038-0.052 0.022-0.082v-0.001l-0.002-0.004c-0.002-0.002 0.001 0-0.002-0.002l-0.001-0.003-0.001-0.004c-0.004-0.008-0.006-0.018-0.006-0.027v-0.004c0.001-0.033 0.008-0.064 0.020-0.093 0.002-0.005 0.004-0.010 0.007-0.016s0.004-0.011 0.009-0.016c0.007 0.067 0.026 0.133 0.042 0.197 0.042 0.163 0.082 0.328 0.038 0.495h-0.324c0.007-0.004 0.012-0.008 0.018-0.013zM17.834 2.623v-0.257h0.454v-0.469h0.244v0.469h0.453v0.257h-0.453v0.766c-0.040-0.004-0.081-0.007-0.121-0.007h-0.001c-0.041 0-0.082 0.003-0.122 0.007v-0.766h-0.453zM17.984 3.667c0.13-0.071 0.291-0.101 0.425-0.101h0.001c0.133 0 0.29 0.029 0.417 0.097 0.046 0.024 0.088 0.053 0.124 0.090-0.042-0.011-0.082-0.021-0.124-0.030-0.137-0.027-0.276-0.043-0.417-0.043h-0.004c-0.142 0-0.284 0.015-0.422 0.043-0.039 0.008-0.076 0.016-0.113 0.027 0.032-0.034 0.072-0.061 0.113-0.083zM17.047 4.41c0.183-0.168 0.392-0.306 0.622-0.401 0.102-0.042 0.206-0.075 0.315-0.099 0.134-0.031 0.275-0.047 0.422-0.047h0.004c0.143 0 0.282 0.016 0.417 0.047 0.107 0.024 0.214 0.057 0.315 0.099 0.228 0.095 0.441 0.233 0.621 0.401 0.053 0.049 0.102 0.1 0.149 0.152 0.203 0.228 0.364 0.496 0.472 0.789-0.001 0.014-0.001 0.027-0.001 0.041v0.020c0 0.038-0.006 0.103-0.031 0.129-0.034-0.030-0.040-0.108-0.038-0.149v0c0-0.082-0.031-0.158-0.084-0.22-0.009-0.010-0.018-0.021-0.028-0.029 0.001-0.009 0.003-0.019 0.004-0.027h0.001v-0.021c0-0.094-0.063-0.153-0.128-0.211-0.018-0.013-0.068-0.056-0.070-0.078-0.001-0.038-0.035-0.064-0.069-0.065-0.009 0-0.017 0.001-0.027 0.004-0.025 0.008-0.048 0.031-0.049 0.061 0 0.022-0.052 0.064-0.069 0.078-0.010 0.011-0.021 0.020-0.031 0.029-0.051 0.048-0.099 0.104-0.099 0.182 0 0.016 0.002 0.032 0.006 0.049-0.021 0.018-0.041 0.041-0.056 0.065-0.005 0.007-0.010 0.015-0.014 0.022-0.028 0.050-0.041 0.103-0.041 0.158v0.013c0 0.053-0.018 0.108-0.069 0.132v0c-0.016 0.006-0.032 0.011-0.047 0.011s-0.030-0.003-0.047-0.010c-0.048-0.023-0.066-0.074-0.066-0.126 0-0.005 0-0.012 0-0.017 0-0.080-0.031-0.157-0.083-0.218-0.009-0.010-0.018-0.021-0.028-0.029 0.003-0.016 0.006-0.033 0.006-0.049v0c0-0.071-0.037-0.121-0.083-0.167-0.015-0.014-0.031-0.030-0.048-0.044-0.017-0.013-0.069-0.056-0.069-0.078-0.003-0.038-0.035-0.064-0.070-0.065-0.038 0-0.075 0.026-0.075 0.065-0.002 0.017-0.032 0.046-0.053 0.064l-0.015 0.013c-0.066 0.058-0.131 0.117-0.131 0.211 0 0.016 0 0.032 0.005 0.049-0.022 0.018-0.040 0.041-0.055 0.065-0.006 0.007-0.011 0.015-0.014 0.022-0.028 0.050-0.041 0.102-0.041 0.158l-0.004 0.014 0.004 0.002c-0.004 0.058-0.036 0.102-0.089 0.122-0.025 0.008-0.049 0.013-0.075 0.013h-0.001c-0.027 0-0.051-0.004-0.074-0.013-0.062-0.021-0.101-0.069-0.101-0.135 0-0.080-0.030-0.157-0.082-0.218-0.007-0.010-0.018-0.021-0.029-0.029 0.001-0.009 0.005-0.019 0.005-0.027h0.001v-0.021c0-0.094-0.066-0.153-0.132-0.211l-0.015-0.013c-0.022-0.018-0.052-0.047-0.054-0.064-0.001-0.038-0.034-0.064-0.069-0.065-0.037 0-0.073 0.026-0.076 0.065 0 0.022-0.052 0.064-0.069 0.078-0.016 0.015-0.033 0.030-0.048 0.044-0.045 0.046-0.082 0.096-0.082 0.167 0 0.016 0.002 0.032 0.007 0.049-0.022 0.019-0.041 0.041-0.058 0.065-0.004 0.007-0.009 0.015-0.015 0.022-0.027 0.050-0.040 0.105-0.040 0.162v0.016c0 0.051-0.020 0.103-0.068 0.127-0.014 0.006-0.030 0.009-0.046 0.009s-0.032-0.005-0.045-0.010c-0.053-0.024-0.070-0.080-0.069-0.134v-0.008c0-0.082-0.031-0.158-0.085-0.22-0.009-0.010-0.018-0.021-0.028-0.029 0.003-0.009 0.004-0.019 0.005-0.027h0.001v-0.021c0-0.078-0.045-0.134-0.099-0.182-0.010-0.009-0.022-0.018-0.033-0.029-0.015-0.013-0.066-0.056-0.067-0.078-0.003-0.038-0.035-0.064-0.072-0.065-0.036 0-0.073 0.026-0.074 0.065 0 0.022-0.052 0.064-0.069 0.078-0.064 0.058-0.131 0.117-0.131 0.211 0 0.016 0.002 0.032 0.006 0.049-0.020 0.018-0.039 0.041-0.056 0.065-0.004 0.007-0.010 0.015-0.012 0.022-0.028 0.050-0.045 0.105-0.045 0.161v0.005c0 0.041-0.005 0.115-0.036 0.143-0.026-0.027-0.031-0.098-0.031-0.134v-0.008c0-0.002 0-0.004 0-0.005 0-0.014 0-0.027-0.002-0.041 0.134-0.359 0.348-0.684 0.622-0.94zM19.705 5.396v-0.010c0-0.034 0.008-0.065 0.026-0.094 0.002-0.004 0.006-0.009 0.009-0.013 0.007-0.013 0.016-0.023 0.024-0.033 0.011-0.011 0.023-0.020 0.035-0.029 0.028-0.018 0.039-0.054 0.021-0.085l-0.001-0.002-0.002-0.002-0.001-0.003-0.001-0.004c-0.003-0.008-0.006-0.018-0.006-0.027 0-0.042 0.058-0.088 0.085-0.113l0.018-0.016c0.009-0.007 0.017-0.015 0.022-0.022 0.015 0.012 0.027 0.025 0.043 0.038 0.028 0.024 0.085 0.071 0.085 0.113v0c0 0.007-0.001 0.014-0.003 0.020v0.004c-0.003 0.005-0.005 0.011-0.008 0.014-0.018 0.032-0.004 0.067 0.024 0.086 0.008 0.005 0.014 0.011 0.021 0.016 0.008 0.006 0.014 0.013 0.021 0.020 0.033 0.038 0.052 0.084 0.052 0.135-0.001 0.087 0.019 0.196 0.089 0.252 0.008 0.005 0.017 0.011 0.024 0.016h-0.737c0.001-0.001 0.006-0.003 0.011-0.005l0.004-0.002c0.099-0.048 0.145-0.145 0.145-0.254v-0.002zM18.838 5.138v-0.005l-0.005-0.002v-0.002l-0.002-0.003v-0.002l-0.001-0.002c-0.001-0.003-0.003-0.009-0.003-0.015-0.001-0.004-0.001-0.008-0.001-0.012s0-0.006 0.001-0.011c0.009-0.038 0.056-0.080 0.084-0.102 0.014-0.012 0.027-0.026 0.040-0.038 0.014 0.012 0.027 0.025 0.042 0.038 0.028 0.024 0.084 0.071 0.084 0.113v0.006c0 0.004-0.001 0.009-0.002 0.015l-0.002 0.004c-0.001 0.005-0.003 0.011-0.006 0.014-0.018 0.032-0.005 0.067 0.025 0.086 0.008 0.005 0.014 0.011 0.020 0.016s0.014 0.013 0.020 0.020c0.002 0.003 0.006 0.006 0.008 0.009 0.028 0.036 0.043 0.080 0.043 0.125 0 0.003 0 0.006 0 0.011-0.001 0.005 0 0.005 0 0.009 0 0.105 0.049 0.199 0.15 0.244 0.002 0.001 0.006 0.002 0.008 0.004h-0.829c0.009-0.003 0.017-0.005 0.026-0.009 0.114-0.045 0.183-0.136 0.18-0.259v0c0-0.035 0.009-0.069 0.026-0.099 0.003-0.004 0.005-0.008 0.009-0.013 0.016-0.025 0.036-0.045 0.060-0.061 0.005-0.003 0.010-0.006 0.013-0.010 0.018-0.019 0.022-0.045 0.011-0.069zM17.625 5.39c0-0.035 0.009-0.068 0.026-0.098 0.003-0.005 0.006-0.010 0.008-0.015 0.003-0.004 0.006-0.009 0.009-0.012 0.015-0.019 0.032-0.035 0.052-0.048 0.028-0.019 0.038-0.056 0.022-0.085l-0.001-0.002c-0.001-0-0.001-0.001-0.003-0.004v-0.001c0-0.001 0-0.002-0.001-0.004-0.004-0.008-0.006-0.018-0.006-0.027 0-0.042 0.058-0.088 0.087-0.113 0.011-0.013 0.027-0.026 0.040-0.038 0.014 0.012 0.027 0.026 0.042 0.038 0.026 0.022 0.075 0.064 0.084 0.102 0.001 0.005 0.001 0.007 0.001 0.011v0.003c0 0.004-0.001 0.007-0.001 0.011v0.002l-0.004 0.008v0.003c-0.001 0.003-0.004 0.008-0.005 0.011-0.014 0.026-0.009 0.054 0.009 0.074 0.004 0.004 0.009 0.008 0.015 0.012s0.014 0.011 0.019 0.016c0.008 0.006 0.016 0.013 0.021 0.020 0.032 0.038 0.052 0.084 0.052 0.136 0.002 0.124 0.075 0.218 0.192 0.26 0.007 0.002 0.014 0.004 0.022 0.006h-0.838c0.001-0.001 0.004-0.003 0.009-0.004 0.1-0.045 0.15-0.142 0.15-0.25v-0.010l-0.001-0.005zM16.757 5.133c-0.002-0.005 0.001 0.001-0.002-0.004v-0.003c0-0.001-0.002-0.002-0.002-0.003-0.003-0.010-0.004-0.019-0.004-0.028 0-0.042 0.055-0.088 0.085-0.113 0.014-0.013 0.027-0.026 0.041-0.038 0.014 0.012 0.028 0.025 0.042 0.038 0.027 0.024 0.084 0.071 0.084 0.113v0.004c0 0.005-0.001 0.010-0.003 0.015l-0.003 0.008c0 0.003-0.003 0.008-0.004 0.011-0.018 0.030-0.005 0.067 0.024 0.085 0.007 0.005 0.013 0.011 0.022 0.017 0.002 0.004 0.007 0.008 0.011 0.011s0.006 0.006 0.009 0.010c0.033 0.038 0.050 0.084 0.051 0.135l-0.001 0.005v0.004c0 0.108 0.048 0.207 0.151 0.254 0.003 0.002 0.007 0.003 0.010 0.005h-0.738c0.006-0.005 0.014-0.011 0.021-0.016 0.069-0.055 0.091-0.161 0.091-0.246v-0.015c0-0.031 0.008-0.062 0.024-0.090 0.004-0.004 0.007-0.009 0.010-0.013 0.015-0.025 0.036-0.045 0.060-0.061 0.029-0.019 0.039-0.056 0.020-0.085zM16.097 5.163c0.017-0.065 0.036-0.131 0.043-0.199 0.024 0.040 0.035 0.085 0.035 0.13v0.004c-0 0.005-0 0.010-0.002 0.015l-0.002 0.005v0.003c-0.004 0.004-0.005 0.008-0.006 0.011-0.018 0.032-0.006 0.067 0.023 0.086 0.008 0.005 0.017 0.011 0.024 0.017 0.017 0.014 0.034 0.028 0.044 0.047 0.019 0.031 0.024 0.071 0.024 0.108 0 0.002 0.001 0 0.001 0.002l-0.001 0.009v0.001c-0.001 0.081 0.017 0.187 0.085 0.242 0.007 0.005 0.013 0.009 0.021 0.013h-0.326c-0.045-0.167-0.005-0.332 0.036-0.495zM16.104 5.776h4.603c0.038 0.065 0.073 0.132 0.101 0.2-0.039 0.056-0.063 0.125-0.063 0.196v0.022h0.001c0 0.007 0.001 0.014 0.004 0.021-0.028 0.021-0.056 0.044-0.076 0.072-0.024 0.036-0.039 0.075-0.045 0.116-0.008-0.031-0.017-0.059-0.033-0.085-0.003-0.006-0.006-0.011-0.010-0.018l-0.002-0.002c-0.005-0.007-0.009-0.013-0.015-0.019-0.017-0.023-0.037-0.043-0.060-0.062 0.004-0.013 0.006-0.030 0.006-0.044 0-0.096-0.080-0.156-0.149-0.208-0.014-0.011-0.073-0.055-0.074-0.073-0.003-0.044-0.048-0.068-0.089-0.068-0.037 0.002-0.080 0.027-0.081 0.068-0.001 0.018-0.061 0.062-0.076 0.073-0.052 0.038-0.107 0.081-0.134 0.138-0.010 0.022-0.016 0.045-0.016 0.070v0.022h0.004c0 0.007 0.001 0.014 0.002 0.022-0.010 0.008-0.019 0.018-0.030 0.027l-0.002 0.003c-0.057 0.057-0.092 0.13-0.094 0.211v0.004c0 0.031-0.003 0.081-0.015 0.123-0.003 0.014-0.008 0.028-0.015 0.039-0.025-0.040-0.030-0.111-0.031-0.154v-0.030c-0.005-0.049-0.021-0.095-0.048-0.137-0.006-0.008-0.010-0.015-0.017-0.023-0.017-0.023-0.038-0.043-0.060-0.062 0.004-0.013 0.005-0.030 0.005-0.044 0-0.096-0.079-0.156-0.148-0.208-0.015-0.011-0.076-0.055-0.076-0.073-0.003-0.044-0.047-0.068-0.087-0.068-0.038 0.002-0.082 0.027-0.082 0.068-0.001 0.016-0.040 0.045-0.062 0.063l-0.012 0.010c-0.069 0.052-0.149 0.112-0.149 0.208v0.022h0.001c0.003 0.007 0.003 0.014 0.004 0.022-0.009 0.008-0.019 0.018-0.028 0.027l-0.004 0.003c-0.056 0.058-0.092 0.131-0.092 0.214l0.001 0.010c-0.001 0.036-0.003 0.083-0.014 0.123-0.011-0.040-0.014-0.087-0.014-0.124v-0.030h-0.002c-0.001-0.013-0.002-0.026-0.004-0.038-0.008-0.035-0.022-0.069-0.042-0.099-0.004-0.008-0.010-0.015-0.015-0.023-0.019-0.023-0.039-0.043-0.061-0.062 0.004-0.013 0.005-0.030 0.005-0.044 0-0.096-0.080-0.156-0.148-0.208-0.015-0.011-0.076-0.055-0.076-0.073-0.001-0.041-0.042-0.066-0.080-0.068h-0.007c-0.039 0.002-0.081 0.026-0.083 0.068-0.001 0.017-0.061 0.062-0.076 0.073-0.068 0.052-0.149 0.112-0.149 0.208v0.004l0.001 0.001c0 0.014 0.002 0.027 0.006 0.039-0.010 0.008-0.019 0.018-0.030 0.027-0.002 0.002-0.002 0.002-0.004 0.003-0.042 0.044-0.073 0.097-0.086 0.155-0.005 0.019-0.007 0.039-0.007 0.059v0.010c0 0.036-0.004 0.083-0.014 0.123-0.010-0.040-0.013-0.087-0.013-0.124v-0.030h-0.002c-0.003-0.049-0.020-0.095-0.047-0.137-0.005-0.008-0.010-0.015-0.016-0.023-0.018-0.023-0.040-0.043-0.061-0.062 0.005-0.013 0.005-0.030 0.005-0.044 0-0.096-0.078-0.156-0.148-0.208l-0.013-0.011c-0.022-0.016-0.062-0.048-0.062-0.062-0.002-0.044-0.047-0.068-0.087-0.068-0.039 0.002-0.081 0.026-0.083 0.068-0.001 0.017-0.061 0.062-0.075 0.073-0.069 0.052-0.149 0.112-0.149 0.208v0.022h0.003c0 0.007 0.001 0.014 0.004 0.022-0.010 0.008-0.021 0.018-0.032 0.028-0.001 0.001-0.002 0.001-0.002 0.002-0.058 0.058-0.092 0.131-0.092 0.214l0.001 0.010c-0.001 0.042-0.008 0.114-0.032 0.154-0.007-0.012-0.011-0.026-0.016-0.040-0.011-0.038-0.014-0.084-0.015-0.115v-0.030c-0.005-0.049-0.021-0.095-0.048-0.137-0.006-0.008-0.011-0.015-0.016-0.023-0.018-0.023-0.039-0.043-0.060-0.062 0.004-0.013 0.005-0.030 0.005-0.044 0-0.096-0.079-0.156-0.148-0.208-0.015-0.011-0.074-0.055-0.075-0.073-0.004-0.044-0.047-0.068-0.088-0.068-0.038 0.002-0.081 0.026-0.082 0.068-0.001 0.017-0.060 0.062-0.075 0.073-0.070 0.052-0.149 0.112-0.149 0.208v0.005c0.001 0.014 0.003 0.027 0.006 0.041-0.011 0.007-0.021 0.016-0.031 0.025-0.001 0.002-0.002 0.002-0.002 0.003-0.022 0.023-0.039 0.047-0.056 0.072-0.014 0.026-0.024 0.054-0.031 0.084-0.007-0.041-0.020-0.080-0.045-0.115-0.020-0.027-0.047-0.052-0.076-0.072 0.004-0.014 0.005-0.029 0.005-0.043v-0.023c-0.002-0.023-0.006-0.047-0.013-0.069-0.006-0.019-0.013-0.037-0.022-0.056-0.007-0.017-0.019-0.034-0.028-0.048 0.030-0.069 0.063-0.136 0.101-0.201zM15.817 6.241c0.018-0.060 0.038-0.121 0.046-0.184 0.004 0.006 0.008 0.015 0.013 0.022 0.005 0.011 0.011 0.024 0.012 0.036 0.006 0.016 0.008 0.033 0.010 0.049v0.009c0 0.007-0.002 0.016-0.003 0.022l-0.002 0.002-0.003 0.006-0.003 0.005c-0.021 0.033-0.006 0.072 0.027 0.091 0.027 0.016 0.058 0.036 0.076 0.063 0.022 0.029 0.027 0.065 0.027 0.1v0.022h0.002c0.001 0.077 0.013 0.187 0.059 0.246 0.026 0.032 0.061 0.052 0.104 0.052 0.011 0 0.023-0.002 0.032-0.005 0.028-0.006 0.054-0.023 0.072-0.047 0.047-0.059 0.058-0.168 0.060-0.246v0-0.022c0-0.047 0.021-0.090 0.053-0.124 0.002-0.001 0.002-0.002 0.003-0.002 0.007-0.006 0.013-0.013 0.021-0.017l0.002-0.003c0.007-0.005 0.014-0.011 0.023-0.015h-0.001c0.035-0.018 0.052-0.058 0.028-0.093-0.001-0.003-0.004-0.009-0.006-0.013l-0.001-0.003c-0.002-0.004-0.003-0.010-0.003-0.013v-0.005c0-0.038 0.066-0.084 0.093-0.105 0.016-0.011 0.031-0.024 0.046-0.035 0.015 0.012 0.032 0.024 0.046 0.035 0.026 0.021 0.094 0.067 0.094 0.105 0 0.007-0.002 0.016-0.005 0.022l-0.003 0.007-0.003 0.005c-0.021 0.033-0.007 0.072 0.025 0.091 0.026 0.015 0.049 0.034 0.067 0.059 0.004 0.003 0.007 0.007 0.010 0.012 0.017 0.025 0.026 0.054 0.028 0.084v0.018c0.002 0.089 0.022 0.205 0.092 0.269 0.025 0.022 0.058 0.036 0.093 0.041 0.006 0 0.011 0 0.016 0 0.042 0 0.078-0.015 0.109-0.041 0.067-0.060 0.088-0.17 0.092-0.257v0-0.022c0-0.047 0.020-0.089 0.054-0.124 0-0.001 0.001-0.002 0.003-0.003 0.007-0.007 0.014-0.013 0.021-0.019s0.015-0.011 0.023-0.016c0.035-0.017 0.051-0.056 0.029-0.092-0.003-0.003-0.005-0.009-0.008-0.013v-0.003c-0.001-0.006-0.001-0.010-0.003-0.014v-0.004c0-0.038 0.067-0.084 0.093-0.105 0.015-0.011 0.032-0.024 0.045-0.035 0.018 0.012 0.032 0.024 0.048 0.035 0.027 0.021 0.091 0.067 0.091 0.105 0 0.009-0.001 0.018-0.003 0.025l-0.005 0.006-0.001 0.003c-0.022 0.031-0.009 0.066 0.018 0.086 0.003 0.001 0.004 0.003 0.007 0.005 0.026 0.015 0.049 0.034 0.067 0.059 0.004 0.003 0.007 0.007 0.011 0.012 0.017 0.025 0.027 0.054 0.027 0.084v0.018c0.002 0.083 0.019 0.201 0.078 0.264 0.027 0.031 0.065 0.046 0.105 0.046 0.006 0 0.014 0 0.020-0.002 0.032-0.004 0.061-0.019 0.086-0.044 0.060-0.059 0.076-0.17 0.076-0.252h0.001v-0.022c0-0.047 0.021-0.089 0.052-0.124 0.001 0 0.003-0.001 0.004-0.003 0.008-0.007 0.015-0.013 0.022-0.019 0.009-0.006 0.015-0.011 0.022-0.016 0.034-0.017 0.052-0.056 0.029-0.092-0.003-0.003-0.005-0.009-0.007-0.013v-0.003c-0.002-0.004-0.002-0.010-0.002-0.014v-0.005c0-0.038 0.065-0.084 0.092-0.105 0.015-0.011 0.031-0.024 0.047-0.035l0.004 0.005c0.014 0.010 0.027 0.020 0.040 0.031 0.027 0.021 0.093 0.067 0.093 0.105 0 0.009-0.001 0.017-0.005 0.025l-0.002 0.006-0.003 0.002c-0.022 0.034-0.008 0.072 0.025 0.092 0.026 0.015 0.049 0.034 0.067 0.059 0.004 0.003 0.005 0.007 0.009 0.012 0.017 0.027 0.027 0.056 0.027 0.089v0.004c0 0.003 0 0.006 0.001 0.007 0 0.083 0.015 0.204 0.077 0.267 0.024 0.024 0.053 0.040 0.086 0.044 0.006 0.002 0.014 0.002 0.020 0.002 0.041 0 0.077-0.015 0.105-0.046 0.062-0.062 0.078-0.181 0.078-0.264v-0.010c0-0.047 0.020-0.090 0.053-0.125l0.003-0.002c0.008-0.006 0.015-0.014 0.024-0.020 0.006-0.006 0.014-0.011 0.022-0.016l0.008-0.003v-0.002l0.002-0.001c0.028-0.021 0.037-0.054 0.019-0.086-0.004-0.004-0.006-0.010-0.008-0.014v-0.003c-0.002-0.004-0.002-0.010-0.003-0.013l0.001-0.005c0-0.038 0.066-0.084 0.092-0.105 0.016-0.011 0.032-0.024 0.047-0.035 0.014 0.012 0.030 0.024 0.046 0.035 0.027 0.021 0.094 0.067 0.094 0.105 0 0.007-0.003 0.016-0.006 0.023l-0.003 0.007-0.002 0.002c-0.023 0.034-0.009 0.072 0.026 0.092 0.025 0.015 0.050 0.034 0.066 0.059 0.003 0.005 0.007 0.008 0.010 0.012 0.016 0.025 0.026 0.054 0.027 0.083v0.031h0.002c0.004 0.081 0.020 0.182 0.078 0.243 0.032 0.035 0.074 0.054 0.122 0.054 0.005 0 0.011 0 0.015 0 0.035-0.005 0.066-0.019 0.095-0.041 0.023-0.021 0.043-0.050 0.055-0.082 0.027-0.061 0.035-0.134 0.035-0.194v-0.001c0-0.049 0.021-0.092 0.054-0.126l0.004-0.002c0.006-0.006 0.011-0.013 0.018-0.017l0.003-0.003c0.008-0.005 0.015-0.011 0.024-0.016l0.009-0.004c0.027-0.021 0.039-0.055 0.020-0.086-0.004-0.004-0.006-0.010-0.008-0.014v0-0.001c-0.001-0.005-0.003-0.011-0.004-0.014v-0.005c0-0.038 0.067-0.084 0.095-0.105 0.014-0.011 0.030-0.024 0.044-0.035 0.014 0.012 0.030 0.024 0.046 0.035 0.027 0.021 0.093 0.067 0.093 0.105 0 0.007-0.002 0.016-0.005 0.023l-0.004 0.007-0.001 0.002c-0.023 0.034-0.007 0.072 0.026 0.092 0.025 0.015 0.048 0.034 0.066 0.059 0.002 0.003 0.007 0.006 0.008 0.011v0c0.018 0.026 0.028 0.055 0.031 0.085v0.031c0.002 0.077 0.012 0.187 0.059 0.246 0.019 0.024 0.044 0.040 0.071 0.047 0.010 0.003 0.022 0.005 0.033 0.005 0.042 0 0.078-0.019 0.103-0.052 0.047-0.059 0.059-0.168 0.061-0.246h0.001v-0.022c0-0.035 0.005-0.071 0.026-0.1 0.019-0.028 0.050-0.046 0.078-0.063 0.032-0.019 0.047-0.056 0.026-0.090-0.002-0.004-0.006-0.010-0.007-0.014v0-0.001c-0.002-0.005-0.003-0.011-0.003-0.015v-0.004c0-0.042 0.014-0.082 0.035-0.116 0.009 0.063 0.029 0.125 0.047 0.185 0.059 0.2 0.108 0.392-0.006 0.585-0.001 0.001-0.003 0.003-0.005 0.005h-5.159c0-0.002-0.001-0.004-0.001-0.005-0.116-0.193-0.068-0.385-0.007-0.585zM15.648 6.991l0.007-0.015h5.502l0.006 0.015c0.029 0.065 0.053 0.131 0.076 0.198-0.015 0.027-0.029 0.054-0.041 0.082-0.004 0.012-0.008 0.022-0.013 0.033-0.021 0.063-0.034 0.129-0.037 0.195h-0.001v0.022c0 0.025 0.004 0.052 0.010 0.077-0.040 0.034-0.069 0.074-0.093 0.119-0.044 0.079-0.056 0.169-0.056 0.259v0.022h0.001v0.001c0 0.057-0.006 0.177-0.048 0.219-0.050-0.046-0.057-0.175-0.057-0.241v0c0-0.117-0.036-0.233-0.106-0.328-0.013-0.016-0.027-0.032-0.042-0.049l0.001-0.002c0.003-0.018 0.006-0.036 0.009-0.053v0-0.024c0-0.134-0.080-0.221-0.168-0.312v0c-0.027-0.028-0.092-0.091-0.094-0.13-0.002-0.047-0.039-0.087-0.086-0.088-0.051-0.001-0.090 0.038-0.092 0.088-0.001 0.039-0.067 0.102-0.094 0.13-0.087 0.091-0.167 0.177-0.167 0.312 0 0.025 0.002 0.053 0.009 0.079-0.030 0.031-0.055 0.066-0.078 0.103-0.005 0.013-0.012 0.023-0.017 0.036-0.035 0.067-0.051 0.141-0.053 0.217h-0.001v0.042h0.001c-0.001 0.029-0.002 0.061-0.012 0.092-0.012 0.047-0.038 0.091-0.082 0.115l-0.002 0.002c-0.018 0.010-0.040 0.015-0.062 0.015h-0.004c-0.019-0.001-0.039-0.005-0.056-0.015-0.073-0.038-0.096-0.13-0.096-0.206 0.002-0.008 0.002-0.016 0.002-0.025v-0.020h-0.002c-0.003-0.112-0.040-0.217-0.106-0.307-0.012-0.016-0.026-0.032-0.040-0.049v-0.002c0.004-0.018 0.007-0.036 0.007-0.053h0.002v-0.024c0-0.134-0.080-0.221-0.168-0.312-0.028-0.028-0.092-0.091-0.095-0.13-0.001-0.042-0.028-0.078-0.068-0.087-0.006-0.001-0.011-0.001-0.015-0.001-0.050-0.001-0.090 0.039-0.092 0.088-0.002 0.039-0.066 0.102-0.094 0.13-0.042 0.044-0.082 0.087-0.113 0.134-0.033 0.050-0.055 0.109-0.055 0.178 0 0.025 0.003 0.053 0.010 0.079-0.031 0.031-0.056 0.066-0.078 0.103-0.005 0.013-0.012 0.023-0.017 0.036-0.034 0.067-0.050 0.141-0.054 0.217h-0.001v0.042c-0.002 0.085-0.040 0.16-0.123 0.196-0.031 0.014-0.063 0.020-0.097 0.021l-0.003-0.001c-0.033 0.001-0.067-0.005-0.097-0.019-0.093-0.038-0.136-0.122-0.136-0.219 0-0.117-0.036-0.232-0.107-0.327-0.012-0.016-0.027-0.032-0.042-0.049v-0.002c0.005-0.018 0.008-0.036 0.008-0.053h0.001v-0.024c0-0.069-0.022-0.127-0.053-0.178-0.030-0.048-0.070-0.090-0.113-0.134-0.027-0.028-0.092-0.089-0.094-0.13-0.002-0.047-0.039-0.087-0.085-0.088-0.009 0-0.015 0-0.023 0.001-0.040 0.010-0.069 0.045-0.069 0.087-0.001 0.039-0.067 0.102-0.095 0.13-0.087 0.091-0.167 0.177-0.167 0.312 0 0.025 0.003 0.053 0.010 0.079-0.031 0.031-0.057 0.066-0.079 0.103-0.005 0.013-0.011 0.023-0.017 0.036-0.033 0.067-0.051 0.141-0.054 0.217v0 0.045c0 0.076-0.022 0.168-0.094 0.206-0.018 0.010-0.038 0.014-0.058 0.015h-0.004c-0.022 0-0.043-0.005-0.061-0.015-0.076-0.040-0.097-0.137-0.097-0.216v-0.014c0-0.117-0.035-0.232-0.106-0.327-0.013-0.016-0.027-0.032-0.042-0.049l0.002-0.002c0.004-0.018 0.006-0.036 0.008-0.053v0-0.024c0-0.134-0.078-0.221-0.167-0.312-0.029-0.028-0.092-0.089-0.095-0.13-0.001-0.047-0.038-0.087-0.086-0.088s-0.089 0.039-0.090 0.088c-0.001 0.039-0.068 0.102-0.095 0.13v0c-0.086 0.091-0.166 0.177-0.166 0.312 0 0.025 0.003 0.053 0.009 0.079-0.030 0.031-0.055 0.066-0.076 0.103-0.006 0.013-0.014 0.023-0.019 0.036-0.032 0.067-0.049 0.141-0.053 0.217v0 0.042c0 0.066-0.012 0.177-0.057 0.22-0.040-0.043-0.047-0.163-0.047-0.22v-0.014c0.001-0.002 0.001-0.005 0.001-0.008 0-0.090-0.013-0.179-0.055-0.259-0.025-0.045-0.056-0.085-0.094-0.119v-0.001c0.006-0.018 0.007-0.036 0.008-0.053h0.001v-0.024c0-0.115-0.032-0.235-0.091-0.332 0.021-0.065 0.047-0.132 0.074-0.197zM15.571 8.846c-0.342-0.375-0.3-0.759-0.199-1.223 0.025-0.107 0.050-0.216 0.058-0.326 0.040 0.068 0.058 0.148 0.058 0.224v0.008c0 0.010-0.001 0.016-0.004 0.026l-0.003 0.008v0.004c-0.002 0.006-0.006 0.013-0.008 0.021-0.019 0.040-0.008 0.089 0.029 0.114 0.036 0.029 0.070 0.060 0.092 0.102 0.028 0.051 0.034 0.115 0.034 0.172 0 0.003 0 0.005 0 0.007v0.013c-0 0.114 0.018 0.278 0.107 0.359 0.033 0.031 0.075 0.050 0.121 0.049 0.044-0.002 0.084-0.021 0.114-0.051 0.091-0.085 0.116-0.249 0.116-0.368v-0.017c0-0.051 0.012-0.104 0.035-0.15 0.004-0.007 0.008-0.015 0.011-0.023 0.021-0.036 0.049-0.069 0.082-0.095v-0.002c0.034-0.026 0.044-0.073 0.025-0.112v0.002c-0.004-0.009 0 0-0.004-0.009l-0.001-0.005c0-0.001 0-0.002-0.002-0.004v-0.001c-0.004-0.016-0.007-0.032-0.007-0.049 0-0.068 0.069-0.136 0.115-0.183 0.018-0.019 0.040-0.039 0.059-0.061 0.017 0.022 0.036 0.042 0.056 0.061 0.045 0.046 0.115 0.115 0.115 0.183v0.008c0 0.010-0.001 0.016-0.004 0.026l-0.002 0.008v0.004c-0.003 0.006-0.006 0.013-0.010 0.021-0.019 0.040-0.006 0.087 0.029 0.114h0.001c0.010 0.008 0.018 0.016 0.027 0.025 0.010 0.011 0.021 0.022 0.028 0.034 0.047 0.061 0.069 0.137 0.069 0.214v0.013c-0.002 0.151 0.053 0.304 0.191 0.378 0.044 0.025 0.093 0.037 0.143 0.037h0.004c0.048 0 0.096-0.012 0.138-0.035 0.137-0.072 0.192-0.224 0.191-0.371v-0.002l-0.001-0.011v-0.014c0.001-0.054 0.012-0.105 0.035-0.153 0.004-0.007 0.009-0.015 0.012-0.023 0.021-0.036 0.049-0.069 0.082-0.095 0.034-0.027 0.045-0.075 0.026-0.114v0.002c-0.005-0.009-0.001-0.002-0.003-0.009l-0.003-0.005c-0-0.002-0-0.001-0-0.002v-0.001l-0.001-0.003c-0.005-0.016-0.007-0.032-0.007-0.049 0-0.068 0.069-0.136 0.113-0.183 0.015-0.013 0.028-0.026 0.040-0.039l0.020-0.022c0.018 0.022 0.038 0.042 0.058 0.061 0.045 0.046 0.115 0.115 0.115 0.183v0.008c-0.001 0.010-0.003 0.016-0.005 0.026l-0.001 0.008v0.004c-0.004 0.006-0.006 0.013-0.010 0.021-0.017 0.040-0.007 0.087 0.029 0.114l0.001 0c0.009 0.008 0.018 0.016 0.028 0.024 0.010 0.011 0.019 0.022 0.027 0.034 0.024 0.031 0.043 0.066 0.054 0.106 0.012 0.035 0.015 0.072 0.015 0.108 0.002 0.171 0.085 0.321 0.247 0.389 0.052 0.021 0.108 0.032 0.164 0.032h0.005c0.057-0.001 0.114-0.013 0.167-0.037 0.153-0.069 0.23-0.21 0.23-0.375v-0.018c0-0.033 0.005-0.068 0.015-0.1 0.004-0.018 0.011-0.034 0.018-0.050 0.004-0.007 0.009-0.015 0.014-0.023 0.020-0.036 0.048-0.069 0.081-0.095 0.034-0.027 0.045-0.075 0.026-0.112v-0.002c-0.004-0.006 0 0.002-0.003-0.006l-0.003-0.005v-0.001l-0.002-0.003c-0.006-0.016-0.007-0.032-0.007-0.049 0-0.068 0.069-0.136 0.115-0.183 0.019-0.019 0.039-0.039 0.057-0.061 0.007 0.007 0.013 0.014 0.020 0.020 0.011 0.015 0.025 0.028 0.039 0.041 0.044 0.046 0.114 0.115 0.114 0.183v0.008c0 0.010-0.003 0.017-0.003 0.026l-0.002 0.008v0.002c-0.002 0.007-0.006 0.015-0.010 0.023-0.018 0.040-0.006 0.088 0.030 0.114 0.010 0.008 0.019 0.016 0.028 0.025 0.010 0.011 0.018 0.022 0.028 0.034 0.043 0.059 0.067 0.132 0.070 0.206v0.009c0 0.006 0 0.012 0 0.018-0.001 0.003-0.001 0.005 0 0.008 0 0.146 0.055 0.296 0.191 0.367 0.043 0.023 0.089 0.035 0.137 0.035l0.005 0.001c0.050-0.001 0.098-0.013 0.142-0.037l0.002-0.001 0.004-0.001c0.134-0.077 0.185-0.228 0.185-0.376v-0.004l-0.001-0.018c0.001-0.052 0.015-0.103 0.036-0.149 0.003-0.007 0.007-0.015 0.012-0.023 0.020-0.036 0.048-0.069 0.081-0.095 0.032-0.027 0.043-0.075 0.025-0.112v-0.002c-0.001-0.002-0.002-0.004-0.002-0.006l-0.003-0.005v-0.001l-0.002-0.003c-0.004-0.016-0.007-0.032-0.007-0.049 0-0.068 0.070-0.136 0.114-0.183 0.021-0.019 0.041-0.039 0.059-0.061 0.018 0.022 0.037 0.042 0.057 0.061 0.046 0.046 0.115 0.115 0.115 0.183v0.008c0 0.010-0.002 0.017-0.003 0.026l-0.001 0.008-0.001 0.002c-0.002 0.007-0.005 0.015-0.009 0.023-0.017 0.039-0.007 0.085 0.025 0.11l0.005 0.004c0.009 0.008 0.019 0.016 0.028 0.025 0.010 0.011 0.019 0.022 0.028 0.034 0.045 0.061 0.070 0.137 0.070 0.214-0.002 0.122 0.021 0.289 0.113 0.377 0.032 0.030 0.072 0.050 0.117 0.051 0.046 0.001 0.087-0.018 0.119-0.049 0.002-0.001 0.004-0.003 0.006-0.003 0.083-0.085 0.102-0.242 0.102-0.355v-0.020c0-0.057 0.007-0.121 0.033-0.172 0.022-0.041 0.058-0.075 0.096-0.104 0.032-0.027 0.043-0.075 0.024-0.114v0c-0.003-0.006 0 0.002-0.003-0.006l-0.001-0.005v-0.001l-0.003-0.003c-0.005-0.016-0.006-0.032-0.006-0.049l-0.001-0.010c0.001-0.049 0.011-0.099 0.026-0.145 0.002-0.009 0.006-0.015 0.009-0.024 0.005-0.015 0.013-0.031 0.022-0.044 0.008 0.108 0.033 0.22 0.056 0.324 0.104 0.464 0.146 0.848-0.197 1.223h-5.668zM14.182 10.305l-0.222 0.253-0.286-0.271v0.001c-0.070-0.060-0.165-0.093-0.257-0.087-0.019 0.001-0.039 0.003-0.058 0.006-0.078 0.017-0.148 0.059-0.201 0.118l-0.006 0.006c-0.030 0.035-0.052 0.075-0.069 0.116-0.020 0.052-0.030 0.109-0.028 0.165 0.002 0.045 0.012 0.088 0.028 0.129 0.019 0.050 0.048 0.097 0.088 0.136v0l0.276 0.262-0.364 0.414-0.522 0.594-1.27-1.201 0.794-0.9 0.093-0.107 0.315 0.297 0.015 0.017 0.003-0.003c0.071 0.060 0.163 0.092 0.257 0.089 0.101-0.006 0.193-0.050 0.262-0.127l0.010-0.009c0.014-0.020 0.029-0.041 0.042-0.064 0.034-0.065 0.052-0.136 0.048-0.21v-0.003c-0.002-0.061-0.019-0.121-0.048-0.175-0.018-0.033-0.041-0.063-0.068-0.091l-0.006-0.006-0.315-0.299 0.289-0.329 0.003-0.005c0.065-0.077 0.098-0.177 0.095-0.277-0.006-0.102-0.046-0.198-0.119-0.27l-0.012-0.010c-0.071-0.063-0.165-0.099-0.261-0.096-0.001 0-0.003 0-0.006 0-0.093 0.004-0.182 0.045-0.247 0.111v0l-0.304 0.343-0.046-0.043-0.286-0.269-0.001 0c-0.072-0.062-0.165-0.094-0.26-0.088-0.018 0.001-0.038 0.003-0.056 0.006-0.078 0.017-0.145 0.056-0.198 0.114l-0.013 0.015c-0.066 0.076-0.098 0.176-0.093 0.275v0.025h0.001c0.010 0.091 0.048 0.176 0.112 0.24v0.001l0.326 0.308-0.888 1.008-1.299-1.23 0.513-0.582 0.375-0.427 0.084 0.080 0.187 0.174v0.001c0.073 0.069 0.173 0.106 0.272 0.1 0.098-0.004 0.188-0.047 0.256-0.119l0.002 0.001 0.010-0.013c0.065-0.076 0.099-0.177 0.095-0.278v-0.001c-0.005-0.099-0.044-0.194-0.115-0.265v-0.001l-0.277-0.261 0.778-0.884 3.129 2.965-0.554 0.63zM11.447 6.305l-0.003-0.003c-0.011-0.011-0.018-0.028-0.018-0.043 0-0.017 0.003-0.033 0.014-0.047l0.2-0.228 0.007-0.005c0.010-0.010 0.024-0.015 0.040-0.016 0.014 0 0.030 0.005 0.040 0.014l6.286 5.956h-0.628l-5.939-5.628zM17.125 11.932h-0.155c0.017-0.034 0.031-0.067 0.048-0.102l0.030 0.030 0.078 0.072zM13.213 18.501v0.001l-0.005 0.006c-0.019 0.016-0.042 0.025-0.065 0.029-0.011 0.002-0.021 0.003-0.032 0.003-0.009 0-0.018 0-0.028 0-0.069-0.006-0.141-0.032-0.201-0.064l-0.029-0.014-0.031 0.008c-0.127 0.029-0.243 0.084-0.342 0.17-0.102 0.086-0.178 0.197-0.237 0.314l-0.055 0.11 0.118 0.020 0.004 0.002c0.041 0.007 0.084 0.016 0.126 0.026 0.043 0.012 0.085 0.025 0.127 0.041 0.197 0.073 0.373 0.188 0.52 0.336 0.017 0.018 0.034 0.038 0.052 0.056l0.007 0.010c0.254 0.29 0.383 0.674 0.366 1.058v0.004c-0.003 0.060-0.009 0.12-0.020 0.18-0.049 0.306-0.19 0.585-0.406 0.804-0.010 0.012-0.023 0.022-0.033 0.034l-0.009 0.009c-0.186 0.173-0.41 0.294-0.656 0.348-0.078 0.018-0.158 0.027-0.237 0.031-0.020 0-0.041 0.002-0.062 0.002-0.401-0.002-0.786-0.18-1.051-0.481l-0.014-0.014-0.111-0.132-0.048 0.136-0.003 0.009c-0.010 0.029-0.023 0.057-0.035 0.086-0.013 0.027-0.026 0.056-0.040 0.084-0.074 0.143-0.172 0.274-0.29 0.385l-0.009 0.010c-0.027 0.025-0.052 0.047-0.083 0.070-0.135 0.109-0.292 0.193-0.459 0.245-0.153 0.049-0.315 0.070-0.476 0.063-0.374-0.018-0.72-0.186-0.972-0.463h0.001l-0.021-0.022c-0.252-0.288-0.382-0.675-0.365-1.059v-0.002c0.002-0.061 0.008-0.122 0.019-0.181 0.051-0.314 0.198-0.604 0.426-0.827v0l0.024-0.022c0.054-0.050 0.11-0.095 0.17-0.137 0.019-0.013 0.040-0.026 0.062-0.039 0.103-0.063 0.215-0.112 0.331-0.146l0.14-0.041-0.099-0.109-0.014-0.015-0.010-0.011-0.007-0.009c-0.253-0.291-0.384-0.675-0.367-1.058 0.017-0.381 0.174-0.743 0.446-1.010l0.002 0.002 0.016-0.017 0.014-0.014c0.193-0.176 0.43-0.297 0.681-0.346 0.108-0.023 0.218-0.030 0.329-0.025 0.044 0.003 0.088 0.006 0.13 0.013 0.325 0.047 0.622 0.206 0.843 0.452v0.001l0.013 0.014 0.016 0.018v-0.001c0.068 0.079 0.126 0.166 0.175 0.259 0.019 0.031 0.035 0.064 0.050 0.096 0.073 0.167 0.119 0.346 0.13 0.528l0.008 0.125 0.112-0.046c0.121-0.050 0.233-0.121 0.323-0.217l0.012-0.013c0.086-0.095 0.145-0.205 0.183-0.327l0.009-0.028-0.011-0.031-0.002-0.002c-0.007-0.022-0.014-0.045-0.020-0.068v-0.002c-0.008-0.021-0.010-0.042-0.015-0.064-0.010-0.065-0.012-0.16 0.040-0.209l0.003-0.004c0.068-0.060 0.192-0.026 0.267 0.004 0.068 0.027 0.134 0.065 0.192 0.108 0.007 0.007 0.013 0.014 0.018 0.018 0.041 0.032 0.081 0.066 0.119 0.101 0.007 0.006 0.015 0.016 0.022 0.023 0.023 0.022 0.045 0.046 0.066 0.070l0.004 0.002v0.002c0.003 0.003 0.003 0.004 0.004 0.005 0.043 0.049 0.081 0.098 0.117 0.15l0.007 0.011 0.003 0.002c0.008 0.011 0.013 0.021 0.020 0.032h0.001c0.004 0.011 0.012 0.022 0.018 0.033 0.004 0.005 0.007 0.012 0.013 0.017 0.001 0.003 0.003 0.004 0.005 0.005 0.036 0.068 0.066 0.139 0.087 0.211 0.022 0.080 0.044 0.214-0.022 0.279zM13.229 17.802c-0.039-0.059-0.084-0.114-0.13-0.167 0 0-0.108-0.114-0.156-0.158l0.849-0.803 0.045 0.553-0.608 0.576zM22.511 20.379c-0.075 0.901-1 1.654-1.915 1.94-0.234 0.073-0.465 0.115-0.683 0.123-0.021 0.001-2.954 0.001-2.954 0.001-0.235 0-0.488-0.044-0.745-0.123-0.913-0.286-1.841-1.039-1.913-1.94l-0.118-1.431-0.554-6.806h9.555l-0.103 1.284-0.568 6.953zM22.975 17.226l0.045-0.553 0.847 0.803c-0.051 0.046-0.245 0.267-0.284 0.325l-0.607-0.576zM28.703 20.941c0.017 0.383-0.113 0.766-0.363 1.056h-0.002l-0.009 0.012c-0.252 0.285-0.602 0.457-0.984 0.476-0.022 0-0.043 0-0.065 0-0.317 0-0.625-0.11-0.871-0.308-0.029-0.024-0.057-0.047-0.084-0.074l-0.011-0.008c-0.116-0.111-0.213-0.241-0.287-0.383-0.014-0.028-0.027-0.057-0.040-0.084-0.014-0.029-0.024-0.057-0.035-0.086l-0.002-0.008-0.048-0.139-0.098 0.118-0.012 0.015-0.009 0.007-0.004 0.007c-0.265 0.301-0.651 0.48-1.053 0.481-0.019 0-0.042-0.002-0.061-0.002-0.079-0.003-0.159-0.013-0.237-0.031-0.247-0.054-0.471-0.175-0.655-0.349l-0.010-0.008c-0.148-0.142-0.263-0.31-0.341-0.498-0.045-0.108-0.079-0.222-0.098-0.34-0.010-0.057-0.016-0.116-0.019-0.176v0-0.008c-0.011-0.225 0.031-0.45 0.117-0.657 0.061-0.146 0.144-0.283 0.25-0.404l0.008-0.009c0.158-0.175 0.351-0.31 0.571-0.39 0.041-0.015 0.083-0.028 0.127-0.041 0.041-0.010 0.083-0.019 0.127-0.026l0.119-0.022-0.053-0.11c-0.060-0.117-0.136-0.228-0.238-0.314-0.101-0.085-0.215-0.141-0.345-0.17l-0.029-0.008-0.028 0.014c-0.069 0.035-0.153 0.066-0.23 0.064-0.010 0-0.022-0.001-0.031-0.003-0.025-0.004-0.046-0.013-0.066-0.029l-0.003-0.004-0.005-0.004c-0.063-0.065-0.041-0.198-0.022-0.277 0.021-0.072 0.052-0.143 0.089-0.211 0.002-0.001 0.004-0.002 0.005-0.005 0.004-0.005 0.009-0.011 0.014-0.018 0.004-0.010 0.011-0.020 0.017-0.031l0.001-0.001c0.006-0.010 0.013-0.021 0.021-0.032l0.001-0.001c0.039-0.058 0.080-0.111 0.125-0.162 0-0.001 0.004-0.002 0.004-0.005l0.004-0.004c0.022-0.023 0.042-0.047 0.065-0.069 0.009-0.007 0.016-0.017 0.024-0.023 0.037-0.035 0.076-0.069 0.117-0.101 0.007-0.005 0.014-0.011 0.017-0.018 0.061-0.043 0.127-0.081 0.195-0.108 0.076-0.032 0.201-0.064 0.268-0.003l0.001 0.001c0.054 0.050 0.051 0.145 0.040 0.211-0.003 0.022-0.006 0.043-0.012 0.064l-0.001 0.002c-0.006 0.023-0.014 0.047-0.022 0.069l-0.010 0.031 0.010 0.028c0.036 0.122 0.096 0.233 0.18 0.327l0.013 0.013c0.092 0.096 0.202 0.167 0.324 0.217l0.113 0.046 0.009-0.125c0.011-0.182 0.056-0.36 0.13-0.528 0.015-0.032 0.030-0.065 0.046-0.096 0.052-0.094 0.113-0.183 0.182-0.263l0.002 0.001 0.010-0.014 0.013-0.014c0.222-0.246 0.518-0.405 0.844-0.453 0.042-0.007 0.086-0.010 0.131-0.012 0.259-0.012 0.515 0.052 0.74 0.176 0.102 0.057 0.194 0.126 0.28 0.206l0.021 0.021h0.002c0.272 0.266 0.428 0.627 0.444 1.007 0.017 0.383-0.113 0.767-0.365 1.057l-0.013 0.013-0.006 0.008-0.113 0.124 0.139 0.041c0.117 0.034 0.228 0.083 0.332 0.146 0.020 0.014 0.041 0.026 0.061 0.039 0.059 0.042 0.116 0.087 0.169 0.136l0.028 0.025c0.225 0.223 0.372 0.511 0.425 0.825 0.010 0.060 0.014 0.12 0.018 0.181v0.002z"></path>
<path fill="#fff" d="M28.196 20.844c-0.033-0.207-0.133-0.398-0.284-0.543l-0.011-0.009c-0.168-0.156-0.391-0.246-0.62-0.246-0.015 0-0.028 0.001-0.043 0.001-0.245 0.012-0.472 0.123-0.636 0.305l-0.020 0.021h0.002c-0.076 0.090-0.134 0.194-0.175 0.306-0.043 0.119-0.062 0.247-0.057 0.374 0.004 0.1 0.024 0.196 0.057 0.288 0.048 0.136 0.125 0.262 0.23 0.365v0.001l0.021 0.019c0.12 0.111 0.265 0.188 0.425 0.225 0.065 0.014 0.13 0.021 0.194 0.021 0.251 0 0.493-0.105 0.667-0.293h0.002l0.025-0.030c0.161-0.187 0.245-0.436 0.233-0.683-0.001-0.040-0.005-0.079-0.012-0.119zM27.841 21.526v0l-0.012 0.016c-0.142 0.158-0.341 0.247-0.549 0.247-0.053 0-0.105-0.005-0.157-0.018-0.13-0.029-0.249-0.090-0.346-0.182l-0.022-0.024c-0.139-0.14-0.217-0.325-0.226-0.522-0.009-0.2 0.060-0.402 0.19-0.554l0.001 0.001 0.007-0.012c0.132-0.148 0.317-0.24 0.518-0.25 0.010 0 0.022 0 0.034 0 0.186 0 0.367 0.072 0.503 0.199l0.008 0.010c0.123 0.116 0.203 0.271 0.23 0.439 0.005 0.031 0.009 0.064 0.009 0.096 0.009 0.201-0.057 0.401-0.189 0.554z"></path>
<path fill="#fff" d="M20.596 16.313c0.115-0.049 0.24-0.074 0.368-0.074 0.287 0 0.563 0.127 0.736 0.358l0.055 0.072-0.016-0.090c-0.089-0.496-0.309-0.955-0.629-1.344l-0.009-0.011-0.014 0.004c-0.178 0.053-0.342 0.132-0.49 0.233-0.303 0.205-0.539 0.499-0.683 0.835-0.077 0.182-0.128 0.377-0.149 0.576-0.006 0.068-0.010 0.137-0.010 0.206 0 0.067 0.004 0.136 0.010 0.203 0.022 0.201 0.072 0.395 0.149 0.578 0.144 0.336 0.38 0.628 0.683 0.835 0.149 0.099 0.313 0.178 0.49 0.233l0.014 0.003 0.009-0.011c0.32-0.388 0.54-0.847 0.629-1.344l0.016-0.089-0.055 0.072c-0.173 0.231-0.448 0.358-0.736 0.358-0.128 0-0.253-0.027-0.368-0.077-0.303-0.127-0.53-0.409-0.53-0.763s0.227-0.637 0.53-0.765z"></path>
<path fill="#fff" d="M12.127 19.583c-0.014 0-0.028 0-0.042 0-0.224 0-0.444 0.085-0.608 0.235l-0.002-0.002-0.017 0.019c-0.183 0.174-0.289 0.415-0.299 0.669-0.003 0.048 0 0.096 0.005 0.144 0.019 0.194 0.096 0.379 0.224 0.529l-0.002 0.002 0.015 0.015c0.165 0.188 0.396 0.301 0.647 0.312 0.013 0.002 0.025 0.002 0.038 0.002 0.034 0 0.068-0.003 0.101-0.005 0.194-0.023 0.375-0.107 0.517-0.239h0.001l0.008-0.009c0.155-0.146 0.253-0.338 0.289-0.547 0.006-0.039 0.010-0.080 0.012-0.119 0.010-0.25-0.074-0.499-0.238-0.688l-0.010-0.012c-0.139-0.151-0.318-0.256-0.52-0.292-0.039-0.006-0.076-0.011-0.113-0.013h-0.004zM12.636 20.015l0.008 0.010c0.132 0.153 0.2 0.355 0.19 0.556-0 0.032-0.003 0.065-0.010 0.097-0.026 0.17-0.108 0.326-0.233 0.444l-0.006 0.007c-0.114 0.107-0.26 0.175-0.418 0.193-0.027 0.002-0.054 0.004-0.082 0.004-0.010 0-0.021 0-0.031-0.001-0.203-0.008-0.391-0.102-0.524-0.253l-0.007-0.008c-0.106-0.122-0.168-0.273-0.185-0.434-0.004-0.039-0.004-0.077-0.003-0.117 0.009-0.207 0.094-0.401 0.243-0.544l0.007-0.007c0.135-0.125 0.315-0.195 0.499-0.195 0.011 0 0.021 0 0.034 0h0.009c0.029 0.003 0.058 0.005 0.085 0.010 0.166 0.029 0.313 0.114 0.424 0.239z"></path>
<path fill="#fff" d="M10.898 17.769l-0.005-0.007-0.005-0.004c-0.129-0.145-0.297-0.247-0.487-0.289-0.048-0.011-0.099-0.018-0.152-0.019-0.105-0.005-0.208 0.008-0.307 0.039-0.129 0.040-0.252 0.109-0.351 0.202h-0.001l-0.016 0.016c-0.18 0.174-0.284 0.411-0.293 0.661-0.012 0.25 0.072 0.501 0.239 0.691l0.008 0.010c0.111 0.125 0.254 0.217 0.414 0.266 0.034 0.011 0.071 0.019 0.107 0.026s0.077 0.012 0.115 0.012h0.004c0.079 0.004 0.157-0.003 0.233-0.020 0.158-0.035 0.305-0.113 0.423-0.222h0.002l0.010-0.012c0.243-0.233 0.345-0.578 0.278-0.908-0.034-0.162-0.109-0.314-0.217-0.44zM10.73 18.971v0l-0.024 0.022c-0.086 0.080-0.191 0.14-0.305 0.171-0.072 0.020-0.15 0.030-0.23 0.026-0.031-0.002-0.062-0.005-0.092-0.010-0.048-0.009-0.093-0.022-0.137-0.040-0.109-0.041-0.209-0.111-0.288-0.199l-0.009-0.011c-0.13-0.152-0.199-0.355-0.19-0.556 0.010-0.201 0.093-0.392 0.236-0.535l0.024-0.020h-0.003c0.069-0.060 0.145-0.108 0.229-0.14 0.094-0.036 0.197-0.054 0.3-0.050 0.055 0.003 0.108 0.012 0.159 0.026 0.137 0.039 0.258 0.115 0.354 0.222l0.019 0.022c0.083 0.101 0.141 0.22 0.168 0.347 0.053 0.261-0.025 0.536-0.212 0.724z"></path>
<path fill="#fff" d="M17.047 17.286c0.008-0.069 0.011-0.139 0.011-0.208 0-0.070-0.003-0.141-0.011-0.209-0.060-0.572-0.365-1.094-0.834-1.409-0.147-0.1-0.312-0.179-0.489-0.233l-0.014-0.004-0.008 0.011c-0.321 0.389-0.541 0.848-0.63 1.344l-0.015 0.090 0.053-0.072c0.174-0.231 0.45-0.358 0.735-0.358 0.129 0 0.254 0.026 0.368 0.074 0.304 0.128 0.531 0.411 0.531 0.765s-0.225 0.635-0.531 0.764c-0.114 0.048-0.239 0.075-0.368 0.075-0.285 0-0.561-0.128-0.735-0.358l-0.053-0.072 0.015 0.089c0.090 0.497 0.31 0.956 0.63 1.344l0.008 0.011 0.014-0.003c0.177-0.054 0.342-0.134 0.489-0.233 0.469-0.316 0.773-0.838 0.834-1.41z"></path>
<path fill="#fff" d="M17.669 17.65c0.024-0.191 0.034-0.383 0.034-0.572 0-0.192-0.010-0.383-0.034-0.575-0.042-0.348-0.122-0.691-0.251-1.014-0.090-0.233-0.214-0.469-0.37-0.675-0.106-0.14-0.229-0.265-0.367-0.368l-0.010-0.009-0.012 0.007c-0.155 0.086-0.305 0.183-0.445 0.292-0.059 0.046-0.116 0.095-0.174 0.145l-0.025 0.022 0.032 0.012c0.057 0.024 0.114 0.051 0.166 0.079 0.361 0.192 0.641 0.493 0.834 0.846 0.205 0.375 0.311 0.808 0.311 1.236 0 0.426-0.106 0.859-0.311 1.235-0.193 0.353-0.473 0.652-0.834 0.846-0.052 0.029-0.109 0.055-0.166 0.079l-0.032 0.013 0.025 0.023c0.057 0.050 0.115 0.098 0.174 0.145 0.14 0.109 0.29 0.206 0.445 0.292l0.012 0.006 0.010-0.008c0.138-0.102 0.261-0.228 0.367-0.368 0.156-0.206 0.28-0.442 0.37-0.675 0.129-0.323 0.209-0.666 0.251-1.015z"></path>
<path fill="#fff" d="M17.984 14.024c-0.107 0.012-0.21 0.028-0.315 0.050-0.171 0.034-0.342 0.082-0.505 0.143l-0.027 0.009 0.018 0.023c0.225 0.295 0.394 0.652 0.515 1.033 0.19 0.588 0.265 1.232 0.265 1.796 0 0.563-0.075 1.207-0.265 1.793-0.121 0.382-0.29 0.739-0.515 1.035l-0.018 0.024 0.027 0.010c0.165 0.060 0.335 0.107 0.505 0.141 0.106 0.022 0.208 0.038 0.315 0.050 0.079 0.008 0.159 0.014 0.237 0.019l0.023 0.002v-6.149l-0.023 0.002c-0.078 0.004-0.157 0.009-0.237 0.019z"></path>
</svg>
