<!-- Generated by IcoMoon.io -->
<svg version="1.1" xmlns="http://www.w3.org/2000/svg" width="32" height="32" viewBox="0 0 32 32">
<title>quimica</title>
<path fill="#5c5b5f" d="M22.225 11.537l-0.945 1.51-0.010 12.823c0 0.677-0.262 0.942-0.94 0.937l-8.69-0.003c-0.675-0.003-0.942-0.265-0.94-0.942l0.010-12.822-0.942-1.512-1.105-0.003 1.107 1.78-0.009 12.556c0 1.196 0.682 1.88 1.878 1.88l8.69 0.010c1.196 0 1.88-0.685 1.883-1.883l0.008-12.554 1.115-1.777-1.111-0.003z"></path>
<path fill="#5c5b5f" d="M11.649 13.645l-0.008 12.22 8.694 0.005 0.013-12.219-8.699-0.006zM19.163 24.931l-1.88-0.003v-0.941l1.878 0.003 0.003 0.941zM19.163 23.053l-1.88-0.005v-0.94l1.88 0.005v0.94zM19.163 21.172l-1.88-0.003 0.003-0.942 1.878 0.003v0.942zM19.165 19.287h-1.88l0.003-0.938h1.878v0.938zM19.165 17.411l-1.883-0.003 0.003-0.941 1.88 0.003v0.941zM19.165 15.53l-1.876-0.001 0.001-0.941 1.88 0.001-0.005 0.941z"></path>
<path fill="#5c5b5f" d="M17.88 9.421c0.842 0 1.527 0.682 1.524 1.528 0.003 0.841-0.685 1.524-1.527 1.524s-1.528-0.686-1.528-1.527c0.001-0.847 0.689-1.528 1.531-1.526z"></path>
<path fill="#5c5b5f" d="M18.938 8.127c0 0.324-0.263 0.588-0.588 0.588s-0.588-0.263-0.588-0.588c0-0.324 0.263-0.588 0.588-0.588s0.588 0.263 0.588 0.588z"></path>
<path fill="#5c5b5f" d="M15.060 10.121c0.325 0.001 0.588 0.265 0.585 0.589 0.003 0.321-0.262 0.588-0.586 0.588-0.328 0-0.589-0.265-0.589-0.589 0.003-0.325 0.264-0.586 0.59-0.588z"></path>
<path fill="#5c5b5f" d="M14.358 4.248c0.326 0 0.59 0.261 0.59 0.585 0 0.326-0.266 0.589-0.591 0.589-0.323-0.001-0.584-0.265-0.585-0.588 0-0.326 0.261-0.588 0.586-0.586z"></path>
<path fill="#5c5b5f" d="M14.004 7.538c0.52-0.001 0.94 0.417 0.937 0.938 0.003 0.518-0.421 0.94-0.941 0.937-0.518 0-0.938-0.419-0.937-0.941 0.001-0.515 0.421-0.938 0.941-0.934z"></path>
<path fill="#5c5b5f" d="M16.12 6.597c0.388 0.001 0.704 0.315 0.704 0.705s-0.317 0.705-0.708 0.705c-0.39-0.001-0.701-0.315-0.705-0.704 0.004-0.39 0.321-0.705 0.709-0.707z"></path>
<path fill="#5c5b5f" d="M12.708 10.121c0.586 0 1.057 0.472 1.060 1.059-0.003 0.584-0.475 1.057-1.060 1.053-0.585 0.003-1.056-0.474-1.059-1.059 0.003-0.582 0.474-1.053 1.059-1.053z"></path>
</svg>
